# Blender v2.93.1 OBJ File: ''
# www.blender.org
mtllib asteroid3.mtl
o asteroid_3
v 0.282406 -0.300444 0.362844
v 0.282406 -0.300444 0.362844
v 0.309727 -0.410904 0.370905
v 0.290377 -0.406855 0.363316
v 0.341229 -0.499538 0.329411
v 0.209649 -0.627163 0.407748
v 0.201753 -0.645990 0.323622
v 0.160815 -0.963236 0.190442
v 0.155663 -0.788875 -0.164273
v -0.117756 -0.522185 -0.287132
v -0.409428 -0.336025 -0.290545
v -0.352619 -0.154058 -0.419547
v -0.325211 -0.069680 -0.093637
v -0.350249 0.102000 -0.210080
v -0.486710 0.263320 -0.537774
v -0.488783 0.407436 -0.554295
v -0.501013 0.403376 -0.555125
v -0.440624 0.523926 -0.529725
v -0.440624 0.523926 -0.529725
v 0.282406 -0.300444 0.362844
v 0.270636 -0.397284 0.352705
v 0.199572 -0.395482 0.295460
v 0.097461 -0.640803 0.363836
v 0.095559 -1.202880 0.445312
v -0.514044 0.399256 -0.555835
v -0.440624 0.523926 -0.529725
v 0.282406 -0.300444 0.362844
v 0.253386 -0.386494 0.342325
v -0.421425 -1.103449 0.326411
v -0.415808 -0.705477 -0.071193
v -0.734089 0.263428 -0.587950
v -0.528204 0.394756 -0.555935
v -0.440624 0.523926 -0.529725
v 0.282406 -0.300444 0.362844
v 0.238316 -0.375794 0.332745
v -0.102003 -1.165783 0.443429
v -0.859190 -0.386549 -0.190192
v -0.541443 0.392536 -0.555674
v -0.440624 0.523926 -0.529725
v 0.282406 -0.300444 0.362844
v 0.224257 -0.365173 0.323725
v -0.387768 -0.612633 0.173784
v -0.821995 -0.061276 -0.265052
v -0.551533 0.394177 -0.555875
v -0.440624 0.523926 -0.529725
v 0.282406 -0.300444 0.362844
v 0.210337 -0.354294 0.315115
v -0.558384 0.399317 -0.556825
v -0.440624 0.523926 -0.529725
v 0.282406 -0.300444 0.362844
v 0.196226 -0.342794 0.307005
v 0.146939 -0.478434 0.278734
v -0.002179 -0.679931 0.369503
v -0.915244 -0.619460 0.070859
v -0.563143 0.407017 -0.558185
v -0.440624 0.523926 -0.529725
v 0.282406 -0.300444 0.362844
v 0.182217 -0.330765 0.299684
v -0.649675 -0.758896 0.277807
v -1.023358 -0.262152 -0.265621
v -0.862022 0.392822 -0.603267
v -0.701111 0.417159 -0.512181
v -0.566874 0.416536 -0.559424
v -0.440624 0.523926 -0.529725
v 0.282406 -0.300444 0.362844
v 0.169277 -0.318804 0.293405
v -0.570173 0.427406 -0.560084
v -0.440624 0.523926 -0.529725
v 0.282406 -0.300444 0.362844
v 0.158447 -0.307224 0.288176
v -0.252245 -0.575199 0.283179
v -0.877679 0.280802 -0.390772
v -0.573393 0.439337 -0.559814
v -0.440624 0.523926 -0.529725
v 0.282406 -0.300444 0.362844
v 0.150206 -0.295624 0.283695
v -0.685546 -0.518315 0.222697
v -0.576813 0.452286 -0.558394
v -0.440624 0.523926 -0.529725
v 0.282406 -0.300444 0.362844
v 0.144627 -0.283274 0.279776
v -0.580723 0.466387 -0.555904
v -0.440624 0.523926 -0.529725
v 0.282406 -0.300444 0.362844
v 0.141756 -0.269594 0.276504
v 0.094060 -0.191405 0.274056
v 0.024955 -0.493052 0.405115
v -0.523943 -0.354588 0.232919
v -0.856776 -0.232649 -0.053084
v -0.931411 -0.040097 -0.235952
v -0.585253 0.482176 -0.552785
v -0.440624 0.523926 -0.529725
v 0.282406 -0.300444 0.362844
v 0.141996 -0.254114 0.274395
v -0.850703 0.339733 -0.300623
v -0.590044 0.500746 -0.549455
v -0.440624 0.523926 -0.529725
v 0.282406 -0.300444 0.362844
v 0.145657 -0.239794 0.274666
v 0.055351 -0.189692 0.522679
v -0.126367 -0.262969 0.548073
v -0.203863 -0.270723 0.374228
v -0.860397 0.148163 -0.156462
v -0.592234 0.518936 -0.545925
v -0.440624 0.523926 -0.529725
v 0.282406 -0.300444 0.362844
v 0.152536 -0.227184 0.278145
v -0.821141 0.629795 -0.585618
v -0.587944 0.534487 -0.538774
v -0.440624 0.523926 -0.529725
v 0.282406 -0.300444 0.362844
v 0.161806 -0.217033 0.285645
v -0.352702 -0.061324 0.468584
v -0.526872 0.050037 0.155116
v -0.572683 0.542616 -0.522244
v -0.440624 0.523926 -0.529725
v 0.282406 -0.300444 0.362844
v 0.172016 -0.209364 0.297495
v -0.128679 0.208193 0.516011
v -0.992349 0.540600 -0.510226
v -0.547924 0.542227 -0.497305
v -0.440624 0.523926 -0.529725
v 0.282406 -0.300444 0.362844
v 0.182367 -0.203995 0.313656
v 0.235543 -0.199413 0.497578
v -0.364161 0.135759 0.297205
v -0.560565 0.635121 -0.498555
v -0.529173 0.544367 -0.482115
v -0.440624 0.523926 -0.529725
v 0.282406 -0.300444 0.362844
v 0.193975 -0.201803 0.334215
v -0.208058 0.236151 0.238154
v -0.526934 0.557886 -0.488285
v -0.440624 0.523926 -0.529725
v 0.282406 -0.300444 0.362844
v 0.208517 -0.203774 0.358465
v -0.414302 0.287269 0.194212
v -0.664618 0.602726 -0.150312
v -0.788884 0.808566 -0.581447
v -0.529493 0.574846 -0.502815
v -0.440624 0.523926 -0.529725
v 0.282406 -0.300444 0.362844
v 0.225796 -0.208584 0.383585
v 0.213188 0.154121 0.557385
v -0.524874 0.587526 -0.514475
v -0.440624 0.523926 -0.529725
v 0.282406 -0.300444 0.362844
v 0.243706 -0.213135 0.405334
v 0.381502 -0.132828 0.514727
v -0.086577 0.498191 0.436717
v -0.439626 0.735851 -0.156981
v -0.523078 0.789106 -0.498591
v -0.508003 0.593475 -0.520685
v -0.440624 0.523926 -0.529725
v 0.282406 -0.300444 0.362844
v 0.260157 -0.215433 0.420715
v -0.022414 0.454740 0.259767
v 0.203981 0.465788 0.211934
v -0.482744 0.595097 -0.527244
v -0.440624 0.523926 -0.529725
v 0.282406 -0.300444 0.362844
v 0.274357 -0.215664 0.429424
v -0.360923 0.791991 -0.481141
v -0.459503 0.596605 -0.535845
v -0.440624 0.523926 -0.529725
v 0.282406 -0.300444 0.362844
v 0.286936 -0.214954 0.432985
v -0.267943 0.903603 -0.264818
v -0.441923 0.599075 -0.541534
v -0.440624 0.523926 -0.529725
v 0.282406 -0.300444 0.362844
v 0.299437 -0.213924 0.433035
v 0.289283 0.304543 0.321947
v 0.119674 0.782501 -0.123050
v -0.428034 0.601456 -0.544124
v -0.440624 0.523926 -0.529725
v 0.282406 -0.300444 0.362844
v 0.311907 -0.212814 0.430824
v 0.311606 0.836190 -0.102464
v 0.001893 1.059415 -0.352873
v -0.282955 0.962391 -0.493930
v -0.415854 0.602636 -0.546155
v -0.440624 0.523926 -0.529725
v 0.282406 -0.300444 0.362844
v 0.323097 -0.212544 0.427256
v 0.504326 0.013436 0.527634
v 0.478821 0.191214 0.483367
v 0.285200 0.322631 0.210968
v -0.405834 0.602326 -0.549515
v -0.440624 0.523926 -0.529725
v 0.282406 -0.300444 0.362844
v 0.332556 -0.213974 0.422716
v 0.232642 0.942005 -0.344230
v -0.265771 0.737793 -0.745638
v -0.398174 0.601256 -0.556015
v -0.440624 0.523926 -0.529725
v 0.282406 -0.300444 0.362844
v 0.340326 -0.217444 0.417685
v 0.393279 0.361108 0.063679
v -0.272123 0.875656 -0.689066
v -0.393263 0.600876 -0.567585
v -0.440624 0.523926 -0.529725
v 0.282406 -0.300444 0.362844
v 0.347147 -0.222544 0.412716
v 0.496318 0.405414 0.220283
v 0.019695 0.999512 -0.561007
v -0.391573 0.602436 -0.585074
v -0.440624 0.523926 -0.529725
v 0.282406 -0.300444 0.362844
v 0.353527 -0.228434 0.408146
v 0.343960 -0.122726 0.381423
v 0.646429 0.170107 0.393127
v 0.176957 0.787681 -0.457420
v -0.393404 0.606726 -0.608365
v -0.440624 0.523926 -0.529725
v 0.282406 -0.300444 0.362844
v 0.359337 -0.234253 0.403946
v 0.648247 0.696188 -0.149684
v 0.468313 0.773366 -0.489558
v -0.398523 0.613257 -0.635935
v -0.440624 0.523926 -0.529725
v 0.282406 -0.300444 0.362844
v 0.364227 -0.239643 0.399984
v 0.134909 0.635924 -0.436633
v -0.405443 0.619236 -0.663085
v -0.440624 0.523926 -0.529725
v 0.282406 -0.300444 0.362844
v 0.368057 -0.244783 0.396145
v 0.513982 -0.060734 0.342163
v 0.662272 0.238416 0.258444
v 0.028474 0.495473 -0.532142
v -0.412254 0.621117 -0.683905
v -0.440624 0.523926 -0.529725
v 0.282406 -0.300444 0.362844
v 0.370975 -0.250074 0.392345
v 0.705030 -0.065731 0.296335
v -0.417763 0.617407 -0.694924
v -0.440624 0.523926 -0.529725
v 0.282406 -0.300444 0.362844
v 0.373266 -0.255844 0.388515
v 0.645951 0.289706 0.093149
v 0.422004 0.569917 -0.556034
v 0.275307 0.525958 -0.562570
v -0.421364 0.608557 -0.695575
v -0.440624 0.523926 -0.529725
v 0.282406 -0.300444 0.362844
v 0.375216 -0.262323 0.384584
v 0.724725 0.319027 -0.085295
v 0.551355 0.496454 -0.364277
v -0.163070 0.292820 -0.470893
v -0.349743 0.503673 -0.684824
v -0.422623 0.594757 -0.685525
v -0.440624 0.523926 -0.529725
v 0.282406 -0.300444 0.362844
v 0.377127 -0.269764 0.380566
v -0.421204 0.575247 -0.663154
v -0.440624 0.523926 -0.529725
v 0.282406 -0.300444 0.362844
v 0.379267 -0.278645 0.376385
v 0.787498 -0.210206 0.169575
v 0.663106 0.014654 0.041588
v -0.418114 0.551157 -0.630935
v -0.440624 0.523926 -0.529725
v 0.282406 -0.300444 0.362844
v 0.381466 -0.287994 0.372816
v 0.391220 -0.201330 0.279323
v 0.910379 -0.295108 0.078043
v 0.771452 0.069708 -0.171647
v 0.274861 0.263104 -0.668254
v 0.064268 0.327051 -0.610559
v -0.416954 0.530926 -0.604295
v -0.440624 0.523926 -0.529725
v 0.282406 -0.300444 0.362844
v 0.383736 -0.298414 0.369995
v 0.572730 -0.040370 -0.352885
v -0.418913 0.515486 -0.587455
v -0.440624 0.523926 -0.529725
v 0.282406 -0.300444 0.362844
v 0.385897 -0.310114 0.368166
v 0.760478 -0.362674 0.008057
v -0.423183 0.503607 -0.579175
v -0.440624 0.523926 -0.529725
v 0.282406 -0.300444 0.362844
v 0.387486 -0.322994 0.367535
v 0.557004 -0.499678 0.272568
v 0.290051 -0.063756 -0.366824
v -0.407141 0.302366 -0.710404
v -0.428164 0.493847 -0.576095
v -0.440624 0.523926 -0.529725
v 0.282406 -0.300444 0.362844
v 0.387707 -0.336664 0.368086
v 0.443822 -0.368509 0.309902
v 0.608829 -0.563399 0.049275
v 0.521401 -0.333992 -0.161285
v -0.007377 0.108358 -0.172728
v -0.432434 0.485817 -0.575465
v -0.440624 0.523926 -0.529725
v 0.282406 -0.300444 0.362844
v 0.385256 -0.350134 0.369295
v -0.435555 0.479857 -0.575805
v -0.440624 0.523926 -0.529725
v 0.282406 -0.300444 0.362844
v 0.378777 -0.362104 0.370275
v -0.438354 0.475607 -0.575294
v -0.440624 0.523926 -0.529725
v 0.282406 -0.300444 0.362844
v 0.368336 -0.372133 0.370455
v 0.531165 -0.674595 0.264090
v 0.437476 -0.769507 0.126050
v 0.468558 -0.620417 -0.081855
v 0.261947 -0.517544 -0.318629
v -0.442234 0.470945 -0.571555
v -0.440624 0.523926 -0.529725
v 0.282406 -0.300444 0.362844
v 0.356146 -0.381153 0.370174
v -0.058662 -0.237868 -0.406371
v -0.212382 -0.045537 -0.270097
v -0.448183 0.462526 -0.564705
v -0.440624 0.523926 -0.529725
v 0.282406 -0.300444 0.362844
v 0.344597 -0.390043 0.370075
v 0.371791 -0.744876 0.372131
v 0.043984 -0.340094 -0.265917
v -0.456314 0.447937 -0.558195
v -0.440624 0.523926 -0.529725
v 0.282406 -0.300444 0.362844
v 0.334146 -0.398684 0.370716
v 0.370257 -0.660226 0.206480
v -0.466173 0.429907 -0.554794
v -0.440624 0.523926 -0.529725
v 0.282406 -0.300444 0.362844
v 0.323566 -0.406454 0.372005
v -0.477114 0.415386 -0.553935
v -0.440624 0.523926 -0.529725
vt 0.000000 0.000000
vt 0.000000 0.000000
vt 0.000000 0.047130
vt 0.040540 0.047210
vt 0.030244 0.115319
vt 0.040650 0.240840
vt 0.131318 0.226941
vt 0.032060 0.354547
vt 0.032532 0.607132
vt 0.039773 0.498420
vt 0.031244 0.689079
vt 0.021101 0.779126
vt 0.112860 0.785474
vt 0.074513 0.837146
vt 0.000000 0.952870
vt 0.064837 0.885613
vt 0.040540 0.952790
vt 0.000000 1.000000
vt 0.000000 1.000000
vt 0.000000 0.000000
vt 0.078570 0.047350
vt 0.205334 0.102758
vt 0.157388 0.274464
vt 0.158567 0.376942
vt 0.079793 0.724483
vt 0.078570 0.952650
vt 0.000000 1.000000
vt 0.000000 0.000000
vt 0.115580 0.047500
vt 0.255766 0.542780
vt 0.164674 0.643426
vt 0.218469 0.870465
vt 0.115580 0.952500
vt 0.000000 1.000000
vt 0.000000 0.000000
vt 0.151920 0.047640
vt 0.239741 0.430317
vt 0.284204 0.714029
vt 0.151920 0.952360
vt 0.000000 1.000000
vt 0.000000 0.000000
vt 0.187800 0.047740
vt 0.341302 0.778181
vt 0.187800 0.952260
vt 0.000000 1.000000
vt 0.000000 0.000000
vt 0.223390 0.047810
vt 0.250235 0.595901
vt 0.223390 0.952190
vt 0.000000 1.000000
vt 0.000000 0.000000
vt 0.258870 0.047820
vt 0.369336 0.180599
vt 0.391923 0.354489
vt 0.348536 0.659220
vt 0.258870 0.952180
vt 0.000000 1.000000
vt 0.000000 0.000000
vt 0.294380 0.047780
vt 0.325582 0.602873
vt 0.401260 0.723504
vt 0.473108 0.855889
vt 0.486793 0.910157
vt 0.294380 0.952220
vt 0.000000 1.000000
vt 0.000000 0.000000
vt 0.330100 0.047700
vt 0.330100 0.952300
vt 0.000000 1.000000
vt 0.000000 0.000000
vt 0.366180 0.047570
vt 0.476292 0.497017
vt 0.478636 0.807711
vt 0.366180 0.952430
vt 0.000000 1.000000
vt 0.000000 0.000000
vt 0.402830 0.047420
vt 0.447549 0.603883
vt 0.470338 0.741506
vt 0.402830 0.952580
vt 0.000000 1.000000
vt 0.000000 0.000000
vt 0.440290 0.047270
vt 0.440290 0.952730
vt 0.000000 1.000000
vt 0.000000 0.000000
vt 0.479110 0.047160
vt 0.593438 0.138662
vt 0.490564 0.336238
vt 0.567313 0.557041
vt 0.557154 0.641841
vt 0.479110 0.952840
vt 0.000000 1.000000
vt 0.000000 0.000000
vt 0.520890 0.047160
vt 0.649043 0.711064
vt 0.520890 0.952840
vt 0.000000 1.000000
vt 0.000000 0.000000
vt 0.559710 0.047270
vt 0.655914 0.233560
vt 0.599546 0.342209
vt 0.596205 0.440670
vt 0.642663 0.660275
vt 0.559710 0.952730
vt 0.000000 1.000000
vt 0.000000 0.000000
vt 0.597170 0.047420
vt 0.702353 0.818656
vt 0.597170 0.952580
vt 0.000000 1.000000
vt 0.000000 0.000000
vt 0.633820 0.047570
vt 0.654463 0.415049
vt 0.633820 0.952430
vt 0.000000 1.000000
vt 0.000000 0.000000
vt 0.669900 0.047700
vt 0.737193 0.317067
vt 0.698314 0.550216
vt 0.707942 0.728927
vt 0.669900 0.952300
vt 0.000000 1.000000
vt 0.000000 0.000000
vt 0.705620 0.047780
vt 0.796558 0.131156
vt 0.732876 0.424481
vt 0.828937 0.900863
vt 0.705620 0.952220
vt 0.000000 1.000000
vt 0.000000 0.000000
vt 0.741130 0.047820
vt 0.797613 0.387728
vt 0.741130 0.952180
vt 0.000000 1.000000
vt 0.000000 0.000000
vt 0.776610 0.047810
vt 0.814970 0.469477
vt 0.799059 0.613091
vt 0.795475 0.766197
vt 0.776610 0.952190
vt 0.000000 1.000000
vt 0.000000 0.000000
vt 0.812200 0.047740
vt 0.931126 0.213128
vt 0.812200 0.952260
vt 0.000000 1.000000
vt 0.000000 0.000000
vt 0.848080 0.047640
vt 0.932760 0.090878
vt 0.878595 0.340247
vt 0.906303 0.600874
vt 0.910142 0.761761
vt 0.848080 0.952360
vt 0.000000 1.000000
vt 0.000000 0.000000
vt 0.884420 0.047500
vt 0.942762 0.412169
vt 0.958448 0.440067
vt 0.884420 0.952500
vt 0.000000 1.000000
vt 0.000000 0.000000
vt 0.921430 0.047350
vt 0.921430 0.952650
vt 0.000000 1.000000
vt 0.000000 0.000000
vt 0.959460 0.047210
vt 0.988712 0.634831
vt 0.959652 0.748126
vt 0.959460 0.952790
vt 0.000000 1.000000
vt 0.000000 0.000000
vt 1.000000 0.047130
vt 0.899097 0.292726
vt 0.972345 0.573344
vt 1.000000 0.952870
vt 0.000000 1.000000
vt 0.000000 0.000000
vt 0.959460 0.047210
vt 0.889253 0.666584
vt 0.913914 0.728107
vt 0.959460 0.952790
vt 0.000000 1.000000
vt 0.000000 0.000000
vt 0.921430 0.047350
vt 0.846500 0.148696
vt 0.857145 0.199354
vt 0.844837 0.374153
vt 0.885719 0.571341
vt 0.921430 0.952650
vt 0.000000 1.000000
vt 0.000000 0.000000
vt 0.884420 0.047500
vt 0.827103 0.631176
vt 0.696221 0.891124
vt 0.884420 0.952500
vt 0.000000 1.000000
vt 0.000000 0.000000
vt 0.848080 0.047640
vt 0.743620 0.506928
vt 0.798141 0.859883
vt 0.848080 0.952360
vt 0.000000 1.000000
vt 0.000000 0.000000
vt 0.812200 0.047740
vt 0.778152 0.740822
vt 0.812200 0.952260
vt 0.000000 1.000000
vt 0.000000 0.000000
vt 0.776610 0.047810
vt 0.615979 0.109938
vt 0.729516 0.234252
vt 0.747985 0.434373
vt 0.731330 0.682336
vt 0.776610 0.952190
vt 0.000000 1.000000
vt 0.000000 0.000000
vt 0.741130 0.047820
vt 0.703655 0.570765
vt 0.647592 0.657214
vt 0.741130 0.952180
vt 0.000000 1.000000
vt 0.000000 0.000000
vt 0.705620 0.047780
vt 0.621923 0.405123
vt 0.652277 0.753546
vt 0.705620 0.952220
vt 0.000000 1.000000
vt 0.000000 0.000000
vt 0.669900 0.047700
vt 0.631552 0.204135
vt 0.537600 0.833770
vt 0.669900 0.952300
vt 0.000000 1.000000
vt 0.000000 0.000000
vt 0.633820 0.047570
vt 0.545175 0.274460
vt 0.633820 0.952430
vt 0.000000 1.000000
vt 0.000000 0.000000
vt 0.597170 0.047420
vt 0.361632 0.162061
vt 0.554617 0.543016
vt 0.534610 0.732074
vt 0.544671 0.778326
vt 0.597170 0.952580
vt 0.000000 1.000000
vt 0.000000 0.000000
vt 0.559710 0.047270
vt 0.515478 0.594081
vt 0.522073 0.681226
vt 0.372210 0.871466
vt 0.466621 0.912068
vt 0.559710 0.952730
vt 0.000000 1.000000
vt 0.000000 0.000000
vt 0.520890 0.047160
vt 0.520890 0.952840
vt 0.000000 1.000000
vt 0.000000 0.000000
vt 0.479110 0.047160
vt 0.423081 0.326973
vt 0.448480 0.526642
vt 0.479110 0.952840
vt 0.000000 1.000000
vt 0.000000 0.000000
vt 0.440290 0.047270
vt 0.392103 0.432261
vt 0.406384 0.613985
vt 0.406578 0.763931
vt 0.354563 0.817974
vt 0.440290 0.952730
vt 0.000000 1.000000
vt 0.000000 0.000000
vt 0.402830 0.047420
vt 0.354889 0.678812
vt 0.402830 0.952580
vt 0.000000 1.000000
vt 0.000000 0.000000
vt 0.366180 0.047570
vt 0.342393 0.512196
vt 0.366180 0.952430
vt 0.000000 1.000000
vt 0.000000 0.000000
vt 0.330100 0.047700
vt 0.254130 0.321960
vt 0.260422 0.732954
vt 0.225653 0.891090
vt 0.330100 0.952300
vt 0.000000 1.000000
vt 0.000000 0.000000
vt 0.294380 0.047780
vt 0.226963 0.133109
vt 0.251452 0.496841
vt 0.248762 0.649198
vt 0.215703 0.794350
vt 0.294380 0.952220
vt 0.000000 1.000000
vt 0.000000 0.000000
vt 0.258870 0.047820
vt 0.258870 0.952180
vt 0.000000 1.000000
vt 0.000000 0.000000
vt 0.223390 0.047810
vt 0.144684 0.307387
vt 0.223390 0.952190
vt 0.000000 1.000000
vt 0.000000 0.000000
vt 0.187800 0.047740
vt 0.112513 0.508212
vt 0.177167 0.569401
vt 0.126359 0.662119
vt 0.187800 0.952260
vt 0.000000 1.000000
vt 0.000000 0.000000
vt 0.151920 0.047640
vt 0.101436 0.743213
vt 0.119888 0.809400
vt 0.151920 0.952360
vt 0.000000 1.000000
vt 0.000000 0.000000
vt 0.115580 0.047500
vt 0.084776 0.696948
vt 0.115580 0.952500
vt 0.000000 1.000000
vt 0.000000 0.000000
vt 0.078570 0.047350
vt 0.071482 0.407789
vt 0.078570 0.952650
vt 0.000000 1.000000
vt 0.000000 0.000000
vt 0.040540 0.047210
vt 0.040540 0.952790
vt 0.000000 1.000000
vn 0.0037 -0.0019 -1.0000
vn 0.0201 0.0013 -0.9998
vn -0.2092 -0.2287 0.9507
vn -0.4545 -0.2795 0.8458
vn -0.0473 -0.0852 0.9952
vn 0.1369 -0.8625 0.4871
vn 0.0384 -0.0392 0.9985
vn 0.1301 -0.7549 0.6428
vn -0.0775 -0.7264 -0.6829
vn 0.5527 -0.8006 -0.2314
vn -0.0159 -0.4688 -0.8832
vn -0.3459 0.0467 -0.9371
vn -0.5891 -0.0821 -0.8039
vn -0.4987 -0.6424 -0.5819
vn 0.0280 0.0590 -0.9979
vn -0.2423 -0.7431 -0.6238
vn -0.0026 0.0980 -0.9952
vn -0.0001 0.0048 1.0000
vn -0.0003 0.0046 1.0000
vn 0.0325 0.0022 -0.9995
vn -0.4865 -0.2658 0.8323
vn -0.3998 0.0298 0.9161
vn -0.1234 -0.0937 0.9879
vn 0.4134 -0.8532 0.3182
vn -0.4393 -0.1756 -0.8810
vn -0.0383 0.1242 -0.9915
vn -0.0015 0.0051 1.0000
vn 0.0369 0.0017 -0.9993
vn -0.5224 -0.1643 0.8367
vn -0.7074 -0.6782 0.1991
vn -0.3771 -0.7702 -0.5145
vn -0.2595 -0.4085 -0.8751
vn -0.0439 0.1056 -0.9934
vn -0.0011 0.0045 1.0000
vn 0.0367 0.0011 -0.9993
vn -0.5637 -0.1937 0.8030
vn -0.2611 -0.7761 0.5741
vn -0.1124 -0.5697 -0.8142
vn 0.0013 0.0233 -0.9997
vn 0.0008 0.0027 1.0000
vn 0.0344 0.0009 -0.9994
vn -0.6294 -0.2447 0.7376
vn -0.0710 -0.4078 -0.9103
vn 0.0699 -0.0680 -0.9952
vn 0.0028 0.0008 1.0000
vn 0.0308 0.0014 -0.9995
vn -0.6705 -0.1961 0.7155
vn -0.6425 -0.7218 -0.2573
vn 0.2423 -0.0191 -0.9700
vn 0.0041 -0.0003 1.0000
vn 0.0267 0.0024 -0.9996
vn -0.6426 -0.1434 0.7527
vn -0.1336 0.3036 0.9434
vn -0.0891 0.2315 0.9688
vn -0.3215 -0.3552 -0.8778
vn -0.1361 -0.2094 -0.9683
vn 0.0047 -0.0005 1.0000
vn 0.0222 0.0034 -0.9997
vn -0.6142 -0.1202 0.7799
vn -0.4546 -0.7147 0.5315
vn -0.7180 -0.5029 -0.4811
vn -0.4417 -0.0936 -0.8922
vn 0.1311 0.2086 -0.9692
vn -0.1540 -0.1430 -0.9777
vn 0.0046 0.0002 1.0000
vn 0.0179 0.0036 -0.9998
vn -0.5293 -0.0299 0.8479
vn -0.1440 -0.0393 -0.9888
vn 0.0042 0.0016 1.0000
vn 0.0144 0.0026 -0.9999
vn -0.5347 0.0096 0.8450
vn -0.3450 -0.0191 0.9384
vn -0.9933 -0.0069 -0.1158
vn -0.1541 0.0560 -0.9865
vn 0.0035 0.0038 1.0000
vn 0.0125 0.0008 -0.9999
vn -0.5626 0.0303 0.8262
vn -0.4407 0.3639 0.8206
vn -0.9974 -0.0260 -0.0674
vn -0.2260 0.1129 -0.9676
vn 0.0031 0.0062 1.0000
vn 0.0120 -0.0010 -0.9999
vn -0.6536 0.0499 0.7552
vn -0.3253 0.1119 -0.9390
vn 0.0033 0.0078 1.0000
vn 0.0124 -0.0024 -0.9999
vn -0.2739 0.0738 0.9589
vn 0.4402 -0.5880 0.6786
vn 0.2864 -0.3257 0.9011
vn -0.3848 0.2453 0.8898
vn -0.7463 0.0716 0.6617
vn -0.3278 0.1151 -0.9377
vn 0.0041 0.0085 1.0000
vn 0.0137 -0.0034 -0.9999
vn -0.1654 0.0889 0.9822
vn -0.8535 0.1956 0.4830
vn -0.1815 0.2139 -0.9599
vn 0.0040 0.0081 1.0000
vn 0.0133 -0.0030 -0.9999
vn -0.2543 -0.0315 0.9666
vn 0.3169 -0.3296 0.8894
vn -0.2643 -0.2194 0.9392
vn -0.6953 -0.3178 0.6446
vn -0.7187 0.4102 0.5614
vn -0.1323 0.4463 -0.8851
vn 0.0032 0.0148 0.9999
vn 0.0138 -0.0014 -0.9999
vn -0.3431 -0.1732 0.9232
vn -0.1562 0.0028 -0.9877
vn 0.2466 0.5181 -0.8190
vn 0.0041 0.0379 0.9993
vn 0.0155 0.0021 -0.9999
vn -0.4543 -0.3490 0.8197
vn -0.6429 0.0919 0.7604
vn 0.3377 0.8370 -0.4305
vn 0.0100 0.0741 0.9972
vn 0.0189 0.0077 -0.9998
vn -0.5181 -0.5360 0.6665
vn -0.4673 0.3535 0.8104
vn -0.6961 0.2658 0.6670
vn -0.9595 0.1712 -0.2236
vn 0.3821 0.6791 -0.6267
vn 0.0058 0.0624 0.9980
vn 0.0245 0.0149 -0.9996
vn -0.5266 -0.6972 0.4863
vn 0.2081 -0.7393 0.6404
vn -0.5271 0.5558 0.6429
vn 0.0826 0.0640 -0.9945
vn -0.0895 0.3156 -0.9447
vn -0.0245 -0.0140 0.9996
vn 0.0327 0.0232 -0.9992
vn -0.4991 -0.8075 0.3145
vn -0.4611 0.5967 0.6568
vn -0.5978 -0.3960 -0.6970
vn -0.0371 -0.0422 0.9984
vn 0.0442 0.0327 -0.9985
vn -0.5370 -0.8045 0.2539
vn -0.3810 0.3874 0.8395
vn -0.5154 0.5905 0.6211
vn -0.4196 0.7566 -0.5014
vn -0.8086 -0.3807 -0.4487
vn -0.0275 -0.0268 0.9993
vn 0.0560 0.0414 -0.9976
vn -0.5274 -0.7966 0.2953
vn 0.0963 0.3593 0.9282
vn -0.6241 -0.1415 -0.7684
vn -0.0157 -0.0086 0.9998
vn 0.0563 0.0431 -0.9975
vn -0.3034 -0.8314 0.4655
vn 0.4759 -0.2508 0.8430
vn -0.1240 0.9636 0.2368
vn -0.2932 0.7240 0.6244
vn -0.0190 0.6948 -0.7190
vn -0.2745 0.0442 -0.9606
vn -0.0203 -0.0092 0.9998
vn 0.0404 0.0363 -0.9985
vn -0.3547 -0.4478 0.8208
vn 0.0129 0.9769 -0.2133
vn 0.3830 0.6324 0.6734
vn -0.2658 -0.0720 -0.9613
vn -0.0350 -0.0173 0.9992
vn 0.0205 0.0276 -0.9994
vn -0.0970 -0.6162 0.7816
vn -0.2755 0.0024 -0.9613
vn -0.0241 -0.0130 0.9996
vn 0.0066 0.0225 -0.9997
vn 0.1015 -0.7544 0.6485
vn -0.1078 0.9190 0.3793
vn -0.5237 0.7019 -0.4828
vn -0.1693 0.0934 -0.9811
vn -0.0093 -0.0093 0.9999
vn -0.0017 0.0218 -0.9998
vn 0.2038 -0.8059 0.5559
vn 0.3705 0.7981 0.4752
vn -0.0795 0.6885 0.7209
vn -0.1377 0.0847 -0.9869
vn -0.0070 -0.0075 0.9999
vn -0.0065 0.0219 -0.9997
vn 0.2333 -0.8225 0.5188
vn 0.1573 0.9782 0.1356
vn -0.4349 0.9004 -0.0134
vn -0.2242 0.0311 -0.9741
vn -0.0120 -0.0036 0.9999
vn -0.0077 0.0202 -0.9998
vn 0.1885 -0.8448 0.5007
vn 0.5557 -0.7572 0.3433
vn 0.3105 0.5982 0.7387
vn 0.7190 0.6158 0.3223
vn -0.0747 0.4554 0.8871
vn -0.6046 0.0208 -0.7963
vn -0.0214 0.0030 0.9998
vn -0.0071 0.0183 -0.9998
vn 0.0564 -0.8470 0.5286
vn 0.5719 0.7398 -0.3545
vn 0.0997 0.1624 -0.9817
vn -0.7960 -0.1275 -0.5918
vn -0.0324 0.0130 0.9994
vn -0.0053 0.0167 -0.9998
vn -0.0940 -0.7855 0.6117
vn 0.5670 0.7660 0.3031
vn -0.3942 0.5732 -0.7184
vn -0.7700 0.6006 -0.2153
vn -0.0389 0.0231 0.9990
vn -0.0032 0.0159 -0.9999
vn -0.2137 -0.7073 0.6739
vn 0.1546 0.6342 -0.7575
vn -0.6111 0.7861 0.0925
vn 0.0378 -0.0295 -0.9988
vn -0.0016 0.0153 -0.9999
vn 0.2690 -0.4359 0.8588
vn 0.9214 -0.3555 0.1570
vn 0.5677 0.8109 0.1420
vn 0.4824 0.7105 0.5123
vn 0.3428 0.1397 -0.9290
vn -0.5518 0.7988 0.2396
vn 0.0311 -0.0300 -0.9991
vn -0.0010 0.0144 -0.9999
vn 0.2305 -0.2437 0.9421
vn 0.7274 0.6839 -0.0561
vn 0.7823 0.3984 -0.4788
vn -0.5186 0.8027 0.2944
vn 0.0232 -0.0243 -0.9994
vn -0.0011 0.0133 -0.9999
vn 0.2698 -0.2201 0.9374
vn 0.8400 0.3492 0.4152
vn 0.2154 0.1489 -0.9651
vn -0.5420 0.7977 0.2645
vn 0.0177 -0.0168 -0.9997
vn -0.0011 0.0123 -0.9999
vn 0.3353 -0.1927 0.9222
vn 0.1767 -0.4725 0.8634
vn 0.1767 0.1465 -0.9733
vn -0.5254 0.8391 0.1412
vn 0.0148 -0.0105 -0.9998
vn -0.0010 0.0116 -0.9999
vn 0.3964 -0.1271 0.9093
vn 0.7346 -0.4438 0.5132
vn -0.6469 0.7051 -0.2905
vn 0.0135 -0.0054 -0.9999
vn -0.0006 0.0115 -0.9999
vn 0.4607 -0.0304 0.8870
vn 0.6017 -0.0723 0.7954
vn 0.7977 0.4046 0.4472
vn 0.3978 0.1015 -0.9119
vn -0.0484 0.5959 -0.8016
vn -0.6149 -0.1586 -0.7725
vn -0.0142 0.0002 0.9999
vn -0.0003 0.0119 -0.9999
vn 0.5630 0.0589 0.8244
vn 0.9724 -0.1987 0.1219
vn 0.8671 0.0059 -0.4980
vn 0.3324 -0.6382 -0.6944
vn -0.0248 -0.5833 -0.8119
vn -0.8728 -0.4401 -0.2109
vn -0.0188 -0.0080 0.9998
vn 0.0003 0.0124 -0.9999
vn 0.5945 0.1217 0.7948
vn -0.8957 -0.3947 -0.2050
vn -0.0326 -0.0217 0.9992
vn 0.0009 0.0133 -0.9999
vn 0.5620 0.2085 0.8004
vn 0.7468 0.1372 0.6508
vn 0.9918 0.1207 -0.0412
vn -0.8607 -0.4401 -0.2559
vn -0.0511 -0.0277 0.9983
vn 0.0015 0.0116 -0.9999
vn 0.4998 0.2792 0.8199
vn 0.9530 -0.2939 0.0741
vn 0.9578 -0.1538 -0.2426
vn -0.0075 -0.2666 -0.9638
vn -0.3800 -0.3024 -0.8742
vn -0.8793 -0.3546 -0.3179
vn -0.0693 -0.0169 0.9975
vn 0.0021 0.0091 -1.0000
vn 0.5886 0.3216 0.7417
vn 0.4749 -0.3861 -0.7908
vn -0.9228 -0.0920 -0.3742
vn -0.0711 0.0063 0.9975
vn 0.0023 0.0058 -1.0000
vn 0.7168 0.2495 0.6511
vn 0.6201 -0.6416 -0.4514
vn -0.8939 0.2298 -0.3849
vn -0.0563 0.0199 0.9982
vn 0.0021 0.0020 -1.0000
vn 0.8123 0.1081 0.5731
vn 0.5766 -0.1292 0.8067
vn 0.0069 -0.4317 -0.9020
vn -0.1577 -0.5236 -0.8372
vn -0.8201 0.3317 -0.4663
vn -0.0375 0.0182 0.9991
vn 0.0013 -0.0015 -1.0000
vn 0.9006 -0.0724 0.4286
vn 0.4257 0.0681 0.9023
vn 0.7173 -0.6425 -0.2696
vn 0.4703 -0.4358 -0.7674
vn -0.1136 -0.2887 -0.9507
vn -0.7214 0.3666 -0.5875
vn -0.0218 0.0122 0.9997
vn 0.0006 -0.0034 -1.0000
vn 0.6165 -0.0048 0.7874
vn -0.6626 0.3657 -0.6536
vn -0.0165 0.0096 0.9998
vn 0.0007 -0.0033 -1.0000
vn 0.4624 -0.2486 0.8511
vn 0.5965 -0.6222 0.5070
vn -0.7038 0.2856 -0.6505
vn -0.0283 0.0121 0.9995
vn 0.0015 -0.0023 -1.0000
vn 0.3673 -0.2298 0.9013
vn 0.4840 -0.8708 0.0861
vn 0.5411 -0.5497 -0.6364
vn 0.1684 -0.4760 -0.8632
vn -0.8548 0.1998 -0.4790
vn -0.0486 0.0177 0.9987
vn 0.0022 -0.0017 -1.0000
vn 0.3921 -0.2332 0.8899
vn -0.0540 -0.0752 -0.9957
vn 0.1643 0.1305 -0.9777
vn -0.9012 0.2015 -0.3836
vn -0.0506 0.0185 0.9985
vn 0.0019 -0.0020 -1.0000
vn 0.3787 -0.1531 0.9128
vn -0.1954 -0.6638 -0.7220
vn -0.8155 0.1805 -0.5499
vn -0.0301 0.0130 0.9995
vn 0.0001 -0.0029 -1.0000
vn 0.3012 -0.1612 0.9398
vn 0.1431 -0.8697 0.4723
vn -0.4290 0.1186 -0.8955
vn -0.0123 0.0082 0.9999
vn -0.0016 -0.0036 -1.0000
vn 0.1908 -0.2084 0.9593
vn -0.0155 0.0236 -0.9996
vn -0.0033 0.0058 1.0000
usemtl space_asteroids_02_l_0004
s 1
f 1/1/1 2/2/2 3/3/3
f 3/3/3 2/2/2 4/4/4
f 3/3/3 4/4/4 5/5/5
f 322/6/6 6/7/7 7/8/8
f 9/9/9 8/10/10 10/11/11
f 12/12/12 13/13/13 14/14/14
f 16/15/15 15/16/16 17/17/17
f 16/15/15 17/17/17 18/18/18
f 18/18/18 17/17/17 19/19/19
f 2/2/2 20/20/20 4/4/4
f 4/4/4 20/20/20 21/21/21
f 4/4/4 21/21/21 5/5/5
f 5/5/5 21/21/21 22/22/22
f 5/5/5 22/22/22 322/6/6
f 7/8/8 6/7/7 23/23/23
f 7/8/8 23/23/23 24/24/24
f 7/8/8 24/24/24 8/10/10
f 10/11/11 11/25/25 12/12/12
f 12/12/12 11/25/25 13/13/13
f 17/17/17 15/16/16 25/26/26
f 17/17/17 25/26/26 19/19/19
f 19/19/19 25/26/26 26/27/27
f 20/20/20 27/28/28 21/21/21
f 21/21/21 27/28/28 28/29/29
f 21/21/21 28/29/29 22/22/22
f 322/6/6 22/22/22 6/7/7
f 8/10/10 29/30/30 10/11/11
f 10/11/11 29/30/30 30/31/31
f 10/11/11 30/31/31 11/25/25
f 15/16/16 14/14/14 31/32/32
f 25/26/26 15/16/16 32/33/33
f 25/26/26 32/33/33 26/27/27
f 26/27/27 32/33/33 33/34/34
f 27/28/28 34/35/35 28/29/29
f 28/29/29 34/35/35 35/36/36
f 28/29/29 35/36/36 22/22/22
f 8/10/10 24/24/24 36/37/37
f 8/10/10 36/37/37 29/30/30
f 11/25/25 30/31/31 37/38/38
f 11/25/25 37/38/38 13/13/13
f 32/33/33 15/16/16 38/39/39
f 32/33/33 38/39/39 33/34/34
f 33/34/34 38/39/39 39/40/40
f 34/35/35 40/41/41 35/36/36
f 35/36/36 40/41/41 41/42/42
f 35/36/36 41/42/42 22/22/22
f 13/13/13 37/38/38 43/43/43
f 13/13/13 43/43/43 14/14/14
f 38/39/39 15/16/16 44/44/44
f 38/39/39 44/44/44 39/40/40
f 39/40/40 44/44/44 45/45/45
f 40/41/41 46/46/46 41/42/42
f 41/42/42 46/46/46 47/47/47
f 41/42/42 47/47/47 22/22/22
f 30/31/31 29/30/30 42/48/48
f 14/14/14 43/43/43 31/32/32
f 44/44/44 15/16/16 48/49/49
f 44/44/44 48/49/49 45/45/45
f 45/45/45 48/49/49 49/50/50
f 46/46/46 50/51/51 47/47/47
f 47/47/47 50/51/51 51/52/52
f 47/47/47 51/52/52 22/22/22
f 6/7/7 22/22/22 52/53/53
f 24/24/24 23/23/23 53/54/54
f 30/31/31 42/48/48 54/55/55
f 30/31/31 54/55/55 37/38/38
f 48/49/49 15/16/16 55/56/56
f 48/49/49 55/56/56 49/50/50
f 49/50/50 55/56/56 56/57/57
f 50/51/51 57/58/58 51/52/52
f 51/52/52 57/58/58 58/59/59
f 51/52/52 58/59/59 22/22/22
f 6/7/7 52/53/53 23/23/23
f 24/24/24 53/54/54 36/37/37
f 42/48/48 59/60/60 54/55/55
f 37/38/38 60/61/61 43/43/43
f 31/32/32 61/62/62 15/16/16
f 15/16/16 61/62/62 62/63/63
f 15/16/16 62/63/63 55/56/56
f 55/56/56 62/63/63 63/64/64
f 55/56/56 63/64/64 56/57/57
f 56/57/57 63/64/64 64/65/65
f 57/58/58 65/66/66 58/59/59
f 58/59/59 65/66/66 66/67/67
f 58/59/59 66/67/67 22/22/22
f 22/22/22 66/67/67 52/53/53
f 23/23/23 52/53/53 53/54/54
f 42/48/48 29/30/30 59/60/60
f 63/64/64 62/63/63 67/68/68
f 63/64/64 67/68/68 64/65/65
f 64/65/65 67/68/68 68/69/69
f 65/66/66 69/70/70 66/67/67
f 66/67/67 69/70/70 70/71/71
f 66/67/67 70/71/71 52/53/53
f 29/30/30 36/37/37 71/72/72
f 29/30/30 71/72/72 59/60/60
f 31/32/32 43/43/43 72/73/73
f 31/32/32 72/73/73 61/62/62
f 67/68/68 62/63/63 73/74/74
f 67/68/68 73/74/74 68/69/69
f 68/69/69 73/74/74 74/75/75
f 69/70/70 75/76/76 70/71/71
f 70/71/71 75/76/76 76/77/77
f 70/71/71 76/77/77 52/53/53
f 59/60/60 71/72/72 77/78/78
f 59/60/60 77/78/78 54/55/55
f 37/38/38 54/55/55 60/61/61
f 43/43/43 90/79/79 72/73/73
f 73/74/74 62/63/63 78/80/80
f 73/74/74 78/80/80 74/75/75
f 74/75/75 78/80/80 79/81/81
f 75/76/76 80/82/82 76/77/77
f 76/77/77 80/82/82 81/83/83
f 76/77/77 81/83/83 52/53/53
f 36/37/37 53/54/54 71/72/72
f 54/55/55 77/78/78 60/61/61
f 43/43/43 60/61/61 90/79/79
f 78/80/80 62/63/63 82/84/84
f 78/80/80 82/84/84 79/81/81
f 79/81/81 82/84/84 83/85/85
f 80/82/82 84/86/86 81/83/83
f 81/83/83 84/86/86 85/87/87
f 81/83/83 85/87/87 52/53/53
f 52/53/53 85/87/87 86/88/88
f 52/53/53 87/89/89 53/54/54
f 71/72/72 88/90/90 77/78/78
f 60/61/61 77/78/78 89/91/91
f 60/61/61 89/91/91 90/79/79
f 82/84/84 62/63/63 91/92/92
f 82/84/84 91/92/92 83/85/85
f 83/85/85 91/92/92 92/93/93
f 84/86/86 93/94/94 85/87/87
f 85/87/87 93/94/94 94/95/95
f 85/87/87 94/95/95 86/88/88
f 52/53/53 86/88/88 87/89/89
f 53/54/54 87/89/89 71/72/72
f 77/78/78 88/90/90 89/91/91
f 72/73/73 95/96/96 61/62/62
f 91/92/92 62/63/63 96/97/97
f 91/92/92 96/97/97 92/93/93
f 92/93/93 96/97/97 97/98/98
f 93/94/94 98/99/99 94/95/95
f 94/95/95 98/99/99 99/100/100
f 94/95/95 99/100/100 86/88/88
f 87/89/89 86/88/88 100/101/101
f 87/89/89 100/101/101 101/102/102
f 87/89/89 101/102/102 71/72/72
f 71/72/72 101/102/102 102/103/103
f 90/79/79 89/91/91 103/104/104
f 96/97/97 62/63/63 104/105/105
f 96/97/97 104/105/105 97/98/98
f 97/98/98 104/105/105 105/106/106
f 98/99/99 106/107/107 99/100/100
f 99/100/100 106/107/107 107/108/108
f 99/100/100 107/108/108 86/88/88
f 71/72/72 102/103/103 88/90/90
f 90/79/79 103/104/104 72/73/73
f 61/62/62 108/109/109 62/63/63
f 104/105/105 62/63/63 109/110/110
f 104/105/105 109/110/110 105/106/106
f 105/106/106 109/110/110 110/111/111
f 106/107/107 111/112/112 107/108/108
f 107/108/108 111/112/112 112/113/113
f 107/108/108 112/113/113 86/88/88
f 101/102/102 113/114/114 102/103/103
f 102/103/103 113/114/114 88/90/90
f 72/73/73 103/104/104 95/96/96
f 62/63/63 108/109/109 109/110/110
f 109/110/110 108/109/109 115/115/115
f 109/110/110 115/115/115 110/111/111
f 110/111/111 115/115/115 116/116/116
f 111/112/112 117/117/117 112/113/113
f 112/113/113 117/117/117 118/118/118
f 112/113/113 118/118/118 86/88/88
f 100/101/101 119/119/119 101/102/102
f 101/102/102 119/119/119 113/114/114
f 88/90/90 113/114/114 114/120/120
f 88/90/90 114/120/120 89/91/91
f 89/91/91 114/120/120 103/104/104
f 61/62/62 95/96/96 120/121/121
f 61/62/62 120/121/121 108/109/109
f 115/115/115 108/109/109 121/122/122
f 115/115/115 121/122/122 116/116/116
f 116/116/116 121/122/122 122/123/123
f 117/117/117 123/124/124 118/118/118
f 118/118/118 123/124/124 124/125/125
f 118/118/118 124/125/125 86/88/88
f 86/88/88 125/126/126 100/101/101
f 119/119/119 126/127/127 113/114/114
f 108/109/109 127/128/128 121/122/122
f 121/122/122 127/128/128 128/129/129
f 121/122/122 128/129/129 122/123/123
f 122/123/123 128/129/129 129/130/130
f 123/124/124 130/131/131 124/125/125
f 124/125/125 130/131/131 131/132/132
f 124/125/125 131/132/132 86/88/88
f 86/88/88 131/132/132 125/126/126
f 119/119/119 132/133/133 126/127/127
f 113/114/114 126/127/127 114/120/120
f 128/129/129 127/128/128 133/134/134
f 128/129/129 133/134/134 129/130/130
f 129/130/130 133/134/134 134/135/135
f 130/131/131 135/136/136 131/132/132
f 131/132/132 135/136/136 136/137/137
f 131/132/132 136/137/137 125/126/126
f 126/127/127 137/138/138 114/120/120
f 114/120/120 137/138/138 103/104/104
f 103/104/104 137/138/138 138/139/139
f 103/104/104 138/139/139 95/96/96
f 95/96/96 138/139/139 120/121/121
f 120/121/121 139/140/140 108/109/109
f 108/109/109 139/140/140 127/128/128
f 133/134/134 127/128/128 140/141/141
f 133/134/134 140/141/141 134/135/135
f 134/135/135 140/141/141 141/142/142
f 135/136/136 142/143/143 136/137/137
f 136/137/137 142/143/143 143/144/144
f 136/137/137 143/144/144 125/126/126
f 100/101/101 125/126/126 144/145/145
f 100/101/101 144/145/145 119/119/119
f 126/127/127 132/133/133 137/138/138
f 120/121/121 138/139/139 139/140/140
f 140/141/141 127/128/128 145/146/146
f 140/141/141 145/146/146 141/142/142
f 141/142/142 145/146/146 146/147/147
f 142/143/143 147/148/148 143/144/144
f 143/144/144 147/148/148 148/149/149
f 143/144/144 148/149/149 125/126/126
f 125/126/126 148/149/149 149/150/150
f 119/119/119 144/145/145 150/151/151
f 119/119/119 150/151/151 132/133/133
f 138/139/139 151/152/152 152/153/153
f 138/139/139 152/153/153 139/140/140
f 145/146/146 127/128/128 153/154/154
f 145/146/146 153/154/154 146/147/147
f 146/147/147 153/154/154 154/155/155
f 147/148/148 155/156/156 148/149/149
f 148/149/149 155/156/156 156/157/157
f 148/149/149 156/157/157 149/150/150
f 132/133/133 150/151/151 157/158/158
f 132/133/133 157/158/158 137/138/138
f 137/138/138 157/158/158 158/159/159
f 137/138/138 158/159/159 138/139/139
f 138/139/139 158/159/159 151/152/152
f 139/140/140 152/153/153 127/128/128
f 153/154/154 127/128/128 159/160/160
f 153/154/154 159/160/160 154/155/155
f 154/155/155 159/160/160 160/161/161
f 155/156/156 161/162/162 156/157/157
f 156/157/157 161/162/162 162/163/163
f 156/157/157 162/163/163 149/150/150
f 125/126/126 149/150/150 144/145/145
f 159/160/160 127/128/128 164/164/164
f 159/160/160 164/164/164 160/161/161
f 160/161/161 164/164/164 165/165/165
f 161/162/162 166/166/166 162/163/163
f 162/163/163 166/166/166 167/167/167
f 162/163/163 167/167/167 149/150/150
f 150/151/151 144/145/145 157/158/158
f 151/152/152 168/168/168 152/153/153
f 152/153/153 168/168/168 163/169/169
f 164/164/164 127/128/128 169/170/170
f 164/164/164 169/170/170 165/165/165
f 165/165/165 169/170/170 170/171/171
f 166/166/166 171/172/172 167/167/167
f 167/167/167 171/172/172 172/173/173
f 167/167/167 172/173/173 149/150/150
f 157/158/158 144/145/145 173/174/174
f 157/158/158 173/174/174 158/159/159
f 158/159/159 174/175/175 151/152/152
f 151/152/152 174/175/175 168/168/168
f 152/153/153 163/169/169 127/128/128
f 169/170/170 127/128/128 175/176/176
f 169/170/170 175/176/176 170/171/171
f 170/171/171 175/176/176 176/177/177
f 171/172/172 177/178/178 172/173/173
f 172/173/173 177/178/178 178/179/179
f 172/173/173 178/179/179 149/150/150
f 168/168/168 174/175/175 180/180/180
f 168/168/168 180/180/180 163/169/169
f 163/169/169 180/180/180 181/181/181
f 127/128/128 163/169/169 175/176/176
f 175/176/176 163/169/169 182/182/182
f 175/176/176 182/182/182 176/177/177
f 176/177/177 182/182/182 183/183/183
f 177/178/178 184/184/184 178/179/179
f 178/179/179 184/184/184 185/185/185
f 178/179/179 185/185/185 149/150/150
f 149/150/150 186/186/186 144/145/145
f 144/145/145 187/187/187 173/174/174
f 158/159/159 173/174/174 188/188/188
f 174/175/175 158/159/159 179/189/189
f 174/175/175 179/189/189 180/180/180
f 182/182/182 163/169/169 189/190/190
f 182/182/182 189/190/190 183/183/183
f 183/183/183 189/190/190 190/191/191
f 184/184/184 191/192/192 185/185/185
f 185/185/185 191/192/192 192/193/193
f 185/185/185 192/193/193 149/150/150
f 144/145/145 186/186/186 187/187/187
f 180/180/180 179/189/189 193/194/194
f 163/169/169 194/195/195 189/190/190
f 189/190/190 194/195/195 195/196/196
f 189/190/190 195/196/196 190/191/191
f 190/191/191 195/196/196 196/197/197
f 191/192/192 197/198/198 192/193/193
f 192/193/193 197/198/198 198/199/199
f 192/193/193 198/199/199 149/150/150
f 158/159/159 188/188/188 199/200/200
f 158/159/159 199/200/200 179/189/189
f 163/169/169 181/181/181 200/201/201
f 163/169/169 200/201/201 194/195/195
f 195/196/196 194/195/195 201/202/202
f 195/196/196 201/202/202 196/197/197
f 196/197/197 201/202/202 202/203/203
f 197/198/198 203/204/204 198/199/199
f 198/199/199 203/204/204 204/205/205
f 198/199/199 204/205/205 149/150/150
f 180/180/180 193/194/194 206/206/206
f 180/180/180 206/206/206 181/181/181
f 181/181/181 206/206/206 200/201/201
f 201/202/202 194/195/195 207/207/207
f 201/202/202 207/207/207 202/203/203
f 202/203/203 207/207/207 208/208/208
f 203/204/204 209/209/209 204/205/205
f 204/205/205 209/209/209 210/210/210
f 204/205/205 210/210/210 149/150/150
f 149/150/150 210/210/210 211/211/211
f 149/150/150 211/211/211 186/186/186
f 187/187/187 186/186/186 212/212/212
f 187/187/187 212/212/212 173/174/174
f 188/188/188 205/213/213 199/200/200
f 193/194/194 213/214/214 206/206/206
f 207/207/207 194/195/195 214/215/215
f 207/207/207 214/215/215 208/208/208
f 208/208/208 214/215/215 215/216/216
f 209/209/209 216/217/217 210/210/210
f 210/210/210 216/217/217 217/218/218
f 210/210/210 217/218/218 211/211/211
f 173/174/174 212/212/212 188/188/188
f 179/189/189 199/200/200 218/219/219
f 179/189/189 218/219/219 193/194/194
f 193/194/194 218/219/219 219/220/220
f 193/194/194 219/220/220 213/214/214
f 214/215/215 194/195/195 220/221/221
f 214/215/215 220/221/221 215/216/216
f 215/216/216 220/221/221 221/222/222
f 216/217/217 222/223/223 217/218/218
f 217/218/218 222/223/223 223/224/224
f 217/218/218 223/224/224 211/211/211
f 186/186/186 211/211/211 212/212/212
f 188/188/188 212/212/212 230/225/225
f 206/206/206 213/214/214 224/226/226
f 206/206/206 224/226/226 200/201/201
f 200/201/201 224/226/226 194/195/195
f 220/221/221 194/195/195 225/227/227
f 220/221/221 225/227/227 221/222/222
f 221/222/222 225/227/227 226/228/228
f 222/223/223 227/229/229 223/224/224
f 223/224/224 227/229/229 228/230/230
f 223/224/224 228/230/230 211/211/211
f 211/211/211 229/231/231 212/212/212
f 188/188/188 230/225/225 205/213/213
f 205/213/213 230/225/225 199/200/200
f 224/226/226 231/232/232 194/195/195
f 225/227/227 194/195/195 232/233/233
f 225/227/227 232/233/233 226/228/228
f 226/228/228 232/233/233 233/234/234
f 227/229/229 234/235/235 228/230/230
f 228/230/230 234/235/235 235/236/236
f 228/230/230 235/236/236 211/211/211
f 229/231/231 236/237/237 212/212/212
f 212/212/212 236/237/237 230/225/225
f 213/214/214 219/220/220 224/226/226
f 232/233/233 194/195/195 237/238/238
f 232/233/233 237/238/238 233/234/234
f 233/234/234 237/238/238 238/239/239
f 234/235/235 239/240/240 235/236/236
f 235/236/236 239/240/240 240/241/241
f 235/236/236 240/241/241 211/211/211
f 236/237/237 229/231/231 266/242/242
f 199/200/200 230/225/225 241/243/243
f 199/200/200 241/243/243 218/219/219
f 224/226/226 219/220/220 242/244/244
f 224/226/226 243/245/245 231/232/232
f 237/238/238 194/195/195 244/246/246
f 237/238/238 244/246/246 238/239/239
f 238/239/239 244/246/246 245/247/247
f 239/240/240 246/248/248 240/241/241
f 240/241/241 246/248/248 247/249/249
f 240/241/241 247/249/249 211/211/211
f 218/219/219 241/243/243 248/250/250
f 218/219/219 248/250/250 219/220/220
f 219/220/220 249/251/251 242/244/244
f 224/226/226 242/244/244 243/245/245
f 231/232/232 250/252/252 194/195/195
f 194/195/195 250/252/252 251/253/253
f 194/195/195 251/253/253 244/246/246
f 244/246/246 251/253/253 252/254/254
f 244/246/246 252/254/254 245/247/247
f 245/247/247 252/254/254 253/255/255
f 246/248/248 254/256/256 247/249/249
f 247/249/249 254/256/256 255/257/257
f 247/249/249 255/257/257 211/211/211
f 229/231/231 211/211/211 266/242/242
f 219/220/220 248/250/250 249/251/251
f 252/254/254 251/253/253 256/258/258
f 252/254/254 256/258/258 253/255/255
f 253/255/255 256/258/258 257/259/259
f 254/256/256 258/260/260 255/257/257
f 255/257/257 258/260/260 259/261/261
f 255/257/257 259/261/261 211/211/211
f 236/237/237 260/262/262 230/225/225
f 230/225/225 260/262/262 241/243/243
f 241/243/243 260/262/262 261/263/263
f 241/243/243 261/263/263 248/250/250
f 256/258/258 251/253/253 262/264/264
f 256/258/258 262/264/264 257/259/259
f 257/259/259 262/264/264 263/265/265
f 258/260/260 264/266/266 259/261/261
f 259/261/261 264/266/266 265/267/267
f 259/261/261 265/267/267 211/211/211
f 211/211/211 265/267/267 266/242/242
f 260/262/262 267/268/268 261/263/263
f 248/250/250 261/263/263 268/269/269
f 248/250/250 268/269/269 249/251/251
f 243/245/245 242/244/244 269/270/270
f 243/245/245 269/270/270 231/232/232
f 231/232/232 269/270/270 270/271/271
f 262/264/264 251/253/253 271/272/272
f 262/264/264 271/272/272 263/265/265
f 263/265/265 271/272/272 272/273/273
f 264/266/266 273/274/274 265/267/267
f 265/267/267 273/274/274 274/275/275
f 265/267/267 274/275/275 266/242/242
f 249/251/251 268/269/269 275/276/276
f 249/251/251 275/276/276 242/244/244
f 242/244/244 275/276/276 269/270/270
f 231/232/232 270/271/271 250/252/252
f 271/272/272 251/253/253 276/277/277
f 271/272/272 276/277/277 272/273/273
f 272/273/273 276/277/277 277/278/278
f 273/274/274 278/279/279 274/275/275
f 274/275/275 278/279/279 279/280/280
f 274/275/275 279/280/280 266/242/242
f 236/237/237 266/242/242 260/262/262
f 261/263/263 267/268/268 280/281/281
f 261/263/263 280/281/281 268/269/269
f 268/269/269 280/281/281 275/276/276
f 276/277/277 251/253/253 281/282/282
f 276/277/277 281/282/282 277/278/278
f 277/278/278 281/282/282 282/283/283
f 278/279/279 283/284/284 279/280/280
f 279/280/280 283/284/284 284/285/285
f 279/280/280 284/285/285 266/242/242
f 260/262/262 285/286/286 267/268/268
f 267/268/268 285/286/286 280/281/281
f 269/270/270 275/276/276 286/287/287
f 269/270/270 286/287/287 270/271/271
f 251/253/253 250/252/252 287/288/288
f 251/253/253 287/288/288 281/282/282
f 281/282/282 287/288/288 288/289/289
f 281/282/282 288/289/289 282/283/283
f 282/283/283 288/289/289 289/290/290
f 283/284/284 290/291/291 284/285/285
f 284/285/285 290/291/291 291/292/292
f 284/285/285 291/292/292 266/242/242
f 266/242/242 292/293/293 260/262/262
f 260/262/262 292/293/293 285/286/286
f 280/281/281 285/286/286 293/294/294
f 280/281/281 293/294/294 294/295/295
f 280/281/281 294/295/295 275/276/276
f 275/276/276 294/295/295 286/287/287
f 270/271/271 286/287/287 295/296/296
f 288/289/289 287/288/288 296/297/297
f 288/289/289 296/297/297 289/290/290
f 289/290/290 296/297/297 297/298/298
f 290/291/291 298/299/299 291/292/292
f 291/292/292 298/299/299 299/300/300
f 291/292/292 299/300/300 266/242/242
f 266/242/242 299/300/300 292/293/293
f 296/297/297 287/288/288 300/301/301
f 296/297/297 300/301/301 297/298/298
f 297/298/298 300/301/301 301/302/302
f 298/299/299 302/303/303 299/300/300
f 299/300/300 302/303/303 303/304/304
f 299/300/300 303/304/304 292/293/293
f 285/286/286 308/305/305 293/294/294
f 270/271/271 295/296/296 250/252/252
f 300/301/301 287/288/288 304/306/306
f 300/301/301 304/306/306 301/302/302
f 301/302/302 304/306/306 305/307/307
f 302/303/303 306/308/308 303/304/304
f 303/304/304 306/308/308 307/309/309
f 303/304/304 307/309/309 292/293/293
f 293/294/294 308/305/305 309/310/310
f 293/294/294 309/310/310 310/311/311
f 293/294/294 310/311/311 294/295/295
f 294/295/295 311/312/312 286/287/287
f 250/252/252 295/296/296 287/288/288
f 304/306/306 287/288/288 312/313/313
f 304/306/306 312/313/313 305/307/307
f 305/307/307 312/313/313 313/314/314
f 306/308/308 314/315/315 307/309/309
f 307/309/309 314/315/315 315/316/316
f 307/309/309 315/316/316 292/293/293
f 292/293/293 308/305/305 285/286/286
f 294/295/295 310/311/311 311/312/312
f 286/287/287 311/312/312 316/317/317
f 286/287/287 316/317/317 295/296/296
f 295/296/296 316/317/317 317/318/318
f 295/296/296 317/318/318 287/288/288
f 312/313/313 287/288/288 318/319/319
f 312/313/313 318/319/319 313/314/314
f 313/314/314 318/319/319 319/320/320
f 314/315/315 320/321/321 315/316/316
f 315/316/316 320/321/321 321/322/322
f 315/316/316 321/322/322 292/293/293
f 292/293/293 321/322/322 5/5/5
f 292/293/293 5/5/5 322/6/6
f 292/293/293 322/6/6 308/305/305
f 311/312/312 323/323/323 316/317/317
f 287/288/288 15/16/16 318/319/319
f 318/319/319 15/16/16 324/324/324
f 318/319/319 324/324/324 319/320/320
f 319/320/320 324/324/324 325/325/325
f 320/321/321 326/326/326 321/322/322
f 321/322/322 326/326/326 327/327/327
f 321/322/322 327/327/327 5/5/5
f 308/305/305 328/328/328 309/310/310
f 310/311/311 309/310/310 9/9/9
f 310/311/311 9/9/9 311/312/312
f 317/318/318 14/14/14 287/288/288
f 287/288/288 14/14/14 15/16/16
f 324/324/324 15/16/16 329/329/329
f 324/324/324 329/329/329 325/325/325
f 325/325/325 329/329/329 330/330/330
f 326/326/326 331/331/331 327/327/327
f 327/327/327 331/331/331 332/332/332
f 327/327/327 332/332/332 5/5/5
f 308/305/305 322/6/6 328/328/328
f 309/310/310 8/10/10 9/9/9
f 311/312/312 9/9/9 323/323/323
f 323/323/323 9/9/9 10/11/11
f 323/323/323 10/11/11 316/317/317
f 317/318/318 316/317/317 12/12/12
f 317/318/318 12/12/12 14/14/14
f 329/329/329 15/16/16 333/333/333
f 329/329/329 333/333/333 330/330/330
f 330/330/330 333/333/333 334/334/334
f 331/331/331 1/1/1 332/332/332
f 332/332/332 1/1/1 3/3/3
f 332/332/332 3/3/3 5/5/5
f 322/6/6 7/8/8 328/328/328
f 328/328/328 7/8/8 309/310/310
f 309/310/310 7/8/8 8/10/10
f 316/317/317 10/11/11 12/12/12
f 333/333/333 15/16/16 16/15/15
f 333/333/333 16/15/15 334/334/334
f 334/334/334 16/15/15 18/18/18
