# Blender v2.93.1 OBJ File: ''
# www.blender.org
mtllib asteroid6.mtl
o asteroid_6
v 0.460165 -0.466088 0.234906
v 0.467094 -0.716369 0.086626
v 0.460165 -0.466088 0.234906
v 0.447624 -0.712998 0.098145
v 0.359497 -0.783359 0.080975
v 0.287303 -0.944972 -0.207766
v 0.323964 -0.725469 -0.371787
v 0.131200 -1.058822 -0.199062
v 0.301130 -1.061867 -0.763412
v 0.158154 -1.052872 -0.867935
v 0.277470 -0.906793 -1.083215
v -0.101585 -0.212410 -0.783269
v -0.452288 -0.759180 -0.394419
v -0.351482 -0.373569 -0.476217
v -0.566829 -0.207428 -0.548042
v -0.648641 0.306060 -0.673985
v -0.458755 0.551282 -0.365494
v -0.476896 0.542461 -0.345344
v -0.465484 0.559615 -0.475618
v -0.410135 0.586492 -0.245604
v -0.410135 0.586492 -0.245604
v 0.460165 -0.466088 0.234906
v 0.431385 -0.707158 0.108355
v -0.074527 -1.054029 -0.567974
v -0.490885 0.536781 -0.324034
v -0.410135 0.586492 -0.245604
v 0.460165 -0.466088 0.234906
v 0.415945 -0.699048 0.119156
v -0.713965 -0.100668 -0.385644
v -0.646490 0.486407 -0.477001
v -0.503296 0.534331 -0.302524
v -0.410135 0.586492 -0.245604
v 0.460165 -0.466088 0.234906
v 0.400145 -0.689379 0.132186
v -0.262516 -1.032968 -0.120316
v -0.218915 -0.818894 -0.289115
v -0.604366 0.152352 -0.396073
v -0.516245 0.534872 -0.281354
v -0.410135 0.586492 -0.245604
v 0.460165 -0.466088 0.234906
v 0.384035 -0.679298 0.148166
v 0.041770 -0.705982 0.066460
v -0.602589 -0.578769 -0.101727
v -0.804603 0.574497 -0.203661
v -0.529776 0.537461 -0.261304
v -0.410135 0.586492 -0.245604
v 0.460165 -0.466088 0.234906
v 0.368805 -0.671478 0.166866
v -0.359549 -0.902939 0.163724
v -0.382631 -0.681108 -0.129442
v -0.541115 0.539971 -0.241904
v -0.410135 0.586492 -0.245604
v 0.460165 -0.466088 0.234906
v 0.355974 -0.667098 0.187226
v -0.542206 -0.868860 0.319039
v -0.814714 0.235399 -0.107643
v -0.548506 0.541242 -0.222204
v -0.410135 0.586492 -0.245604
v 0.460165 -0.466088 0.234906
v 0.345785 -0.662508 0.208026
v 0.189196 -0.637263 0.218698
v -0.563351 -0.437094 0.050278
v -0.892165 0.034416 0.002193
v -0.553856 0.543491 -0.203204
v -0.410135 0.586492 -0.245604
v 0.460165 -0.466088 0.234906
v 0.337744 -0.653738 0.228316
v 0.301304 -0.795674 0.365281
v -0.028849 -0.725585 0.607743
v -0.732820 -0.227991 0.250637
v -0.559906 0.550081 -0.187184
v -0.410135 0.586492 -0.245604
v 0.460165 -0.466088 0.234906
v 0.331104 -0.637049 0.247386
v -1.050060 0.348574 -0.014341
v -0.566015 0.559792 -0.174074
v -0.410135 0.586492 -0.245604
v 0.460165 -0.466088 0.234906
v 0.325525 -0.612679 0.267226
v -0.288760 -0.526065 0.496300
v -0.185857 -0.785340 0.662023
v -0.514987 -0.507127 0.479387
v -0.958295 0.598639 -0.022138
v -0.570595 0.569752 -0.161934
v -0.410135 0.586492 -0.245604
v 0.460165 -0.466088 0.234906
v 0.323254 -0.590638 0.292106
v -0.975928 0.143708 0.240178
v -0.696215 0.592974 -0.033921
v -0.573536 0.579412 -0.149374
v -0.410135 0.586492 -0.245604
v 0.460165 -0.466088 0.234906
v 0.326694 -0.578408 0.323896
v 0.350482 -0.865155 0.636316
v -0.211438 -0.551106 0.738520
v -0.575436 0.589662 -0.136304
v -0.410135 0.586492 -0.245604
v 0.460165 -0.466088 0.234906
v 0.337425 -0.575778 0.365326
v -0.268714 -0.229118 0.497675
v -0.537384 -0.237195 0.487032
v -1.049730 0.403035 0.180280
v -0.577625 0.602761 -0.122934
v -0.410135 0.586492 -0.245604
v 0.460165 -0.466088 0.234906
v 0.348154 -0.577189 0.397056
v 0.194040 -0.667377 0.840617
v -0.070064 -0.403159 0.798672
v -0.580585 0.615481 -0.114734
v -0.410135 0.586492 -0.245604
v 0.460165 -0.466088 0.234906
v 0.356794 -0.576028 0.419546
v -0.265506 -0.103267 0.904953
v -0.689268 0.102004 0.529980
v -0.714792 0.278487 0.316394
v -0.582586 0.628021 -0.109734
v -0.410135 0.586492 -0.245604
v 0.460165 -0.466088 0.234906
v 0.363285 -0.569968 0.433986
v 0.415516 -0.701478 0.741462
v -0.609309 0.640402 0.016087
v -0.579845 0.637571 -0.106434
v -0.410135 0.586492 -0.245604
v 0.460165 -0.466088 0.234906
v 0.367365 -0.557498 0.440515
v 0.047137 -0.228233 0.977445
v -0.555984 0.410472 0.872917
v -0.783002 0.501605 0.549966
v -0.569725 0.642112 -0.103494
v -0.410135 0.586492 -0.245604
v 0.460165 -0.466088 0.234906
v 0.368225 -0.538148 0.437986
v -0.784070 0.722614 0.362850
v -0.553156 0.643282 -0.100664
v -0.410135 0.586492 -0.245604
v 0.460165 -0.466088 0.234906
v 0.366825 -0.515449 0.426916
v -0.234679 0.269946 0.896963
v -0.627330 0.801913 0.701490
v -0.533386 0.645041 -0.098884
v -0.410135 0.586492 -0.245604
v 0.460165 -0.466088 0.234906
v 0.367155 -0.496438 0.411146
v 0.165600 -0.040326 0.812392
v -0.513435 0.649932 -0.099394
v -0.410135 0.586492 -0.245604
v 0.460165 -0.466088 0.234906
v 0.373505 -0.486618 0.395086
v 0.030539 0.154588 0.707900
v -0.391240 0.787407 0.795028
v -0.630671 0.891214 -0.033640
v -0.494516 0.657701 -0.102884
v -0.410135 0.586492 -0.245604
v 0.460165 -0.466088 0.234906
v 0.387915 -0.487238 0.381256
v 0.365755 -0.515915 0.606942
v 0.184260 0.240224 0.704937
v -0.719918 0.989878 0.203900
v -0.476376 0.667222 -0.109494
v -0.410135 0.586492 -0.245604
v 0.460165 -0.466088 0.234906
v 0.407125 -0.491818 0.368206
v 0.424796 -0.210172 0.658051
v -0.458176 0.677892 -0.119284
v -0.410135 0.586492 -0.245604
v 0.460165 -0.466088 0.234906
v 0.425314 -0.490258 0.351566
v -0.335715 1.145237 0.151500
v -0.307978 0.812445 -0.175186
v -0.439056 0.689511 -0.132244
v -0.410135 0.586492 -0.245604
v 0.460165 -0.466088 0.234906
v 0.440664 -0.478258 0.327805
v 0.361015 -0.248626 0.433044
v -0.417936 0.702002 -0.148564
v -0.410135 0.586492 -0.245604
v 0.460165 -0.466088 0.234906
v 0.456474 -0.455348 0.297456
v 0.056920 0.979687 0.303313
v -0.182619 1.111387 -0.054884
v -0.393026 0.716402 -0.170324
v -0.410135 0.586492 -0.245604
v 0.460165 -0.466088 0.234906
v 0.479414 -0.438838 0.279626
v 0.614707 -0.381251 0.304087
v 0.499428 0.250972 0.490597
v -0.373226 0.728831 -0.191814
v -0.410135 0.586492 -0.245604
v 0.460165 -0.466088 0.234906
v 0.504995 -0.433099 0.273326
v 0.663678 -0.162326 0.486369
v 0.326537 0.576888 0.228396
v 0.163404 0.682819 0.200444
v -0.362465 0.735762 -0.206094
v -0.410135 0.586492 -0.245604
v 0.460165 -0.466088 0.234906
v 0.531755 -0.431659 0.270575
v 0.076563 0.663925 0.051653
v -0.163494 1.088754 -0.184765
v -0.354996 0.739552 -0.216524
v -0.410135 0.586492 -0.245604
v 0.460165 -0.466088 0.234906
v 0.555834 -0.430589 0.269106
v 0.392836 0.303402 0.287561
v -0.348166 0.741081 -0.226254
v -0.410135 0.586492 -0.245604
v 0.460165 -0.466088 0.234906
v 0.573294 -0.425219 0.266286
v 0.930861 -0.438936 0.366562
v 0.921517 -0.220203 0.395490
v 0.078851 0.729597 -0.061470
v -0.341475 0.739892 -0.236084
v -0.410135 0.586492 -0.245604
v 0.460165 -0.466088 0.234906
v 0.580824 -0.413408 0.259256
v 0.669383 0.205468 0.028182
v -0.335825 0.734312 -0.245484
v -0.410135 0.586492 -0.245604
v 0.460165 -0.466088 0.234906
v 0.580454 -0.397948 0.247456
v 0.787082 0.207247 0.165990
v 0.447907 0.506807 0.000642
v 0.275512 0.466166 -0.069574
v -0.332315 0.723211 -0.254504
v -0.410135 0.586492 -0.245604
v 0.460165 -0.466088 0.234906
v 0.578325 -0.384769 0.232615
v 0.038657 0.837760 -0.222352
v -0.330866 0.708002 -0.263514
v -0.410135 0.586492 -0.245604
v 0.460165 -0.466088 0.234906
v 0.579464 -0.378609 0.216226
v 0.655975 -0.018905 -0.107469
v 0.602196 0.704587 -0.228470
v 0.754570 0.349664 -0.158060
v -0.330156 0.690982 -0.273004
v -0.410135 0.586492 -0.245604
v 0.460165 -0.466088 0.234906
v 0.584425 -0.381228 0.198506
v 0.995625 -0.255749 0.084628
v 0.649018 0.651340 -0.323069
v -0.086029 0.454841 -0.222049
v -0.329395 0.673602 -0.283484
v -0.410135 0.586492 -0.245604
v 0.460165 -0.466088 0.234906
v 0.590155 -0.390739 0.179326
v -0.328545 0.657052 -0.294514
v -0.410135 0.586492 -0.245604
v 0.460165 -0.466088 0.234906
v 0.595884 -0.405298 0.158976
v 0.824206 -0.618983 0.002198
v 0.590893 -0.249729 -0.008216
v 0.827346 0.127169 -0.332257
v 0.306279 0.775989 -0.404976
v -0.327745 0.642072 -0.305344
v -0.410135 0.586492 -0.245604
v 0.460165 -0.466088 0.234906
v 0.604145 -0.426249 0.137676
v -0.057087 0.411237 -0.367366
v -0.327305 0.628812 -0.316014
v -0.410135 0.586492 -0.245604
v 0.460165 -0.466088 0.234906
v 0.617565 -0.458768 0.114996
v 0.542992 -0.139553 -0.326438
v 0.629135 0.204271 -0.526646
v 0.437984 0.459039 -0.646284
v -0.327435 0.616582 -0.327334
v -0.410135 0.586492 -0.245604
v 0.460165 -0.466088 0.234906
v 0.625214 -0.487048 0.099096
v 0.194114 0.417727 -0.712269
v 0.089851 0.400720 -0.376587
v -0.329266 0.607592 -0.337394
v -0.410135 0.586492 -0.245604
v 0.460165 -0.466088 0.234906
v 0.623514 -0.508298 0.086945
v 0.688754 -0.679631 -0.339812
v 0.405538 0.041247 -0.429463
v -0.323127 0.593862 -0.443491
v -0.335215 0.599802 -0.349324
v -0.410135 0.586492 -0.245604
v 0.460165 -0.466088 0.234906
v 0.610924 -0.521738 0.078016
v 0.579505 -0.149999 -0.542618
v -0.223386 0.430300 -0.473339
v -0.346285 0.595112 -0.361664
v -0.410135 0.586492 -0.245604
v 0.460165 -0.466088 0.234906
v 0.587345 -0.530648 0.071426
v 0.687618 -0.899288 -0.018487
v -0.359295 0.592852 -0.371554
v -0.410135 0.586492 -0.245604
v 0.460165 -0.466088 0.234906
v 0.562765 -0.544108 0.066296
v 0.621240 -0.413727 -0.692454
v 0.193279 0.049339 -0.572269
v -0.029014 0.252945 -0.842638
v -0.161916 0.387425 -0.747706
v -0.371195 0.590422 -0.378814
v -0.410135 0.586492 -0.245604
v 0.460165 -0.466088 0.234906
v 0.546284 -0.564908 0.062796
v 0.489646 -0.732976 -0.561325
v 0.532774 -0.323686 -0.947354
v -0.381845 0.587092 -0.384694
v -0.410135 0.586492 -0.245604
v 0.460165 -0.466088 0.234906
v 0.534914 -0.589178 0.061216
v 0.421139 -0.963071 -0.177754
v 0.563839 -0.661774 -0.996802
v -0.392136 0.583181 -0.389504
v -0.410135 0.586492 -0.245604
v 0.460165 -0.466088 0.234906
v 0.524994 -0.614748 0.061516
v 0.302361 -0.281241 -0.986796
v 0.068696 -0.028935 -0.794974
v -0.402475 0.578702 -0.392484
v -0.410135 0.586492 -0.245604
v 0.460165 -0.466088 0.234906
v 0.516024 -0.641829 0.063236
v -0.412605 0.573422 -0.392594
v -0.410135 0.586492 -0.245604
v 0.460165 -0.466088 0.234906
v 0.507534 -0.669949 0.065976
v -0.421936 0.567621 -0.389534
v -0.410135 0.586492 -0.245604
v 0.460165 -0.466088 0.234906
v 0.498045 -0.695488 0.070085
v -0.430815 0.562322 -0.384184
v -0.410135 0.586492 -0.245604
v 0.460165 -0.466088 0.234906
v 0.485514 -0.712178 0.076496
v -0.441866 0.557901 -0.377424
v -0.410135 0.586492 -0.245604
vt 0.000000 0.000000
vt 0.000000 0.000000
vt 0.000000 0.053440
vt 0.046640 0.053690
vt 0.162776 0.099445
vt 0.051386 0.185448
vt 0.084500 0.211412
vt 0.140541 0.233371
vt 0.069131 0.302025
vt 0.023982 0.381390
vt 0.079671 0.450714
vt 0.161563 0.496797
vt 0.041539 0.652041
vt 0.109966 0.597028
vt 0.122133 0.640128
vt 0.061550 0.781941
vt 0.000000 0.946560
vt 0.081137 0.902105
vt 0.046640 0.946310
vt 0.000000 1.000000
vt 0.000000 1.000000
vt 0.000000 0.000000
vt 0.086050 0.054100
vt 0.096078 0.374367
vt 0.086050 0.945900
vt 0.000000 1.000000
vt 0.000000 0.000000
vt 0.122820 0.054550
vt 0.199035 0.663713
vt 0.099093 0.863616
vt 0.122820 0.945450
vt 0.000000 1.000000
vt 0.000000 0.000000
vt 0.157910 0.054940
vt 0.193135 0.306379
vt 0.157910 0.377416
vt 0.185998 0.742630
vt 0.157910 0.945060
vt 0.000000 1.000000
vt 0.000000 0.000000
vt 0.191890 0.055230
vt 0.237452 0.193873
vt 0.258701 0.508539
vt 0.320086 0.864457
vt 0.191890 0.944770
vt 0.000000 1.000000
vt 0.000000 0.000000
vt 0.225210 0.055410
vt 0.279289 0.314822
vt 0.226704 0.417692
vt 0.225210 0.944590
vt 0.000000 1.000000
vt 0.000000 0.000000
vt 0.258250 0.055440
vt 0.322569 0.366814
vt 0.326206 0.743149
vt 0.258250 0.944560
vt 0.000000 1.000000
vt 0.000000 0.000000
vt 0.291390 0.055340
vt 0.305583 0.159872
vt 0.315178 0.534209
vt 0.341713 0.679954
vt 0.291390 0.944660
vt 0.000000 1.000000
vt 0.000000 0.000000
vt 0.324990 0.055100
vt 0.389492 0.121216
vt 0.469031 0.236560
vt 0.420070 0.584531
vt 0.324990 0.944900
vt 0.000000 1.000000
vt 0.000000 0.000000
vt 0.359470 0.054750
vt 0.447612 0.762844
vt 0.359470 0.945250
vt 0.000000 1.000000
vt 0.000000 0.000000
vt 0.395310 0.054330
vt 0.455292 0.284225
vt 0.454050 0.365744
vt 0.442347 0.450309
vt 0.477504 0.822244
vt 0.395310 0.945670
vt 0.000000 1.000000
vt 0.000000 0.000000
vt 0.433230 0.053890
vt 0.478246 0.679054
vt 0.557299 0.878404
vt 0.433230 0.946110
vt 0.000000 1.000000
vt 0.000000 0.000000
vt 0.474810 0.053520
vt 0.593561 0.123237
vt 0.529173 0.323308
vt 0.474810 0.946480
vt 0.000000 1.000000
vt 0.000000 0.000000
vt 0.525190 0.053520
vt 0.562677 0.431021
vt 0.537467 0.500000
vt 0.587085 0.742006
vt 0.525190 0.946480
vt 0.000000 1.000000
vt 0.000000 0.000000
vt 0.566770 0.053890
vt 0.650020 0.207549
vt 0.612475 0.303852
vt 0.566770 0.946110
vt 0.000000 1.000000
vt 0.000000 0.000000
vt 0.604690 0.054330
vt 0.674688 0.405687
vt 0.611509 0.605312
vt 0.636986 0.687887
vt 0.604690 0.945670
vt 0.000000 1.000000
vt 0.000000 0.000000
vt 0.640530 0.054750
vt 0.762976 0.132445
vt 0.705099 0.876720
vt 0.640530 0.945250
vt 0.000000 1.000000
vt 0.000000 0.000000
vt 0.675010 0.055100
vt 0.748749 0.303540
vt 0.741772 0.579615
vt 0.708326 0.685979
vt 0.675010 0.944900
vt 0.000000 1.000000
vt 0.000000 0.000000
vt 0.708610 0.055340
vt 0.754530 0.766345
vt 0.708610 0.944660
vt 0.000000 1.000000
vt 0.000000 0.000000
vt 0.741750 0.055440
vt 0.786206 0.437923
vt 0.818248 0.664168
vt 0.741750 0.944560
vt 0.000000 1.000000
vt 0.000000 0.000000
vt 0.774790 0.055410
vt 0.870405 0.311116
vt 0.774790 0.944590
vt 0.000000 1.000000
vt 0.000000 0.000000
vt 0.808110 0.055230
vt 0.849486 0.369550
vt 0.857638 0.591288
vt 0.903845 0.875456
vt 0.808110 0.944770
vt 0.000000 1.000000
vt 0.000000 0.000000
vt 0.842090 0.054940
vt 0.915841 0.156880
vt 0.954678 0.362448
vt 0.893114 0.799181
vt 0.842090 0.945060
vt 0.000000 1.000000
vt 0.000000 0.000000
vt 0.877180 0.054550
vt 0.929528 0.269168
vt 0.877180 0.945450
vt 0.000000 1.000000
vt 0.000000 0.000000
vt 0.913950 0.054100
vt 0.946921 0.759235
vt 0.822099 0.897741
vt 0.913950 0.945900
vt 0.000000 1.000000
vt 0.000000 0.000000
vt 0.953360 0.053690
vt 0.967312 0.223563
vt 0.953360 0.946310
vt 0.000000 1.000000
vt 0.000000 0.000000
vt 1.000000 0.053440
vt 0.926722 0.612907
vt 0.892411 0.802146
vt 1.000000 0.946560
vt 0.000000 1.000000
vt 0.000000 0.000000
vt 0.953360 0.053690
vt 0.862571 0.139924
vt 0.857805 0.380092
vt 0.953360 0.946310
vt 0.000000 1.000000
vt 0.000000 0.000000
vt 0.913950 0.054100
vt 0.858193 0.290915
vt 0.819485 0.545893
vt 0.858522 0.623161
vt 0.913950 0.945900
vt 0.000000 1.000000
vt 0.000000 0.000000
vt 0.877180 0.054550
vt 0.800352 0.724108
vt 0.824764 0.837234
vt 0.877180 0.945450
vt 0.000000 1.000000
vt 0.000000 0.000000
vt 0.842090 0.054940
vt 0.823608 0.427823
vt 0.842090 0.945060
vt 0.000000 1.000000
vt 0.000000 0.000000
vt 0.808110 0.055230
vt 0.712600 0.184609
vt 0.758078 0.259105
vt 0.705104 0.762135
vt 0.808110 0.944770
vt 0.000000 1.000000
vt 0.000000 0.000000
vt 0.774790 0.055410
vt 0.682792 0.390136
vt 0.774790 0.944590
vt 0.000000 1.000000
vt 0.000000 0.000000
vt 0.741750 0.055440
vt 0.719727 0.368542
vt 0.723060 0.573258
vt 0.662747 0.688262
vt 0.741750 0.944560
vt 0.000000 1.000000
vt 0.000000 0.000000
vt 0.708610 0.055340
vt 0.644835 0.796933
vt 0.708610 0.944660
vt 0.000000 1.000000
vt 0.000000 0.000000
vt 0.675010 0.055100
vt 0.592129 0.310940
vt 0.640952 0.423849
vt 0.627191 0.610503
vt 0.675010 0.944900
vt 0.000000 1.000000
vt 0.000000 0.000000
vt 0.640530 0.054750
vt 0.621121 0.251253
vt 0.584370 0.564691
vt 0.520084 0.857550
vt 0.640530 0.945250
vt 0.000000 1.000000
vt 0.000000 0.000000
vt 0.604690 0.054330
vt 0.604690 0.945670
vt 0.000000 1.000000
vt 0.000000 0.000000
vt 0.566770 0.053890
vt 0.455131 0.147183
vt 0.477100 0.238600
vt 0.526252 0.359566
vt 0.520105 0.699414
vt 0.566770 0.946110
vt 0.000000 1.000000
vt 0.000000 0.000000
vt 0.525190 0.053520
vt 0.392249 0.809169
vt 0.525190 0.946480
vt 0.000000 1.000000
vt 0.000000 0.000000
vt 0.474810 0.053520
vt 0.392929 0.303963
vt 0.438595 0.443867
vt 0.421144 0.579938
vt 0.474810 0.946480
vt 0.000000 1.000000
vt 0.000000 0.000000
vt 0.433230 0.053890
vt 0.346164 0.681700
vt 0.402603 0.753272
vt 0.433230 0.946110
vt 0.000000 1.000000
vt 0.000000 0.000000
vt 0.395310 0.054330
vt 0.320580 0.212710
vt 0.320927 0.495144
vt 0.304823 0.902288
vt 0.395310 0.945670
vt 0.000000 1.000000
vt 0.000000 0.000000
vt 0.359470 0.054750
vt 0.336234 0.361419
vt 0.227867 0.854428
vt 0.359470 0.945250
vt 0.000000 1.000000
vt 0.000000 0.000000
vt 0.324990 0.055100
vt 0.226298 0.103224
vt 0.324990 0.944900
vt 0.000000 1.000000
vt 0.000000 0.000000
vt 0.291390 0.055340
vt 0.267915 0.323908
vt 0.234618 0.609256
vt 0.197683 0.722835
vt 0.198925 0.776222
vt 0.291390 0.944660
vt 0.000000 1.000000
vt 0.000000 0.000000
vt 0.258250 0.055440
vt 0.221599 0.268192
vt 0.220654 0.463554
vt 0.258250 0.944560
vt 0.000000 1.000000
vt 0.000000 0.000000
vt 0.225210 0.055410
vt 0.130599 0.152593
vt 0.183797 0.391014
vt 0.225210 0.944590
vt 0.000000 1.000000
vt 0.000000 0.000000
vt 0.191890 0.055230
vt 0.150168 0.571556
vt 0.132851 0.650003
vt 0.191890 0.944770
vt 0.000000 1.000000
vt 0.000000 0.000000
vt 0.157910 0.054940
vt 0.157910 0.945060
vt 0.000000 1.000000
vt 0.000000 0.000000
vt 0.122820 0.054550
vt 0.122820 0.945450
vt 0.000000 1.000000
vt 0.000000 0.000000
vt 0.086050 0.054100
vt 0.086050 0.945900
vt 0.000000 1.000000
vt 0.000000 0.000000
vt 0.046640 0.053690
vt 0.046640 0.946310
vt 0.000000 1.000000
vn -0.0116 0.0097 -0.9999
vn -0.0091 0.0107 -0.9999
vn 0.3194 -0.6335 0.7047
vn 0.3837 -0.4422 0.8107
vn -0.1473 -0.7849 0.6019
vn 0.3419 -0.9324 -0.1169
vn 0.3384 -0.8549 0.3932
vn 0.2428 -0.9362 -0.2541
vn 0.3879 -0.9115 -0.1369
vn -0.4072 -0.7584 -0.5090
vn 0.0484 -0.4529 -0.8902
vn -0.8718 -0.4140 -0.2619
vn -0.4641 -0.0267 -0.8854
vn -0.6470 -0.4031 -0.6473
vn -0.5969 -0.5152 -0.6151
vn -0.7560 0.2325 -0.6119
vn -0.4166 0.9091 0.0022
vn -0.1000 0.7150 -0.6919
vn -0.3564 0.9343 0.0108
vn -0.0331 0.0591 0.9977
vn -0.0307 0.0576 0.9979
vn -0.0070 0.0095 -0.9999
vn 0.3333 -0.5117 0.7919
vn -0.4738 -0.8527 -0.2202
vn -0.3587 0.9319 -0.0549
vn -0.0273 0.0588 0.9979
vn -0.0068 0.0098 -0.9999
vn 0.2908 -0.5807 0.7604
vn -0.9150 -0.2507 -0.3160
vn -0.6561 0.5776 -0.4857
vn -0.2847 0.9453 -0.1593
vn -0.0234 0.0590 0.9980
vn -0.0090 0.0113 -0.9999
vn 0.3244 -0.5963 0.7343
vn -0.5026 -0.8522 0.1454
vn -0.5507 -0.7566 -0.3526
vn -0.9792 0.1474 -0.1392
vn -0.2098 0.9460 -0.2470
vn -0.0191 0.0530 0.9984
vn -0.0129 0.0133 -0.9998
vn 0.4333 -0.5820 0.6881
vn 0.2014 -0.8849 0.4199
vn -0.9567 -0.2792 -0.0827
vn -0.5487 0.6500 -0.5258
vn -0.1839 0.9477 -0.2610
vn -0.0163 0.0447 0.9989
vn -0.0181 0.0150 -0.9997
vn 0.5981 -0.5238 0.6066
vn -0.2458 -0.9600 0.1343
vn -0.8196 -0.5725 0.0217
vn -0.0853 0.9793 -0.1838
vn -0.0144 0.0400 0.9991
vn -0.0224 0.0158 -0.9996
vn 0.7136 -0.4694 0.5201
vn -0.5875 -0.7292 0.3510
vn -0.6808 -0.1766 -0.7108
vn -0.0583 0.9900 -0.1282
vn -0.0128 0.0350 0.9993
vn -0.0235 0.0157 -0.9996
vn 0.7207 -0.4808 0.4994
vn 0.1232 -0.9354 -0.3315
vn -0.9637 -0.2654 0.0304
vn -0.8516 -0.4252 -0.3065
vn -0.1222 0.9322 -0.3408
vn -0.0122 0.0258 0.9996
vn -0.0229 0.0155 -0.9996
vn 0.8518 -0.2871 0.4383
vn 0.6380 -0.7656 -0.0824
vn -0.0196 -0.8878 0.4598
vn -0.8072 -0.5282 0.2634
vn -0.1242 0.8085 -0.5752
vn -0.0119 0.0182 0.9998
vn -0.0225 0.0154 -0.9996
vn 0.8148 -0.2369 0.5292
vn -0.8841 -0.1123 -0.4535
vn -0.1380 0.7231 -0.6769
vn -0.0106 0.0161 0.9998
vn -0.0265 0.0178 -0.9995
vn 0.8178 -0.2568 0.5150
vn -0.0773 -0.5975 0.7982
vn -0.5556 0.0571 0.8295
vn -0.4733 -0.2332 0.8495
vn -0.7080 0.6457 -0.2861
vn -0.1871 0.7201 -0.6681
vn -0.0095 0.0166 0.9998
vn -0.0347 0.0261 -0.9990
vn 0.8848 -0.3563 0.3002
vn -0.8352 -0.1877 0.5170
vn -0.0189 0.9394 -0.3423
vn -0.3351 0.7682 -0.5455
vn -0.0093 0.0168 0.9998
vn -0.0388 0.0379 -0.9985
vn 0.8838 -0.4677 0.0100
vn 0.4116 -0.8857 0.2150
vn -0.5557 -0.1038 0.8248
vn -0.5481 0.6052 -0.5773
vn -0.0109 0.0155 0.9998
vn 0.0383 -0.0508 0.9980
vn 0.8436 -0.5052 -0.1821
vn -0.4296 -0.5243 0.7352
vn -0.5071 -0.4280 0.7481
vn -0.9158 0.1334 0.3788
vn -0.4721 0.4928 -0.7309
vn -0.0102 0.0072 0.9999
vn 0.0223 -0.0359 0.9991
vn 0.8156 -0.5277 -0.2376
vn -0.0732 -0.4607 0.8846
vn -0.5819 -0.4153 0.6993
vn -0.5565 0.2898 -0.7787
vn -0.0100 0.0039 0.9999
vn 0.0159 -0.0233 0.9996
vn 0.8465 -0.4958 -0.1942
vn -0.3690 -0.2514 0.8948
vn -0.7765 -0.2886 0.5602
vn -0.7901 -0.0663 0.6093
vn -0.6466 0.2954 -0.7033
vn -0.0074 0.0060 1.0000
vn 0.0148 -0.0147 0.9998
vn 0.9220 -0.3731 -0.1037
vn 0.8786 -0.0237 0.4769
vn -0.6135 0.6408 -0.4615
vn -0.5324 0.7390 -0.4128
vn -0.0031 0.0123 0.9999
vn -0.0168 0.0077 -0.9998
vn 0.9838 -0.1443 0.1067
vn 0.1225 0.0313 0.9920
vn -0.4337 0.0334 0.9005
vn -0.8597 -0.0666 0.5065
vn -0.1936 0.9502 -0.2441
vn -0.0001 0.0193 0.9998
vn -0.0207 -0.0003 -0.9997
vn 0.9905 0.0545 0.1262
vn -0.8795 0.4409 0.1791
vn -0.0413 0.9755 -0.2161
vn -0.0012 0.0237 0.9997
vn -0.0233 -0.0080 -0.9996
vn 0.9999 0.0089 0.0137
vn 0.2996 0.3220 0.8981
vn -0.5471 0.5772 0.6063
vn -0.1217 0.9181 -0.3771
vn -0.0064 0.0243 0.9997
vn -0.0205 -0.0100 -0.9996
vn 0.7962 -0.5334 -0.2857
vn 0.4495 0.3015 0.8409
vn -0.3708 0.4596 -0.8070
vn -0.0129 0.0228 0.9997
vn -0.0106 -0.0032 -0.9999
vn 0.8247 -0.5614 0.0686
vn 0.2528 0.0268 0.9671
vn 0.0985 0.5435 0.8336
vn -0.7234 0.3786 -0.5774
vn -0.3926 0.2957 -0.8709
vn -0.0193 0.0214 0.9996
vn -0.0041 -0.0118 0.9999
vn -0.3844 -0.7605 -0.5233
vn 0.9222 0.2348 0.3074
vn 0.4391 0.2407 0.8656
vn -0.7679 0.6333 -0.0960
vn -0.5672 0.2887 -0.7713
vn -0.0262 0.0214 0.9994
vn -0.0127 -0.0251 0.9996
vn -0.4006 -0.6854 -0.6080
vn 0.8244 -0.2357 0.5146
vn -0.6204 0.3056 -0.7223
vn -0.0343 0.0232 0.9991
vn -0.0039 -0.0273 0.9996
vn 0.1566 -0.9262 -0.3430
vn 0.0126 0.9991 -0.0394
vn -0.2076 0.3703 -0.9054
vn -0.7117 0.5080 -0.4852
vn -0.0436 0.0270 0.9987
vn -0.0221 0.0258 -0.9994
vn 0.7938 -0.6042 0.0695
vn 0.7603 -0.4267 0.4898
vn -0.7204 0.4967 -0.4840
vn -0.0573 0.0330 0.9978
vn -0.0919 0.0458 -0.9942
vn 0.7536 -0.6517 0.0860
vn 0.6769 0.7330 -0.0674
vn 0.3286 0.9379 -0.1112
vn -0.7479 0.5098 -0.4252
vn -0.0521 0.0260 0.9983
vn 0.1108 -0.1239 0.9861
vn 0.4403 -0.8914 0.1073
vn 0.1928 -0.8676 0.4585
vn 0.6717 0.5272 0.5205
vn -0.7752 0.5409 -0.3263
vn -0.0308 0.0142 0.9994
vn -0.0351 0.1036 -0.9935
vn 0.2098 -0.8808 0.4245
vn 0.3367 -0.2837 0.8978
vn 0.7530 0.6172 -0.2282
vn 0.6465 0.5081 -0.5691
vn -0.7695 0.5563 -0.3137
vn -0.0206 0.0096 0.9997
vn -0.0076 0.0600 -0.9980
vn 0.1057 -0.7596 0.6417
vn 0.8663 0.4834 -0.1263
vn 0.0530 0.9344 -0.3522
vn -0.7275 0.5767 -0.3716
vn -0.0178 0.0085 0.9998
vn -0.0029 0.0320 -0.9995
vn 0.2137 -0.8027 0.5567
vn 0.8373 0.5383 0.0961
vn -0.6639 0.5791 -0.4732
vn -0.0171 0.0084 0.9998
vn -0.0067 0.0206 -0.9998
vn 0.4883 -0.8714 0.0469
vn 0.5207 -0.6467 0.5574
vn 0.7572 0.1196 0.6421
vn 0.8056 0.5551 0.2073
vn -0.5403 0.5946 -0.5954
vn -0.0161 0.0081 0.9998
vn 0.0129 -0.0202 0.9997
vn 0.7338 -0.5274 -0.4282
vn 0.8935 0.4491 -0.0025
vn -0.3548 0.5266 -0.7725
vn -0.0165 0.0083 0.9998
vn 0.0177 -0.0251 0.9995
vn 0.8061 -0.3133 -0.5021
vn 0.8558 0.5080 -0.0976
vn 0.5929 0.7374 0.3236
vn 0.2500 0.9529 0.1719
vn 0.0627 0.5622 -0.8247
vn -0.0193 0.0097 0.9998
vn 0.0194 -0.0290 0.9994
vn 0.6630 -0.6253 -0.4116
vn 0.5324 0.6352 -0.5596
vn 0.1549 0.4198 -0.8943
vn -0.0242 0.0123 0.9996
vn 0.0198 -0.0291 0.9994
vn 0.2860 -0.9577 -0.0319
vn 0.8802 -0.3508 -0.3198
vn 0.9078 0.2020 0.3675
vn 0.4713 0.8263 0.3083
vn 0.0796 0.3268 -0.9417
vn -0.0308 0.0160 0.9994
vn -0.0219 0.0276 -0.9994
vn 0.0201 -0.9544 0.2978
vn 0.8637 -0.0862 -0.4966
vn 0.7286 0.5824 -0.3605
vn -0.0175 0.7015 -0.7125
vn -0.0670 0.3234 -0.9439
vn -0.0354 0.0191 0.9992
vn -0.0249 0.0274 -0.9993
vn 0.1145 -0.8883 0.4448
vn -0.0149 0.2983 -0.9544
vn -0.0359 0.0202 0.9992
vn -0.0272 0.0270 -0.9992
vn 0.1078 -0.7832 0.6124
vn 0.8860 -0.4337 0.1640
vn 0.7320 -0.0234 -0.6809
vn 0.9080 -0.2263 -0.3525
vn -0.0293 0.9571 -0.2883
vn -0.0472 0.3253 -0.9444
vn -0.0336 0.0207 0.9992
vn -0.0299 0.0235 -0.9992
vn 0.1336 -0.6883 0.7130
vn 0.0093 0.9043 -0.4269
vn -0.1026 0.3817 -0.9186
vn -0.0312 0.0221 0.9993
vn -0.0352 0.0170 -0.9989
vn 0.3088 -0.4929 0.8134
vn 0.9771 -0.1994 -0.0747
vn 0.4505 -0.1533 -0.8795
vn 0.3475 0.1395 -0.9273
vn -0.1711 0.5496 -0.8177
vn -0.0225 0.0213 0.9995
vn -0.0255 0.0115 -0.9994
vn 0.3225 -0.4779 0.8170
vn 0.0036 0.3184 -0.9479
vn -0.3515 0.5900 -0.7269
vn -0.0259 0.9613 -0.2742
vn -0.0195 0.0305 0.9993
vn -0.0170 0.0145 -0.9996
vn 0.2245 -0.5873 0.7776
vn 0.8796 -0.3318 -0.3410
vn 0.1768 0.1521 -0.9724
vn 0.0062 0.6316 -0.7753
vn -0.5656 0.8219 -0.0676
vn -0.0122 0.0389 0.9992
vn -0.0100 0.0206 -0.9997
vn 0.1359 -0.7059 0.6952
vn 0.9126 0.3681 -0.1778
vn 0.3817 0.7763 -0.5018
vn -0.1358 0.9815 -0.1351
vn -0.0061 0.0378 0.9993
vn -0.0066 0.0302 -0.9994
vn 0.1469 -0.6979 0.7010
vn 0.3820 -0.8635 0.3292
vn -0.0509 0.9781 -0.2018
vn -0.0060 0.0316 0.9995
vn -0.0127 0.0316 -0.9992
vn 0.2008 -0.5728 0.7947
vn 0.9958 -0.0152 -0.0899
vn 0.5515 0.2517 -0.7953
vn -0.0089 0.2735 -0.9618
vn 0.0664 0.6078 -0.7913
vn -0.1039 0.9625 -0.2507
vn -0.0076 0.0267 0.9996
vn -0.0219 0.0213 -0.9993
vn 0.3600 -0.3962 0.8447
vn 0.7122 -0.7017 -0.0185
vn 0.5128 0.2568 -0.8192
vn -0.2256 0.9409 -0.2525
vn -0.0085 0.0243 0.9997
vn -0.0257 0.0134 -0.9994
vn 0.4545 -0.2784 0.8461
vn -0.1425 -0.9897 -0.0110
vn 0.7361 -0.2622 -0.6240
vn -0.4046 0.9078 -0.1106
vn -0.0095 0.0230 0.9997
vn -0.0262 0.0099 -0.9995
vn 0.5309 -0.2108 0.8208
vn 0.0615 0.4032 -0.9131
vn 0.3768 0.3707 -0.8489
vn -0.4257 0.9043 0.0327
vn -0.0114 0.0219 0.9997
vn -0.0260 0.0076 -0.9996
vn 0.5723 -0.1567 0.8049
vn -0.5021 0.8509 0.1548
vn -0.0132 0.0205 0.9997
vn -0.0246 0.0060 -0.9996
vn 0.5516 -0.1181 0.8257
vn -0.4893 0.8634 0.1233
vn -0.0133 0.0207 0.9997
vn -0.0211 0.0058 -0.9997
vn 0.4936 -0.0934 0.8647
vn -0.4093 0.9118 0.0331
vn -0.0126 0.0271 0.9996
vn -0.0158 0.0068 -0.9998
vn 0.3655 -0.2048 0.9080
vn -0.3524 0.9356 -0.0198
vn -0.0209 0.0450 0.9988
usemtl space_asteroids_02_l_0008.001
s 1
f 1/1/1 3/2/2 2/3/3
f 2/3/3 3/2/2 4/4/4
f 2/3/3 4/4/4 5/5/5
f 6/6/6 8/7/7 7/8/8
f 7/8/8 8/7/7 9/9/9
f 9/9/9 8/7/7 10/10/10
f 11/11/11 13/12/12 12/13/13
f 12/13/13 13/12/12 14/14/14
f 12/13/13 14/14/14 15/15/15
f 12/13/13 15/15/15 16/16/16
f 17/17/17 19/18/18 18/19/19
f 17/17/17 18/19/19 20/20/20
f 20/20/20 18/19/19 21/21/21
f 3/2/2 22/22/22 4/4/4
f 4/4/4 22/22/22 23/23/23
f 4/4/4 23/23/23 5/5/5
f 10/10/10 8/7/7 24/24/24
f 10/10/10 24/24/24 11/11/11
f 11/11/11 24/24/24 13/12/12
f 18/19/19 19/18/18 25/25/25
f 18/19/19 25/25/25 21/21/21
f 21/21/21 25/25/25 26/26/26
f 22/22/22 27/27/27 23/23/23
f 23/23/23 27/27/27 28/28/28
f 23/23/23 28/28/28 5/5/5
f 16/16/16 15/15/15 29/29/29
f 19/18/18 30/30/30 25/25/25
f 25/25/25 30/30/30 31/31/31
f 25/25/25 31/31/31 26/26/26
f 26/26/26 31/31/31 32/32/32
f 27/27/27 33/33/33 28/28/28
f 28/28/28 33/33/33 34/34/34
f 28/28/28 34/34/34 5/5/5
f 8/7/7 35/35/35 24/24/24
f 24/24/24 35/35/35 36/36/36
f 24/24/24 36/36/36 13/12/12
f 16/16/16 29/29/29 37/37/37
f 16/16/16 37/37/37 30/30/30
f 31/31/31 30/30/30 38/38/38
f 31/31/31 38/38/38 32/32/32
f 32/32/32 38/38/38 39/39/39
f 33/33/33 40/40/40 34/34/34
f 34/34/34 40/40/40 41/41/41
f 34/34/34 41/41/41 5/5/5
f 6/6/6 5/5/5 42/42/42
f 6/6/6 42/42/42 8/7/7
f 36/36/36 35/35/35 13/12/12
f 13/12/12 43/43/43 14/14/14
f 14/14/14 43/43/43 15/15/15
f 30/30/30 37/37/37 44/44/44
f 38/38/38 30/30/30 45/45/45
f 38/38/38 45/45/45 39/39/39
f 39/39/39 45/45/45 46/46/46
f 40/40/40 47/47/47 41/41/41
f 41/41/41 47/47/47 48/48/48
f 41/41/41 48/48/48 5/5/5
f 8/7/7 42/42/42 49/49/49
f 8/7/7 49/49/49 35/35/35
f 35/35/35 49/49/49 13/12/12
f 13/12/12 49/49/49 50/50/50
f 13/12/12 50/50/50 43/43/43
f 45/45/45 30/30/30 51/51/51
f 45/45/45 51/51/51 46/46/46
f 46/46/46 51/51/51 52/52/52
f 47/47/47 53/53/53 48/48/48
f 48/48/48 53/53/53 54/54/54
f 48/48/48 54/54/54 5/5/5
f 50/50/50 55/55/55 43/43/43
f 37/37/37 56/56/56 44/44/44
f 30/30/30 44/44/44 51/51/51
f 51/51/51 44/44/44 57/57/57
f 51/51/51 57/57/57 52/52/52
f 52/52/52 57/57/57 58/58/58
f 53/53/53 59/59/59 54/54/54
f 54/54/54 59/59/59 60/60/60
f 54/54/54 60/60/60 5/5/5
f 5/5/5 61/61/61 42/42/42
f 49/49/49 55/55/55 50/50/50
f 43/43/43 62/62/62 15/15/15
f 15/15/15 62/62/62 29/29/29
f 29/29/29 62/62/62 63/63/63
f 29/29/29 63/63/63 37/37/37
f 37/37/37 63/63/63 56/56/56
f 57/57/57 44/44/44 64/64/64
f 57/57/57 64/64/64 58/58/58
f 58/58/58 64/64/64 65/65/65
f 59/59/59 66/66/66 60/60/60
f 60/60/60 66/66/66 67/67/67
f 60/60/60 67/67/67 5/5/5
f 5/5/5 67/67/67 68/68/68
f 5/5/5 68/68/68 61/61/61
f 42/42/42 69/69/69 49/49/49
f 43/43/43 55/55/55 62/62/62
f 62/62/62 70/70/70 63/63/63
f 64/64/64 44/44/44 71/71/71
f 64/64/64 71/71/71 65/65/65
f 65/65/65 71/71/71 72/72/72
f 66/66/66 73/73/73 67/67/67
f 67/67/67 73/73/73 74/74/74
f 67/67/67 74/74/74 68/68/68
f 61/61/61 68/68/68 42/42/42
f 42/42/42 68/68/68 69/69/69
f 49/49/49 69/69/69 55/55/55
f 56/56/56 75/75/75 44/44/44
f 71/71/71 44/44/44 76/76/76
f 71/71/71 76/76/76 72/72/72
f 72/72/72 76/76/76 77/77/77
f 73/73/73 78/78/78 74/74/74
f 74/74/74 78/78/78 79/79/79
f 74/74/74 79/79/79 68/68/68
f 55/55/55 81/80/80 80/81/81
f 55/55/55 80/81/81 82/82/82
f 55/55/55 82/82/82 62/62/62
f 62/62/62 82/82/82 70/70/70
f 56/56/56 63/63/63 75/75/75
f 44/44/44 75/75/75 83/83/83
f 76/76/76 44/44/44 84/84/84
f 76/76/76 84/84/84 77/77/77
f 77/77/77 84/84/84 85/85/85
f 78/78/78 86/86/86 79/79/79
f 79/79/79 86/86/86 87/87/87
f 79/79/79 87/87/87 68/68/68
f 55/55/55 69/69/69 81/80/80
f 63/63/63 70/70/70 88/88/88
f 63/63/63 88/88/88 75/75/75
f 44/44/44 83/83/83 89/89/89
f 84/84/84 44/44/44 90/90/90
f 84/84/84 90/90/90 85/85/85
f 85/85/85 90/90/90 91/91/91
f 86/86/86 92/92/92 87/87/87
f 87/87/87 92/92/92 93/93/93
f 87/87/87 93/93/93 68/68/68
f 68/68/68 93/93/93 94/94/94
f 68/68/68 94/94/94 69/69/69
f 80/81/81 81/80/80 95/95/95
f 44/44/44 89/89/89 90/90/90
f 90/90/90 89/89/89 96/96/96
f 90/90/90 96/96/96 91/91/91
f 91/91/91 96/96/96 97/97/97
f 92/92/92 98/98/98 93/93/93
f 93/93/93 98/98/98 99/99/99
f 93/93/93 99/99/99 94/94/94
f 81/80/80 69/69/69 95/95/95
f 80/81/81 100/100/100 82/82/82
f 82/82/82 100/100/100 101/101/101
f 82/82/82 101/101/101 70/70/70
f 88/88/88 102/102/102 75/75/75
f 75/75/75 102/102/102 83/83/83
f 96/96/96 89/89/89 103/103/103
f 96/96/96 103/103/103 97/97/97
f 97/97/97 103/103/103 104/104/104
f 98/98/98 105/105/105 99/99/99
f 99/99/99 105/105/105 106/106/106
f 99/99/99 106/106/106 94/94/94
f 94/94/94 107/107/107 69/69/69
f 95/95/95 69/69/69 108/108/108
f 80/81/81 95/95/95 108/108/108
f 80/81/81 108/108/108 100/100/100
f 103/103/103 89/89/89 109/109/109
f 103/103/103 109/109/109 104/104/104
f 104/104/104 109/109/109 110/110/110
f 105/105/105 111/111/111 106/106/106
f 106/106/106 111/111/111 112/112/112
f 106/106/106 112/112/112 94/94/94
f 70/70/70 101/101/101 113/113/113
f 70/70/70 113/113/113 114/114/114
f 70/70/70 114/114/114 88/88/88
f 88/88/88 114/114/114 115/115/115
f 88/88/88 115/115/115 102/102/102
f 109/109/109 89/89/89 116/116/116
f 109/109/109 116/116/116 110/110/110
f 110/110/110 116/116/116 117/117/117
f 111/111/111 118/118/118 112/112/112
f 112/112/112 118/118/118 119/119/119
f 112/112/112 119/119/119 94/94/94
f 94/94/94 120/120/120 107/107/107
f 69/69/69 107/107/107 108/108/108
f 108/108/108 113/113/113 100/100/100
f 100/100/100 113/113/113 101/101/101
f 89/89/89 83/83/83 121/121/121
f 116/116/116 89/89/89 122/122/122
f 116/116/116 122/122/122 117/117/117
f 117/117/117 122/122/122 123/123/123
f 118/118/118 124/124/124 119/119/119
f 119/119/119 124/124/124 125/125/125
f 119/119/119 125/125/125 94/94/94
f 108/108/108 126/126/126 113/113/113
f 114/114/114 113/113/113 127/127/127
f 115/115/115 128/128/128 102/102/102
f 122/122/122 89/89/89 129/129/129
f 122/122/122 129/129/129 123/123/123
f 123/123/123 129/129/129 130/130/130
f 124/124/124 131/131/131 125/125/125
f 125/125/125 131/131/131 132/132/132
f 125/125/125 132/132/132 94/94/94
f 94/94/94 132/132/132 120/120/120
f 107/107/107 126/126/126 108/108/108
f 114/114/114 127/127/127 128/128/128
f 114/114/114 128/128/128 115/115/115
f 102/102/102 128/128/128 133/133/133
f 102/102/102 133/133/133 83/83/83
f 83/83/83 133/133/133 121/121/121
f 89/89/89 121/121/121 129/129/129
f 129/129/129 121/121/121 134/134/134
f 129/129/129 134/134/134 130/130/130
f 130/130/130 134/134/134 135/135/135
f 131/131/131 136/136/136 132/132/132
f 132/132/132 136/136/136 137/137/137
f 132/132/132 137/137/137 120/120/120
f 107/107/107 120/120/120 126/126/126
f 113/113/113 138/138/138 127/127/127
f 128/128/128 127/127/127 139/139/139
f 134/134/134 121/121/121 140/140/140
f 134/134/134 140/140/140 135/135/135
f 135/135/135 140/140/140 141/141/141
f 136/136/136 142/142/142 137/137/137
f 137/137/137 142/142/142 143/143/143
f 137/137/137 143/143/143 120/120/120
f 126/126/126 144/144/144 113/113/113
f 140/140/140 121/121/121 145/145/145
f 140/140/140 145/145/145 141/141/141
f 141/141/141 145/145/145 146/146/146
f 142/142/142 147/147/147 143/143/143
f 143/143/143 147/147/147 148/148/148
f 143/143/143 148/148/148 120/120/120
f 113/113/113 144/144/144 149/149/149
f 113/113/113 149/149/149 138/138/138
f 127/127/127 150/150/150 139/139/139
f 128/128/128 139/139/139 133/133/133
f 121/121/121 151/151/151 145/145/145
f 145/145/145 151/151/151 152/152/152
f 145/145/145 152/152/152 146/146/146
f 146/146/146 152/152/152 153/153/153
f 147/147/147 154/154/154 148/148/148
f 148/148/148 154/154/154 155/155/155
f 148/148/148 155/155/155 120/120/120
f 126/126/126 120/120/120 156/156/156
f 127/127/127 138/138/138 157/157/157
f 127/127/127 157/157/157 150/150/150
f 139/139/139 158/158/158 133/133/133
f 133/133/133 158/158/158 121/121/121
f 152/152/152 151/151/151 159/159/159
f 152/152/152 159/159/159 153/153/153
f 153/153/153 159/159/159 160/160/160
f 154/154/154 161/161/161 155/155/155
f 155/155/155 161/161/161 162/162/162
f 155/155/155 162/162/162 120/120/120
f 126/126/126 156/156/156 163/163/163
f 126/126/126 163/163/163 144/144/144
f 121/121/121 158/158/158 151/151/151
f 159/159/159 151/151/151 164/164/164
f 159/159/159 164/164/164 160/160/160
f 160/160/160 164/164/164 165/165/165
f 161/161/161 166/166/166 162/162/162
f 162/162/162 166/166/166 167/167/167
f 162/162/162 167/167/167 120/120/120
f 120/120/120 167/167/167 156/156/156
f 144/144/144 157/157/157 149/149/149
f 138/138/138 149/149/149 157/157/157
f 150/150/150 168/168/168 139/139/139
f 139/139/139 168/168/168 158/158/158
f 151/151/151 169/169/169 164/164/164
f 164/164/164 169/169/169 170/170/170
f 164/164/164 170/170/170 165/165/165
f 165/165/165 170/170/170 171/171/171
f 166/166/166 172/172/172 167/167/167
f 167/167/167 172/172/172 173/173/173
f 167/167/167 173/173/173 156/156/156
f 156/156/156 174/174/174 163/163/163
f 144/144/144 163/163/163 157/157/157
f 170/170/170 169/169/169 175/175/175
f 170/170/170 175/175/175 171/171/171
f 171/171/171 175/175/175 176/176/176
f 172/172/172 177/177/177 173/173/173
f 173/173/173 177/177/177 178/178/178
f 173/173/173 178/178/178 156/156/156
f 168/168/168 150/150/150 179/179/179
f 158/158/158 168/168/168 180/180/180
f 158/158/158 180/180/180 151/151/151
f 151/151/151 180/180/180 169/169/169
f 175/175/175 169/169/169 181/181/181
f 175/175/175 181/181/181 176/176/176
f 176/176/176 181/181/181 182/182/182
f 177/177/177 183/183/183 178/178/178
f 178/178/178 183/183/183 184/184/184
f 178/178/178 184/184/184 156/156/156
f 156/156/156 184/184/184 185/185/185
f 156/156/156 185/185/185 174/174/174
f 157/157/157 186/186/186 150/150/150
f 150/150/150 186/186/186 179/179/179
f 181/181/181 169/169/169 187/187/187
f 181/181/181 187/187/187 182/182/182
f 182/182/182 187/187/187 188/188/188
f 183/183/183 189/189/189 184/184/184
f 184/184/184 189/189/189 190/190/190
f 184/184/184 190/190/190 185/185/185
f 157/157/157 163/163/163 191/191/191
f 157/157/157 191/191/191 186/186/186
f 179/179/179 186/186/186 192/192/192
f 168/168/168 179/179/179 193/193/193
f 187/187/187 169/169/169 194/194/194
f 187/187/187 194/194/194 188/188/188
f 188/188/188 194/194/194 195/195/195
f 189/189/189 196/196/196 190/190/190
f 190/190/190 196/196/196 197/197/197
f 190/190/190 197/197/197 185/185/185
f 163/163/163 174/174/174 191/191/191
f 179/179/179 192/192/192 193/193/193
f 193/193/193 198/198/198 168/168/168
f 168/168/168 198/198/198 180/180/180
f 180/180/180 199/199/199 169/169/169
f 194/194/194 169/169/169 200/200/200
f 194/194/194 200/200/200 195/195/195
f 195/195/195 200/200/200 201/201/201
f 196/196/196 202/202/202 197/197/197
f 197/197/197 202/202/202 203/203/203
f 197/197/197 203/203/203 185/185/185
f 185/185/185 191/191/191 174/174/174
f 186/186/186 204/204/204 192/192/192
f 200/200/200 169/169/169 205/205/205
f 200/200/200 205/205/205 201/201/201
f 201/201/201 205/205/205 206/206/206
f 202/202/202 207/207/207 203/203/203
f 203/203/203 207/207/207 208/208/208
f 203/203/203 208/208/208 185/185/185
f 185/185/185 209/209/209 191/191/191
f 191/191/191 209/209/209 210/210/210
f 191/191/191 210/210/210 186/186/186
f 193/193/193 192/192/192 198/198/198
f 180/180/180 198/198/198 211/211/211
f 180/180/180 211/211/211 199/199/199
f 205/205/205 169/169/169 212/212/212
f 205/205/205 212/212/212 206/206/206
f 206/206/206 212/212/212 213/213/213
f 207/207/207 214/214/214 208/208/208
f 208/208/208 214/214/214 215/215/215
f 208/208/208 215/215/215 185/185/185
f 204/204/204 186/186/186 216/216/216
f 212/212/212 169/169/169 217/217/217
f 212/212/212 217/217/217 213/213/213
f 213/213/213 217/217/217 218/218/218
f 214/214/214 219/219/219 215/215/215
f 215/215/215 219/219/219 220/220/220
f 215/215/215 220/220/220 185/185/185
f 210/210/210 221/221/221 186/186/186
f 186/186/186 221/221/221 216/216/216
f 204/204/204 216/216/216 192/192/192
f 192/192/192 216/216/216 222/222/222
f 192/192/192 222/222/222 223/223/223
f 192/192/192 223/223/223 198/198/198
f 217/217/217 169/169/169 224/224/224
f 217/217/217 224/224/224 218/218/218
f 218/218/218 224/224/224 225/225/225
f 219/219/219 226/226/226 220/220/220
f 220/220/220 226/226/226 227/227/227
f 220/220/220 227/227/227 185/185/185
f 198/198/198 223/223/223 211/211/211
f 199/199/199 211/211/211 228/228/228
f 199/199/199 228/228/228 169/169/169
f 224/224/224 169/169/169 229/229/229
f 224/224/224 229/229/229 225/225/225
f 225/225/225 229/229/229 230/230/230
f 226/226/226 231/231/231 227/227/227
f 227/227/227 231/231/231 232/232/232
f 227/227/227 232/232/232 185/185/185
f 221/221/221 233/233/233 216/216/216
f 222/222/222 235/234/234 234/235/235
f 222/222/222 234/235/235 223/223/223
f 229/229/229 169/169/169 236/236/236
f 229/229/229 236/236/236 230/230/230
f 230/230/230 236/236/236 237/237/237
f 231/231/231 238/238/238 232/232/232
f 232/232/232 238/238/238 239/239/239
f 232/232/232 239/239/239 185/185/185
f 210/210/210 209/209/209 240/240/240
f 210/210/210 240/240/240 221/221/221
f 221/221/221 240/240/240 233/233/233
f 216/216/216 235/234/234 222/222/222
f 235/234/234 241/241/241 234/235/235
f 228/228/228 242/242/242 169/169/169
f 236/236/236 169/169/169 243/243/243
f 236/236/236 243/243/243 237/237/237
f 237/237/237 243/243/243 244/244/244
f 238/238/238 245/245/245 239/239/239
f 239/239/239 245/245/245 246/246/246
f 239/239/239 246/246/246 185/185/185
f 185/185/185 246/246/246 209/209/209
f 216/216/216 233/233/233 235/234/234
f 211/211/211 223/223/223 228/228/228
f 243/243/243 169/169/169 247/247/247
f 243/243/243 247/247/247 244/244/244
f 244/244/244 247/247/247 248/248/248
f 245/245/245 249/249/249 246/246/246
f 246/246/246 249/249/249 250/250/250
f 246/246/246 250/250/250 209/209/209
f 209/209/209 251/251/251 240/240/240
f 240/240/240 251/251/251 252/252/252
f 240/240/240 252/252/252 233/233/233
f 235/234/234 233/233/233 253/253/253
f 235/234/234 253/253/253 241/241/241
f 223/223/223 234/235/235 254/254/254
f 223/223/223 254/254/254 228/228/228
f 228/228/228 254/254/254 242/242/242
f 169/169/169 242/242/242 247/247/247
f 247/247/247 242/242/242 255/255/255
f 247/247/247 255/255/255 248/248/248
f 248/248/248 255/255/255 256/256/256
f 249/249/249 257/257/257 250/250/250
f 250/250/250 257/257/257 258/258/258
f 250/250/250 258/258/258 209/209/209
f 209/209/209 258/258/258 251/251/251
f 241/241/241 254/254/254 234/235/235
f 242/242/242 254/254/254 259/259/259
f 255/255/255 242/242/242 260/260/260
f 255/255/255 260/260/260 256/256/256
f 256/256/256 260/260/260 261/261/261
f 257/257/257 262/262/262 258/258/258
f 258/258/258 262/262/262 263/263/263
f 258/258/258 263/263/263 251/251/251
f 233/233/233 252/252/252 264/264/264
f 233/233/233 264/264/264 253/253/253
f 253/253/253 265/265/265 241/241/241
f 241/241/241 265/265/265 266/266/266
f 241/241/241 266/266/266 254/254/254
f 260/260/260 242/242/242 267/267/267
f 260/260/260 267/267/267 261/261/261
f 261/261/261 267/267/267 268/268/268
f 262/262/262 269/269/269 263/263/263
f 263/263/263 269/269/269 270/270/270
f 263/263/263 270/270/270 251/251/251
f 253/253/253 264/264/264 265/265/265
f 254/254/254 266/266/266 271/271/271
f 254/254/254 271/271/271 272/272/272
f 254/254/254 272/272/272 259/259/259
f 267/267/267 242/242/242 273/273/273
f 267/267/267 273/273/273 268/268/268
f 268/268/268 273/273/273 274/274/274
f 269/269/269 275/275/275 270/270/270
f 270/270/270 275/275/275 276/276/276
f 270/270/270 276/276/276 251/251/251
f 251/251/251 277/277/277 252/252/252
f 265/265/265 278/278/278 266/266/266
f 242/242/242 259/259/259 279/279/279
f 242/242/242 279/279/279 273/273/273
f 273/273/273 279/279/279 280/280/280
f 273/273/273 280/280/280 274/274/274
f 274/274/274 280/280/280 281/281/281
f 275/275/275 282/282/282 276/276/276
f 276/276/276 282/282/282 283/283/283
f 276/276/276 283/283/283 251/251/251
f 252/252/252 277/277/277 264/264/264
f 264/264/264 284/284/284 265/265/265
f 265/265/265 284/284/284 278/278/278
f 266/266/266 278/278/278 271/271/271
f 259/259/259 285/285/285 279/279/279
f 280/280/280 279/279/279 286/286/286
f 280/280/280 286/286/286 281/281/281
f 281/281/281 286/286/286 287/287/287
f 282/282/282 288/288/288 283/283/283
f 283/283/283 288/288/288 289/289/289
f 283/283/283 289/289/289 251/251/251
f 251/251/251 289/289/289 290/290/290
f 251/251/251 290/290/290 277/277/277
f 264/264/264 277/277/277 284/284/284
f 286/286/286 279/279/279 291/291/291
f 286/286/286 291/291/291 287/287/287
f 287/287/287 291/291/291 292/292/292
f 288/288/288 293/293/293 289/289/289
f 289/289/289 293/293/293 294/294/294
f 289/289/289 294/294/294 290/290/290
f 284/284/284 277/277/277 295/295/295
f 278/278/278 296/296/296 271/271/271
f 271/271/271 297/297/297 272/272/272
f 272/272/272 297/297/297 298/298/298
f 272/272/272 298/298/298 259/259/259
f 291/291/291 279/279/279 299/299/299
f 291/291/291 299/299/299 292/292/292
f 292/292/292 299/299/299 300/300/300
f 293/293/293 301/301/301 294/294/294
f 294/294/294 301/301/301 302/302/302
f 294/294/294 302/302/302 290/290/290
f 295/295/295 277/277/277 303/303/303
f 284/284/284 295/295/295 304/304/304
f 284/284/284 304/304/304 278/278/278
f 278/278/278 304/304/304 296/296/296
f 271/271/271 296/296/296 297/297/297
f 259/259/259 298/298/298 285/285/285
f 299/299/299 279/279/279 305/305/305
f 299/299/299 305/305/305 300/300/300
f 300/300/300 305/305/305 306/306/306
f 301/301/301 307/307/307 302/302/302
f 302/302/302 307/307/307 308/308/308
f 302/302/302 308/308/308 290/290/290
f 277/277/277 290/290/290 309/309/309
f 277/277/277 309/309/309 303/303/303
f 304/304/304 295/295/295 310/310/310
f 305/305/305 279/279/279 311/311/311
f 305/305/305 311/311/311 306/306/306
f 306/306/306 311/311/311 312/312/312
f 307/307/307 313/313/313 308/308/308
f 308/308/308 313/313/313 314/314/314
f 308/308/308 314/314/314 290/290/290
f 309/309/309 7/8/8 303/303/303
f 295/295/295 303/303/303 310/310/310
f 296/296/296 304/304/304 315/315/315
f 296/296/296 316/316/316 297/297/297
f 311/311/311 279/279/279 317/317/317
f 311/311/311 317/317/317 312/312/312
f 312/312/312 317/317/317 318/318/318
f 313/313/313 319/319/319 314/314/314
f 314/314/314 319/319/319 320/320/320
f 314/314/314 320/320/320 290/290/290
f 303/303/303 7/8/8 9/9/9
f 303/303/303 9/9/9 310/310/310
f 296/296/296 315/315/315 316/316/316
f 279/279/279 285/285/285 19/18/18
f 279/279/279 19/18/18 317/317/317
f 317/317/317 19/18/18 321/321/321
f 317/317/317 321/321/321 318/318/318
f 318/318/318 321/321/321 322/322/322
f 319/319/319 323/323/323 320/320/320
f 320/320/320 323/323/323 324/324/324
f 320/320/320 324/324/324 290/290/290
f 310/310/310 11/11/11 304/304/304
f 304/304/304 11/11/11 315/315/315
f 297/297/297 316/316/316 12/13/13
f 321/321/321 19/18/18 325/325/325
f 321/321/321 325/325/325 322/322/322
f 322/322/322 325/325/325 326/326/326
f 323/323/323 327/327/327 324/324/324
f 324/324/324 327/327/327 328/328/328
f 324/324/324 328/328/328 290/290/290
f 309/309/309 6/6/6 7/8/8
f 310/310/310 9/9/9 11/11/11
f 315/315/315 12/13/13 316/316/316
f 285/285/285 298/298/298 30/30/30
f 285/285/285 30/30/30 19/18/18
f 325/325/325 19/18/18 329/329/329
f 325/325/325 329/329/329 326/326/326
f 326/326/326 329/329/329 330/330/330
f 327/327/327 331/331/331 328/328/328
f 328/328/328 331/331/331 332/332/332
f 328/328/328 332/332/332 290/290/290
f 290/290/290 332/332/332 5/5/5
f 290/290/290 5/5/5 309/309/309
f 9/9/9 10/10/10 11/11/11
f 297/297/297 12/13/13 298/298/298
f 329/329/329 19/18/18 333/333/333
f 329/329/329 333/333/333 330/330/330
f 330/330/330 333/333/333 334/334/334
f 331/331/331 1/1/1 332/332/332
f 332/332/332 1/1/1 2/3/3
f 332/332/332 2/3/3 5/5/5
f 309/309/309 5/5/5 6/6/6
f 315/315/315 11/11/11 12/13/13
f 298/298/298 12/13/13 16/16/16
f 298/298/298 16/16/16 30/30/30
f 333/333/333 19/18/18 17/17/17
f 333/333/333 17/17/17 334/334/334
f 334/334/334 17/17/17 20/20/20
