# Blender v2.93.1 OBJ File: ''
# www.blender.org
mtllib asteroid.mtl
o asteroid_1
v 0.831022 -0.280898 0.206156
v 0.831022 -0.280898 0.206156
v 1.484642 -0.230098 0.236086
v 1.481672 -0.249688 0.222298
v 1.652288 -0.205116 -0.054483
v 1.257291 -0.089330 -0.145319
v 0.779500 -0.134638 -0.382657
v 0.390994 0.596967 -0.607039
v 0.014331 1.063072 -0.572494
v -0.281329 1.026512 -1.091938
v -0.644116 0.387875 -0.989432
v -0.751488 0.628332 -0.781273
v -0.755188 0.562842 -0.777803
v -0.716459 0.334352 -0.387234
v -0.716459 0.334352 -0.387234
v 0.831022 -0.280898 0.206156
v 1.475822 -0.268088 0.214127
v 0.157352 -0.051849 -0.743924
v -0.044674 0.255724 -0.616124
v -0.310838 0.655814 -1.103283
v -0.749218 0.510602 -0.764313
v -0.716459 0.334352 -0.387234
v 0.831022 -0.280898 0.206156
v 1.466722 -0.288388 0.209207
v -0.759878 0.455172 -0.759413
v -0.716459 0.334352 -0.387234
v 0.831022 -0.280898 0.206156
v 1.451162 -0.310828 0.205717
v 1.585340 -0.412749 0.057775
v 1.321549 -0.520903 -0.305367
v -0.217221 0.198841 -0.959659
v -0.772549 0.408172 -0.761843
v -0.716459 0.334352 -0.387234
v 0.831022 -0.280898 0.206156
v 1.422571 -0.336708 0.200197
v -0.449003 0.186483 -1.105421
v -0.794529 0.364272 -0.760773
v -0.716459 0.334352 -0.387234
v 0.831022 -0.280898 0.206156
v 1.371012 -0.364358 0.187456
v 0.797749 -0.654132 -0.629111
v 0.396617 -0.607908 -0.779575
v -0.248192 -0.079024 -0.882166
v -0.831589 0.317512 -0.748684
v -0.716459 0.334352 -0.387234
v 0.831022 -0.280898 0.206156
v 1.297712 -0.388608 0.166866
v -0.660927 -0.053138 -0.912791
v -0.860619 0.269932 -0.730173
v -0.716459 0.334352 -0.387234
v 0.831022 -0.280898 0.206156
v 1.240381 -0.411028 0.151087
v 1.290877 -0.840692 -0.293731
v 0.000490 -0.929665 -0.872033
v -0.486858 -0.449075 -1.102182
v -0.889519 0.231782 -0.701254
v -0.716459 0.334352 -0.387234
v 0.831022 -0.280898 0.206156
v 1.208551 -0.430828 0.143646
v 1.425355 -0.671231 0.158740
v 0.878642 -1.014231 -0.528960
v -0.925049 0.206942 -0.671284
v -0.716459 0.334352 -0.387234
v 0.831022 -0.280898 0.206156
v 1.180281 -0.445308 0.137897
v -0.608809 -1.008206 -0.964489
v -0.708938 -0.399723 -0.816249
v -0.795012 -0.107835 -0.733739
v -0.965328 0.180322 -0.654963
v -0.716459 0.334352 -0.387234
v 0.831022 -0.280898 0.206156
v 1.146832 -0.455618 0.131586
v 1.289087 -0.971381 0.104119
v -0.998938 0.172332 -0.637814
v -0.716459 0.334352 -0.387234
v 0.831022 -0.280898 0.206156
v 1.085531 -0.456059 0.129208
v 0.724424 -0.956147 -0.149220
v 0.632122 -1.152025 -0.353804
v -0.908554 -0.875983 -0.672188
v -1.059512 -0.482594 -0.774097
v -1.030939 0.171382 -0.614122
v -0.716459 0.334352 -0.387234
v 0.831022 -0.280898 0.206156
v 0.964891 -0.436178 0.133577
v 1.040350 -0.829150 0.315849
v -0.051691 -1.693710 -0.342521
v -1.288769 -0.711203 -0.510994
v -1.069118 0.167742 -0.592894
v -0.716459 0.334352 -0.387234
v 0.831022 -0.280898 0.206156
v 0.839952 -0.435298 0.167007
v 0.359878 -1.513921 -0.234093
v -0.517964 -1.381551 -0.139892
v -0.965382 -1.291750 -0.252480
v -0.952736 -0.789101 -0.363528
v -1.467986 -0.186575 -0.389586
v -1.155668 0.167092 -0.565063
v -0.716459 0.334352 -0.387234
v 0.831022 -0.280898 0.206156
v 0.838232 -0.465508 0.205826
v -1.216238 0.147312 -0.530684
v -0.716459 0.334352 -0.387234
v 0.831022 -0.280898 0.206156
v 0.872471 -0.494038 0.241556
v 0.847383 -1.019565 0.227860
v 0.273049 -1.613038 0.032060
v -0.299683 -1.821350 0.111062
v -1.207832 -1.165652 -0.052328
v -1.543395 -0.336961 -0.156289
v -1.255278 0.136912 -0.481733
v -0.716459 0.334352 -0.387234
v 0.831022 -0.280898 0.206156
v 0.865181 -0.496828 0.255527
v -0.709684 -1.740673 0.216439
v -0.976778 -1.273422 0.132831
v -1.381318 -0.890524 -0.136612
v -1.294107 0.141472 -0.437674
v -0.716459 0.334352 -0.387234
v 0.831022 -0.280898 0.206156
v 0.832092 -0.488488 0.258676
v -0.018223 -1.216104 0.173133
v -1.324579 0.144862 -0.398024
v -0.716459 0.334352 -0.387234
v 0.831022 -0.280898 0.206156
v 0.830881 -0.498219 0.281097
v 0.497229 -0.416350 0.364221
v -0.663883 -1.160282 0.246751
v -1.342598 0.137182 -0.358713
v -0.716459 0.334352 -0.387234
v 0.831022 -0.280898 0.206156
v 0.811031 -0.495328 0.295076
v 0.286465 -1.298587 0.390467
v -0.418431 -1.442357 0.420312
v -1.289010 -0.667791 0.043978
v -1.457309 -0.052556 -0.121934
v -1.360399 0.134622 -0.327312
v -0.716459 0.334352 -0.387234
v 0.831022 -0.280898 0.206156
v 0.764601 -0.471228 0.288036
v 0.628596 -1.095869 0.538090
v -1.262163 -0.747609 0.331213
v -1.088113 -0.283735 0.162956
v -1.383888 0.135302 -0.299093
v -0.716459 0.334352 -0.387234
v 0.831022 -0.280898 0.206156
v 0.721531 -0.447198 0.278206
v -1.405338 0.138432 -0.271803
v -0.716459 0.334352 -0.387234
v 0.831022 -0.280898 0.206156
v 0.684322 -0.425738 0.270307
v -0.940941 -1.136937 0.522526
v -1.424698 0.142022 -0.250093
v -0.716459 0.334352 -0.387234
v 0.831022 -0.280898 0.206156
v 0.653351 -0.408228 0.267147
v -1.437788 0.151412 -0.235952
v -0.716459 0.334352 -0.387234
v 0.831022 -0.280898 0.206156
v 0.630732 -0.396628 0.270536
v 0.279889 -0.940951 0.632555
v -0.452202 -1.179850 0.713098
v -1.416615 -0.047859 0.277916
v -1.500116 0.117351 0.070073
v -1.434498 0.178302 -0.230022
v -0.716459 0.334352 -0.387234
v 0.831022 -0.280898 0.206156
v 0.618271 -0.391728 0.281046
v -1.227026 -0.226251 0.527758
v -1.399359 0.213872 -0.225634
v -0.716459 0.334352 -0.387234
v 0.831022 -0.280898 0.206156
v 0.618351 -0.394148 0.302877
v 0.459527 -0.666867 0.638434
v 0.201388 -0.567975 0.639714
v -0.386837 -0.770291 0.816481
v -0.557547 -0.356899 1.091280
v -1.188926 0.066879 0.834877
v -1.422822 0.275426 0.431108
v -1.314669 0.237232 -0.213764
v -0.716459 0.334352 -0.387234
v 0.831022 -0.280898 0.206156
v 0.628431 -0.400198 0.328466
v -1.222729 0.255312 -0.204954
v -0.716459 0.334352 -0.387234
v 0.831022 -0.280898 0.206156
v 0.639952 -0.403808 0.348137
v -0.719152 0.001333 1.148792
v -1.161238 0.282322 -0.207224
v -0.716459 0.334352 -0.387234
v 0.831022 -0.280898 0.206156
v 0.653042 -0.404528 0.365467
v -0.527385 0.143840 1.122720
v -0.774714 0.442529 1.096290
v -1.129839 0.317152 -0.212713
v -0.716459 0.334352 -0.387234
v 0.831022 -0.280898 0.206156
v 0.667732 -0.401228 0.379366
v 0.722165 -0.204351 0.741068
v -0.077468 -0.240589 0.712441
v -1.114609 0.352592 -0.219284
v -0.716459 0.334352 -0.387234
v 0.831022 -0.280898 0.206156
v 0.685072 -0.392538 0.388348
v 0.612394 -0.291058 0.476213
v -1.280389 0.416486 0.464145
v -1.251119 0.562343 0.024920
v -1.110088 0.390092 -0.228723
v -0.716459 0.334352 -0.387234
v 0.831022 -0.280898 0.206156
v 0.705853 -0.374238 0.392326
v 0.212233 -0.151124 0.704935
v 0.081316 0.680620 0.810432
v -0.489247 0.776600 1.125007
v -1.107088 0.432512 -0.235983
v -0.716459 0.334352 -0.387234
v 0.831022 -0.280898 0.206156
v 0.704361 -0.330478 0.379816
v 0.406957 0.120152 0.436834
v 0.303420 0.498302 0.749932
v -1.092428 0.480752 -0.245983
v -0.716459 0.334352 -0.387234
v 0.831022 -0.280898 0.206156
v 0.665312 -0.262908 0.347647
v -0.985654 0.769704 0.634048
v -1.009689 0.990815 0.232587
v -1.065018 0.515192 -0.267853
v -0.716459 0.334352 -0.387234
v 0.831022 -0.280898 0.206156
v 0.683413 -0.228258 0.350227
v -1.073509 0.547252 -0.286074
v -0.716459 0.334352 -0.387234
v 0.831022 -0.280898 0.206156
v 0.710291 -0.207488 0.345556
v 0.959569 -0.013793 0.705147
v 0.457129 0.387471 0.448657
v 0.307439 0.593356 0.341909
v -0.048803 1.730438 0.272530
v -0.517333 1.152117 0.581280
v -0.824740 0.616514 -0.057631
v -0.995529 0.554042 -0.289574
v -0.716459 0.334352 -0.387234
v 0.831022 -0.280898 0.206156
v 0.755091 -0.204758 0.345577
v -0.909859 0.568862 -0.307753
v -0.716459 0.334352 -0.387234
v 0.831022 -0.280898 0.206156
v 0.827631 -0.216508 0.361837
v 0.521145 1.132317 0.363261
v -0.414018 1.514619 0.281251
v -0.614942 1.116941 0.211784
v -0.858516 1.454504 -0.054769
v -0.853638 0.579622 -0.320293
v -0.716459 0.334352 -0.387234
v 0.831022 -0.280898 0.206156
v 0.875631 -0.216808 0.357027
v -1.029842 1.335052 -0.211335
v -0.820408 0.584522 -0.332243
v -0.716459 0.334352 -0.387234
v 0.831022 -0.280898 0.206156
v 0.888031 -0.195778 0.320517
v 1.114872 -0.035368 0.573511
v 1.024816 0.623492 0.528117
v -0.279958 2.008010 -0.048108
v -0.947830 1.152925 -0.372653
v -0.859709 0.647462 -0.403004
v -0.716459 0.334352 -0.387234
v 0.831022 -0.280898 0.206156
v 0.921772 -0.191678 0.313116
v -0.591200 1.713107 -0.303215
v -0.815588 0.657052 -0.444473
v -0.716459 0.334352 -0.387234
v 0.831022 -0.280898 0.206156
v 0.939941 -0.188508 0.307917
v 1.311096 0.320880 0.496374
v 1.136687 0.445318 0.273069
v 1.148308 0.940335 0.257766
v -0.796638 0.671232 -0.485063
v -0.716459 0.334352 -0.387234
v 0.831022 -0.280898 0.206156
v 0.962831 -0.170498 0.310778
v 0.319319 1.472166 -0.163711
v -0.599502 1.715658 -0.467278
v -0.785858 0.678572 -0.528643
v -0.716459 0.334352 -0.387234
v 0.831022 -0.280898 0.206156
v 0.968332 -0.137298 0.294598
v 1.569291 -0.128037 0.264044
v -0.218021 1.784131 -0.272564
v -0.787022 1.078878 -0.785224
v -0.776758 0.683052 -0.571894
v -0.716459 0.334352 -0.387234
v 0.831022 -0.280898 0.206156
v 1.028692 -0.133228 0.281307
v -0.561709 1.396166 -0.693561
v -0.756369 0.688942 -0.610184
v -0.716459 0.334352 -0.387234
v 0.831022 -0.280898 0.206156
v 1.112741 -0.138628 0.271036
v 1.185807 0.573785 0.112613
v 1.225240 0.836308 -0.005310
v 1.024819 1.207340 -0.028223
v -0.745358 0.696642 -0.641212
v -0.716459 0.334352 -0.387234
v 0.831022 -0.280898 0.206156
v 1.219501 -0.148068 0.273907
v 0.110602 1.366136 -0.425244
v -0.752768 0.705112 -0.673504
v -0.716459 0.334352 -0.387234
v 0.831022 -0.280898 0.206156
v 1.309521 -0.159288 0.276897
v 1.685031 -0.109074 0.101038
v 0.431525 1.178135 -0.260822
v -0.377368 1.385315 -0.761302
v -0.767427 0.722182 -0.710693
v -0.716459 0.334352 -0.387234
v 0.831022 -0.280898 0.206156
v 1.337452 -0.168228 0.264507
v -0.770658 0.730362 -0.736174
v -0.716459 0.334352 -0.387234
v 0.831022 -0.280898 0.206156
v 1.396902 -0.184438 0.261417
v 1.462561 0.065332 0.034293
v 1.123564 0.491049 -0.002700
v -0.763199 0.716912 -0.742733
v -0.716459 0.334352 -0.387234
v 0.831022 -0.280898 0.206156
v 1.451231 -0.200408 0.258717
v -0.750908 0.698692 -0.749483
v -0.716459 0.334352 -0.387234
v 0.831022 -0.280898 0.206156
v 1.478432 -0.213708 0.250517
v -0.737879 0.681172 -0.765043
v -0.716459 0.334352 -0.387234
vt 0.000000 0.000000
vt 0.000000 0.000000
vt 0.000000 0.062400
vt 0.055540 0.063000
vt 0.076327 0.213561
vt 0.180082 0.130151
vt 0.050533 0.189799
vt 0.058828 0.360640
vt 0.139885 0.399573
vt 0.035900 0.577470
vt 0.052869 0.686822
vt 0.111858 0.591636
vt 0.033175 0.777582
vt 0.167330 0.875076
vt 0.000000 0.937600
vt 0.055540 0.937000
vt 0.000000 1.000000
vt 0.000000 1.000000
vt 0.000000 0.000000
vt 0.096320 0.063900
vt 0.184698 0.504730
vt 0.096320 0.936100
vt 0.000000 1.000000
vt 0.000000 0.000000
vt 0.132380 0.064800
vt 0.177589 0.633454
vt 0.125553 0.737684
vt 0.132380 0.935200
vt 0.000000 1.000000
vt 0.000000 0.000000
vt 0.165620 0.065580
vt 0.222581 0.133169
vt 0.236076 0.250808
vt 0.165620 0.934420
vt 0.000000 1.000000
vt 0.000000 0.000000
vt 0.197080 0.066150
vt 0.283099 0.359169
vt 0.217226 0.738297
vt 0.197080 0.933850
vt 0.000000 1.000000
vt 0.000000 0.000000
vt 0.227500 0.066490
vt 0.298521 0.415357
vt 0.237959 0.615004
vt 0.227500 0.933510
vt 0.000000 1.000000
vt 0.000000 0.000000
vt 0.257490 0.066550
vt 0.295860 0.808855
vt 0.257490 0.933450
vt 0.000000 1.000000
vt 0.000000 0.000000
vt 0.287620 0.066350
vt 0.337038 0.247271
vt 0.353852 0.461699
vt 0.303800 0.634281
vt 0.287620 0.933650
vt 0.000000 1.000000
vt 0.000000 0.000000
vt 0.318480 0.065890
vt 0.370817 0.120521
vt 0.384096 0.317559
vt 0.354496 0.860818
vt 0.318480 0.934110
vt 0.000000 1.000000
vt 0.000000 0.000000
vt 0.350720 0.065210
vt 0.370662 0.752087
vt 0.350720 0.934790
vt 0.000000 1.000000
vt 0.000000 0.000000
vt 0.385210 0.064360
vt 0.469630 0.188800
vt 0.398487 0.586315
vt 0.452335 0.797856
vt 0.385210 0.935640
vt 0.000000 1.000000
vt 0.000000 0.000000
vt 0.423280 0.063440
vt 0.536795 0.249760
vt 0.461438 0.313287
vt 0.472188 0.685882
vt 0.423280 0.936560
vt 0.000000 1.000000
vt 0.000000 0.000000
vt 0.468160 0.062620
vt 0.577193 0.139746
vt 0.548005 0.395007
vt 0.468160 0.937380
vt 0.000000 1.000000
vt 0.000000 0.000000
vt 0.531840 0.062620
vt 0.583451 0.288424
vt 0.578277 0.482086
vt 0.589679 0.615564
vt 0.564060 0.729629
vt 0.563919 0.788284
vt 0.642761 0.878951
vt 0.531840 0.937380
vt 0.000000 1.000000
vt 0.000000 0.000000
vt 0.576720 0.063440
vt 0.576720 0.936560
vt 0.000000 1.000000
vt 0.000000 0.000000
vt 0.614790 0.064360
vt 0.680520 0.185736
vt 0.680061 0.268581
vt 0.670042 0.364586
vt 0.674218 0.663183
vt 0.712351 0.811945
vt 0.614790 0.935640
vt 0.000000 1.000000
vt 0.000000 0.000000
vt 0.649280 0.065210
vt 0.688958 0.438772
vt 0.722830 0.564576
vt 0.697799 0.724122
vt 0.649280 0.934790
vt 0.000000 1.000000
vt 0.000000 0.000000
vt 0.681520 0.065890
vt 0.765976 0.300915
vt 0.681520 0.934110
vt 0.000000 1.000000
vt 0.000000 0.000000
vt 0.712380 0.066350
vt 0.896524 0.122122
vt 0.774407 0.500000
vt 0.712380 0.933650
vt 0.000000 1.000000
vt 0.000000 0.000000
vt 0.742510 0.066550
vt 0.827507 0.251831
vt 0.836337 0.372553
vt 0.769027 0.724750
vt 0.823903 0.859459
vt 0.742510 0.933450
vt 0.000000 1.000000
vt 0.000000 0.000000
vt 0.772500 0.066490
vt 0.849952 0.183012
vt 0.841925 0.659917
vt 0.859861 0.728729
vt 0.772500 0.933510
vt 0.000000 1.000000
vt 0.000000 0.000000
vt 0.802920 0.066150
vt 0.802920 0.933850
vt 0.000000 1.000000
vt 0.000000 0.000000
vt 0.834380 0.065580
vt 0.875896 0.523988
vt 0.834380 0.934420
vt 0.000000 1.000000
vt 0.000000 0.000000
vt 0.867620 0.064800
vt 0.867620 0.935200
vt 0.000000 1.000000
vt 0.000000 0.000000
vt 0.903680 0.063900
vt 0.969976 0.229864
vt 0.935516 0.367849
vt 0.946381 0.783688
vt 0.908047 0.873540
vt 0.903680 0.936100
vt 0.000000 1.000000
vt 0.000000 0.000000
vt 0.944460 0.063000
vt 0.962542 0.670508
vt 0.944460 0.937000
vt 0.000000 1.000000
vt 0.000000 0.000000
vt 1.000000 0.062400
vt 0.908015 0.198086
vt 0.947885 0.387722
vt 0.885656 0.501848
vt 0.864685 0.809439
vt 1.000000 0.937600
vt 0.000000 1.000000
vt 0.000000 0.000000
vt 0.944460 0.063000
vt 0.860999 0.282196
vt 0.932769 0.705109
vt 0.944460 0.937000
vt 0.000000 1.000000
vt 0.000000 0.000000
vt 0.903680 0.063900
vt 0.857347 0.614414
vt 0.903680 0.936100
vt 0.000000 1.000000
vt 0.000000 0.000000
vt 0.867620 0.064800
vt 0.814228 0.614485
vt 0.792123 0.682624
vt 0.867620 0.935200
vt 0.000000 1.000000
vt 0.000000 0.000000
vt 0.834380 0.065580
vt 0.731535 0.179369
vt 0.803213 0.358298
vt 0.834380 0.934420
vt 0.000000 1.000000
vt 0.000000 0.000000
vt 0.802920 0.066150
vt 0.741870 0.110685
vt 0.773751 0.812953
vt 0.716392 0.882219
vt 0.802920 0.933850
vt 0.000000 1.000000
vt 0.000000 0.000000
vt 0.772500 0.066490
vt 0.769576 0.299831
vt 0.702830 0.450714
vt 0.732176 0.623331
vt 0.772500 0.933510
vt 0.000000 1.000000
vt 0.000000 0.000000
vt 0.742510 0.066550
vt 0.693338 0.265858
vt 0.681275 0.368356
vt 0.742510 0.933450
vt 0.000000 1.000000
vt 0.000000 0.000000
vt 0.712380 0.066350
vt 0.688485 0.756318
vt 0.628907 0.811212
vt 0.712380 0.933650
vt 0.000000 1.000000
vt 0.000000 0.000000
vt 0.681520 0.065890
vt 0.681520 0.934110
vt 0.000000 1.000000
vt 0.000000 0.000000
vt 0.649280 0.065210
vt 0.570778 0.145438
vt 0.588510 0.303602
vt 0.571703 0.379012
vt 0.513800 0.547098
vt 0.624925 0.687241
vt 0.603424 0.875496
vt 0.649280 0.934790
vt 0.000000 1.000000
vt 0.000000 0.000000
vt 0.614790 0.064360
vt 0.614790 0.935640
vt 0.000000 1.000000
vt 0.000000 0.000000
vt 0.576720 0.063440
vt 0.499653 0.399752
vt 0.560111 0.663639
vt 0.572812 0.734014
vt 0.492878 0.783868
vt 0.576720 0.936560
vt 0.000000 1.000000
vt 0.000000 0.000000
vt 0.531840 0.062620
vt 0.467273 0.835488
vt 0.531840 0.937380
vt 0.000000 1.000000
vt 0.000000 0.000000
vt 0.468160 0.062620
vt 0.412331 0.157658
vt 0.438928 0.279643
vt 0.413392 0.652227
vt 0.383702 0.877669
vt 0.468160 0.937380
vt 0.000000 1.000000
vt 0.000000 0.000000
vt 0.423280 0.063440
vt 0.392304 0.771407
vt 0.423280 0.936560
vt 0.000000 1.000000
vt 0.000000 0.000000
vt 0.385210 0.064360
vt 0.342337 0.242617
vt 0.297321 0.286627
vt 0.318477 0.362613
vt 0.385210 0.935640
vt 0.000000 1.000000
vt 0.000000 0.000000
vt 0.350720 0.065210
vt 0.285774 0.560901
vt 0.285239 0.727942
vt 0.292337 0.798943
vt 0.350720 0.934790
vt 0.000000 1.000000
vt 0.000000 0.000000
vt 0.318480 0.065890
vt 0.241217 0.889203
vt 0.318480 0.934110
vt 0.000000 1.000000
vt 0.000000 0.000000
vt 0.287620 0.066350
vt 0.199389 0.831388
vt 0.287620 0.933650
vt 0.000000 1.000000
vt 0.000000 0.000000
vt 0.257490 0.066550
vt 0.217219 0.334041
vt 0.189336 0.391098
vt 0.210740 0.447244
vt 0.257490 0.933450
vt 0.000000 1.000000
vt 0.000000 0.000000
vt 0.227500 0.066490
vt 0.165047 0.661869
vt 0.227500 0.933510
vt 0.000000 1.000000
vt 0.000000 0.000000
vt 0.197080 0.066150
vt 0.129893 0.587405
vt 0.118459 0.792041
vt 0.197080 0.933850
vt 0.000000 1.000000
vt 0.000000 0.000000
vt 0.165620 0.065580
vt 0.165620 0.934420
vt 0.000000 1.000000
vt 0.000000 0.000000
vt 0.132380 0.064800
vt 0.083793 0.281016
vt 0.093871 0.398720
vt 0.132380 0.935200
vt 0.000000 1.000000
vt 0.000000 0.000000
vt 0.096320 0.063900
vt 0.096320 0.936100
vt 0.000000 1.000000
vt 0.000000 0.000000
vt 0.055540 0.063000
vt 0.055540 0.937000
vt 0.000000 1.000000
vn -0.0002 0.0071 -1.0000
vn -0.0001 0.0066 -1.0000
vn 0.4230 -0.7190 0.5515
vn 0.3959 -0.4996 0.7705
vn 0.8121 0.0160 -0.5833
vn 0.5876 -0.2154 0.7799
vn 0.9956 0.0940 -0.0054
vn 0.3797 0.3223 -0.8672
vn 0.4793 0.1851 -0.8579
vn 0.3482 0.1854 -0.9189
vn 0.5725 0.2787 -0.7711
vn 0.4993 0.2662 -0.8245
vn 0.1937 0.3828 -0.9033
vn -0.6466 0.0344 -0.7621
vn -0.9663 0.1439 -0.2137
vn -0.9787 -0.1153 -0.1700
vn 0.0351 -0.0022 -0.9994
vn 0.0291 0.0030 -0.9996
vn 0.0000 0.0039 -1.0000
vn 0.5519 -0.3112 0.7737
vn 0.3800 0.1070 -0.9188
vn -0.9965 -0.0791 -0.0279
vn 0.0386 -0.0081 -0.9992
vn 0.0001 0.0024 -1.0000
vn 0.5162 -0.3134 0.7970
vn 0.7001 -0.1226 -0.7035
vn 0.2025 -0.0232 -0.9790
vn -0.9844 0.1140 -0.1342
vn 0.0371 -0.0096 -0.9993
vn 0.0001 0.0017 -1.0000
vn 0.5023 -0.2327 0.8328
vn 0.7738 -0.4171 0.4768
vn 0.6583 0.0132 -0.7526
vn -0.9459 0.2817 -0.1612
vn 0.0350 -0.0178 -0.9992
vn 0.0001 0.0029 -1.0000
vn 0.3832 -0.4896 0.7833
vn 0.4626 0.0785 -0.8831
vn -0.1255 -0.2754 -0.9531
vn -0.8469 0.4709 -0.2468
vn 0.0372 -0.0321 -0.9988
vn 0.0005 0.0075 -1.0000
vn 0.2462 -0.7206 0.6482
vn 0.3234 -0.0124 -0.9462
vn 0.3912 -0.1091 -0.9138
vn -0.8869 0.2858 -0.3629
vn 0.0386 -0.0278 -0.9989
vn 0.0015 0.0148 -0.9999
vn 0.1263 -0.7452 0.6547
vn -0.6052 -0.1170 -0.7874
vn -0.8530 0.2216 -0.4725
vn 0.0336 -0.0317 -0.9989
vn 0.0012 0.0144 -0.9999
vn 0.1291 -0.6106 0.7813
vn 0.7643 -0.4308 -0.4799
vn 0.3210 -0.3222 -0.8906
vn -0.1762 -0.0126 -0.9843
vn -0.8473 0.1738 -0.5019
vn -0.0248 0.0373 0.9990
vn -0.0002 0.0084 -1.0000
vn 0.0440 -0.2816 0.9585
vn 0.7272 -0.2224 0.6494
vn 0.4817 -0.7055 -0.5199
vn -0.5283 0.0052 -0.8490
vn -0.8674 0.2646 -0.4214
vn -0.0207 0.0318 0.9993
vn -0.0001 0.0076 -1.0000
vn -0.0532 -0.2976 0.9532
vn -0.5529 -0.0613 -0.8310
vn -0.5646 0.5162 -0.6440
vn -0.0094 0.0261 0.9996
vn 0.0007 0.0097 -1.0000
vn -0.0397 -0.2430 0.9692
vn 0.6200 -0.7225 0.3061
vn -0.3342 -0.5080 -0.7939
vn -0.4012 -0.2563 -0.8794
vn -0.5721 0.5851 -0.5747
vn -0.0076 0.0274 0.9996
vn 0.0010 0.0140 -0.9999
vn -0.0020 -0.1432 0.9897
vn 0.4727 -0.8804 0.0375
vn 0.5768 -0.7947 -0.1890
vn -0.7866 -0.3957 -0.4739
vn -0.5788 0.6315 -0.5159
vn -0.0074 0.0266 0.9996
vn 0.0033 0.0353 -0.9994
vn 0.0608 -0.0347 0.9975
vn 0.1665 -0.1570 0.9735
vn -0.0055 -0.8938 -0.4485
vn -0.4926 0.5635 -0.6632
vn -0.0070 0.0406 0.9992
vn -0.0422 0.0378 -0.9984
vn 0.6069 0.2412 0.7573
vn 0.5110 -0.7970 -0.3219
vn -0.3144 -0.7893 -0.5273
vn -0.6303 -0.6530 -0.4200
vn -0.6610 -0.5778 -0.4787
vn -0.5506 -0.6083 -0.5717
vn -0.8946 0.1749 -0.4112
vn -0.6154 0.4911 -0.6165
vn -0.0107 0.0297 0.9995
vn 0.0776 0.0030 0.9970
vn 0.9342 0.3505 -0.0663
vn -0.6453 0.5484 -0.5318
vn -0.0106 0.0299 0.9995
vn 0.0547 0.0022 0.9985
vn 0.9074 0.4194 0.0271
vn 0.4248 -0.7678 0.4796
vn 0.5230 -0.7488 0.4070
vn 0.1506 -0.9430 0.2968
vn -0.7752 -0.6312 0.0253
vn -0.9598 -0.0730 0.2710
vn -0.5719 0.7485 -0.3358
vn -0.0075 0.0248 0.9997
vn -0.0184 -0.0054 -0.9998
vn 0.4649 0.3931 0.7933
vn -0.5846 -0.7212 0.3717
vn -0.5811 -0.6894 0.4325
vn -0.8401 -0.5343 0.0934
vn -0.5637 0.7186 -0.4072
vn -0.0062 0.0201 0.9998
vn -0.0070 -0.0111 -0.9999
vn 0.7422 0.3782 0.5532
vn 0.1665 -0.8930 0.4181
vn -0.6629 0.7175 -0.2140
vn 0.0057 -0.0183 -0.9998
vn -0.0268 -0.0006 -0.9996
vn 0.6639 0.5112 0.5458
vn 0.7883 -0.3275 0.5209
vn -0.4445 -0.7478 0.4932
vn -0.6941 0.7130 -0.0988
vn -0.0044 0.0137 0.9999
vn -0.0189 -0.0086 -0.9998
vn 0.1823 0.2495 0.9511
vn 0.1668 -0.7475 0.6430
vn 0.0013 -0.6154 0.7882
vn -0.8560 -0.0029 0.5169
vn -0.9856 0.0167 0.1682
vn -0.7787 0.5053 -0.3717
vn -0.0038 0.0113 0.9999
vn -0.0038 -0.0253 -0.9997
vn 0.1621 0.3460 0.9241
vn 0.6459 -0.2969 0.7033
vn -0.9296 -0.0653 0.3628
vn -0.9423 -0.2479 0.2249
vn -0.7735 0.3607 -0.5212
vn -0.0036 0.0102 0.9999
vn -0.0006 -0.0273 -0.9996
vn 0.1571 0.5843 0.7962
vn -0.7697 0.3659 -0.5232
vn -0.0028 0.0075 1.0000
vn -0.0015 -0.0234 -0.9997
vn 0.1581 0.5530 0.8181
vn -0.6181 -0.6063 0.5003
vn -0.7199 -0.1368 -0.6804
vn -0.0023 0.0046 1.0000
vn -0.0041 -0.0153 -0.9999
vn 0.2287 0.4695 0.8528
vn -0.8282 0.0135 -0.5602
vn -0.0029 0.0027 1.0000
vn -0.0065 -0.0044 -1.0000
vn 0.4532 0.1822 0.8726
vn 0.1924 -0.2468 0.9498
vn -0.0560 -0.4816 0.8746
vn -0.8241 -0.5108 0.2447
vn -0.9797 0.1675 0.1102
vn -0.5622 0.5547 -0.6133
vn -0.0038 0.0052 1.0000
vn -0.0080 0.0068 -0.9999
vn 0.5952 -0.5957 0.5393
vn -0.8324 -0.3397 0.4379
vn -0.2566 0.9411 -0.2203
vn -0.0037 0.0155 0.9999
vn 0.0110 -0.0228 0.9997
vn 0.3718 -0.9048 -0.2075
vn 0.4210 -0.0755 0.9039
vn 0.1519 -0.2859 0.9461
vn 0.0588 -0.3099 0.9489
vn -0.8356 0.4608 0.2991
vn -0.1457 0.9872 -0.0642
vn -0.0037 0.0197 0.9998
vn 0.0108 -0.0301 0.9995
vn 0.3308 -0.8695 -0.3668
vn 0.1349 -0.0372 0.9902
vn -0.4824 0.4583 0.7465
vn -0.2633 0.9329 -0.2456
vn -0.0058 0.0123 0.9999
vn 0.0086 -0.0244 0.9997
vn 0.2819 -0.8806 -0.3809
vn -0.3209 0.0124 0.9470
vn -0.4517 0.6287 -0.6330
vn -0.0090 0.0048 0.9999
vn 0.0090 -0.0230 0.9997
vn 0.1747 -0.9791 -0.1038
vn 0.1927 -0.0902 0.9771
vn -0.4926 0.2471 0.8345
vn -0.5226 0.2449 -0.8167
vn -0.0102 -0.0001 0.9999
vn 0.0100 -0.0215 0.9997
vn 0.1298 -0.9303 0.3432
vn 0.4624 -0.1626 0.8716
vn 0.3805 -0.1082 0.9184
vn -0.6330 0.1060 -0.7669
vn -0.0114 -0.0053 0.9999
vn 0.0120 -0.0207 0.9997
vn 0.2797 -0.8295 0.4835
vn 0.7473 -0.6359 0.1926
vn -0.7462 0.5759 0.3340
vn -0.6973 0.6440 -0.3147
vn -0.6968 -0.0256 -0.7168
vn -0.0127 -0.0042 0.9999
vn -0.0191 0.0221 -0.9996
vn 0.7502 -0.5151 0.4146
vn 0.2151 0.0949 0.9720
vn 0.5864 0.2211 0.7793
vn -0.0689 0.4299 0.9003
vn -0.7348 0.0272 -0.6777
vn -0.0149 -0.0030 0.9999
vn -0.0403 -0.0106 -0.9991
vn 0.6629 0.3683 0.6519
vn 0.3297 0.1504 0.9321
vn 0.7128 0.3148 0.6267
vn -0.6564 0.0925 -0.7488
vn -0.0151 -0.0082 0.9999
vn -0.0638 -0.0683 -0.9956
vn 0.8001 0.0890 0.5933
vn -0.6768 0.5555 0.4831
vn -0.7749 0.5973 0.2068
vn -0.8033 -0.0919 -0.5884
vn -0.0132 -0.0136 0.9998
vn -0.0320 0.0197 -0.9993
vn 0.7050 -0.6074 0.3660
vn -0.9096 0.2484 -0.3332
vn -0.0030 0.0140 0.9999
vn -0.0237 0.0233 -0.9994
vn 0.3786 -0.9103 0.1677
vn 0.5801 0.0670 0.8118
vn 0.3361 0.2092 0.9183
vn 0.5546 0.2011 0.8074
vn 0.2603 0.7964 0.5459
vn -0.5959 0.6994 0.3946
vn -0.7506 0.5167 -0.4119
vn 0.0366 0.6786 -0.7336
vn -0.0161 0.0097 0.9998
vn -0.0034 0.0554 -0.9985
vn 0.1175 -0.9544 0.2744
vn -0.0582 0.5949 -0.8017
vn -0.0141 0.0076 0.9999
vn 0.0301 0.1187 -0.9925
vn -0.1312 -0.8880 0.4408
vn 0.3862 0.5004 0.7749
vn -0.6947 0.5755 0.4315
vn -0.5590 0.7068 0.4335
vn -0.5336 0.7110 0.4580
vn -0.2436 0.5267 -0.8144
vn -0.0135 0.0024 0.9999
vn -0.0029 0.0810 -0.9967
vn 0.5572 -0.6745 0.4843
vn -0.8989 0.3300 -0.2882
vn -0.9468 0.0502 -0.3178
vn 0.0704 0.0317 -0.9970
vn 0.0679 -0.0431 0.9968
vn 0.5562 -0.7867 0.2679
vn 0.3777 -0.5075 0.7744
vn 0.4428 0.3711 0.8162
vn 0.1802 0.9784 0.1015
vn -0.9380 0.1541 -0.3104
vn -0.7959 -0.3260 -0.5102
vn -0.0363 -0.0188 0.9992
vn -0.0133 0.0520 -0.9986
vn 0.1757 -0.9202 0.3497
vn -0.5098 0.8517 -0.1216
vn -0.6996 -0.3486 -0.6237
vn -0.0324 -0.0135 0.9994
vn -0.0087 0.0260 -0.9996
vn 0.5185 -0.8051 0.2880
vn 0.8449 0.2394 0.4783
vn 0.9017 0.4182 0.1101
vn 0.6983 0.5792 0.4206
vn -0.9194 -0.1995 -0.3390
vn -0.0330 -0.0108 0.9994
vn -0.0141 0.0182 -0.9997
vn 0.7969 -0.6006 -0.0641
vn 0.4960 0.7244 -0.4788
vn 0.3514 0.7504 -0.5598
vn -0.4336 0.7339 -0.5229
vn -0.9433 -0.2153 -0.2527
vn -0.0303 -0.0091 0.9995
vn 0.0395 -0.0203 0.9990
vn 0.6611 -0.7440 0.0973
vn -0.5599 0.0728 -0.8253
vn -0.8773 -0.2993 -0.3751
vn -0.0236 -0.0117 0.9997
vn -0.0124 0.0391 -0.9992
vn 0.1044 -0.8194 0.5637
vn -0.2427 0.5833 -0.7752
vn -0.8394 -0.3189 -0.4401
vn -0.0160 -0.0063 0.9999
vn -0.0041 0.0306 -0.9995
vn -0.0104 -0.5813 0.8136
vn 0.8962 0.0454 0.4413
vn 0.8881 0.0003 -0.4597
vn 0.5476 0.7678 -0.3326
vn -0.9996 0.0283 0.0058
vn 0.0145 -0.0014 -0.9999
vn 0.0023 0.0140 -0.9999
vn -0.0253 0.0351 0.9991
vn 0.5100 0.3703 -0.7764
vn -0.8805 0.2910 0.3743
vn 0.0118 -0.0038 -0.9999
vn 0.0017 0.0074 -1.0000
vn 0.0641 -0.2724 0.9600
vn 0.4950 0.3201 -0.8078
vn 0.1282 0.5966 -0.7922
vn -0.9629 0.1656 0.2130
vn 0.0085 0.0003 -1.0000
vn -0.0011 0.0096 -1.0000
vn 0.0116 -0.5345 0.8451
vn -0.9755 0.1749 -0.1332
vn -0.0084 -0.0034 1.0000
vn 0.0006 0.0052 -1.0000
vn -0.0646 -0.3090 0.9489
vn 0.8131 0.5287 -0.2435
vn 0.2947 0.1004 -0.9503
vn -0.7296 -0.2840 -0.6221
vn -0.0107 -0.0055 0.9999
vn 0.0005 0.0039 -1.0000
vn -0.0743 -0.5001 0.8628
vn -0.7710 -0.3612 -0.5245
vn -0.0145 -0.0064 0.9999
vn 0.0000 0.0050 -1.0000
vn 0.0445 -0.7125 0.7002
vn -0.9162 0.0211 -0.4002
vn 0.0320 -0.0060 -0.9995
usemtl space_asteroids_02_l_0001
s 1
f 1/1/1 2/2/2 3/3/3
f 3/3/3 2/2/2 4/4/4
f 3/3/3 4/4/4 5/5/5
f 288/6/6 5/5/5 312/7/7
f 6/8/8 7/9/9 8/10/10
f 9/11/11 8/10/10 19/12/12
f 9/11/11 19/12/12 10/13/13
f 10/13/13 11/14/14 12/15/15
f 12/15/15 11/14/14 13/16/16
f 12/15/15 13/16/16 14/17/17
f 14/17/17 13/16/16 15/18/18
f 2/2/2 16/19/19 4/4/4
f 4/4/4 16/19/19 17/20/20
f 4/4/4 17/20/20 5/5/5
f 8/10/10 7/9/9 18/21/21
f 8/10/10 18/21/21 19/12/12
f 13/16/16 11/14/14 21/22/22
f 13/16/16 21/22/22 15/18/18
f 15/18/18 21/22/22 22/23/23
f 16/19/19 23/24/24 17/20/20
f 17/20/20 23/24/24 24/25/25
f 17/20/20 24/25/25 5/5/5
f 10/13/13 19/12/12 31/26/26
f 10/13/13 31/26/26 20/27/27
f 20/27/27 11/14/14 10/13/13
f 21/22/22 11/14/14 25/28/28
f 21/22/22 25/28/28 22/23/23
f 22/23/23 25/28/28 26/29/29
f 23/24/24 27/30/30 24/25/25
f 24/25/25 27/30/30 28/31/31
f 24/25/25 28/31/31 5/5/5
f 5/5/5 28/31/31 29/32/32
f 5/5/5 30/33/33 6/8/8
f 6/8/8 30/33/33 7/9/9
f 19/12/12 18/21/21 31/26/26
f 25/28/28 11/14/14 32/34/34
f 25/28/28 32/34/34 26/29/29
f 26/29/29 32/34/34 33/35/35
f 27/30/30 34/36/36 28/31/31
f 28/31/31 34/36/36 35/37/37
f 28/31/31 35/37/37 29/32/32
f 5/5/5 29/32/32 30/33/33
f 7/9/9 41/38/38 18/21/21
f 20/27/27 31/26/26 36/39/39
f 20/27/27 36/39/39 11/14/14
f 32/34/34 11/14/14 37/40/40
f 32/34/34 37/40/40 33/35/35
f 33/35/35 37/40/40 38/41/41
f 34/36/36 39/42/42 35/37/37
f 35/37/37 39/42/42 40/43/43
f 35/37/37 40/43/43 29/32/32
f 7/9/9 30/33/33 41/38/38
f 41/38/38 42/44/44 18/21/21
f 18/21/21 43/45/45 31/26/26
f 31/26/26 43/45/45 36/39/39
f 37/40/40 11/14/14 44/46/46
f 37/40/40 44/46/46 38/41/41
f 38/41/41 44/46/46 45/47/47
f 39/42/42 46/48/48 40/43/43
f 40/43/43 46/48/48 47/49/49
f 40/43/43 47/49/49 29/32/32
f 36/39/39 43/45/45 48/50/50
f 11/14/14 36/39/39 48/50/50
f 11/14/14 48/50/50 44/46/46
f 44/46/46 48/50/50 49/51/51
f 44/46/46 49/51/51 45/47/47
f 45/47/47 49/51/51 50/52/52
f 46/48/48 51/53/53 47/49/49
f 47/49/49 51/53/53 52/54/54
f 47/49/49 52/54/54 29/32/32
f 30/33/33 53/55/55 41/38/38
f 18/21/21 42/44/44 54/56/56
f 18/21/21 54/56/56 43/45/45
f 43/45/45 54/56/56 55/57/57
f 43/45/45 55/57/57 48/50/50
f 49/51/51 48/50/50 56/58/58
f 49/51/51 56/58/58 50/52/52
f 50/52/52 56/58/58 57/59/59
f 51/53/53 58/60/60 52/54/54
f 52/54/54 58/60/60 59/61/61
f 52/54/54 59/61/61 29/32/32
f 29/32/32 59/61/61 60/62/62
f 29/32/32 60/62/62 30/33/33
f 41/38/38 53/55/55 61/63/63
f 48/50/50 68/64/64 56/58/58
f 56/58/58 68/64/64 62/65/65
f 56/58/58 62/65/65 57/59/59
f 57/59/59 62/65/65 63/66/66
f 58/60/60 64/67/67 59/61/61
f 59/61/61 64/67/67 65/68/68
f 59/61/61 65/68/68 60/62/62
f 30/33/33 60/62/62 53/55/55
f 41/38/38 61/63/63 42/44/44
f 48/50/50 55/57/57 67/69/69
f 48/50/50 67/69/69 68/64/64
f 62/65/65 68/64/64 69/70/70
f 62/65/65 69/70/70 63/66/66
f 63/66/66 69/70/70 70/71/71
f 64/67/67 71/72/72 65/68/68
f 65/68/68 71/72/72 72/73/73
f 65/68/68 72/73/73 60/62/62
f 53/55/55 60/62/62 73/74/74
f 55/57/57 54/56/56 66/75/75
f 55/57/57 66/75/75 67/69/69
f 68/64/64 81/76/76 69/70/70
f 69/70/70 81/76/76 74/77/77
f 69/70/70 74/77/77 70/71/71
f 70/71/71 74/77/77 75/78/78
f 71/72/72 76/79/79 72/73/73
f 72/73/73 76/79/79 77/80/80
f 72/73/73 77/80/80 60/62/62
f 53/55/55 73/74/74 61/63/63
f 61/63/63 78/81/81 79/82/82
f 42/44/44 61/63/63 54/56/56
f 66/75/75 80/83/83 67/69/69
f 67/69/69 81/76/76 68/64/64
f 74/77/77 81/76/76 82/84/84
f 74/77/77 82/84/84 75/78/78
f 75/78/78 82/84/84 83/85/85
f 76/79/79 84/86/86 77/80/80
f 77/80/80 84/86/86 85/87/87
f 77/80/80 85/87/87 60/62/62
f 60/62/62 86/88/88 73/74/74
f 61/63/63 73/74/74 78/81/81
f 61/63/63 79/82/82 54/56/56
f 54/56/56 87/89/89 66/75/75
f 67/69/69 80/83/83 81/76/76
f 82/84/84 81/76/76 89/90/90
f 82/84/84 89/90/90 83/85/85
f 83/85/85 89/90/90 90/91/91
f 84/86/86 91/92/92 85/87/87
f 85/87/87 91/92/92 92/93/93
f 85/87/87 92/93/93 60/62/62
f 60/62/62 92/93/93 86/88/88
f 79/82/82 78/81/81 93/94/94
f 79/82/82 93/94/94 87/89/89
f 79/82/82 87/89/89 54/56/56
f 87/89/89 94/95/95 66/75/75
f 66/75/75 94/95/95 95/96/96
f 66/75/75 95/96/96 80/83/83
f 80/83/83 96/97/97 81/76/76
f 81/76/76 96/97/97 88/98/98
f 81/76/76 88/98/98 97/99/99
f 81/76/76 97/99/99 89/90/90
f 89/90/90 97/99/99 98/100/100
f 89/90/90 98/100/100 90/91/91
f 90/91/91 98/100/100 99/101/101
f 91/92/92 100/102/102 92/93/93
f 92/93/93 100/102/102 101/103/103
f 92/93/93 101/103/103 86/88/88
f 80/83/83 95/96/96 96/97/97
f 98/100/100 97/99/99 102/104/104
f 98/100/100 102/104/104 99/101/101
f 99/101/101 102/104/104 103/105/105
f 100/102/102 104/106/106 101/103/103
f 101/103/103 104/106/106 105/107/107
f 101/103/103 105/107/107 86/88/88
f 73/74/74 86/88/88 106/108/108
f 73/74/74 106/108/108 78/81/81
f 93/94/94 107/109/109 87/89/89
f 87/89/89 108/110/110 94/95/95
f 95/96/96 109/111/111 96/97/97
f 88/98/98 110/112/112 97/99/99
f 102/104/104 97/99/99 111/113/113
f 102/104/104 111/113/113 103/105/105
f 103/105/105 111/113/113 112/114/114
f 104/106/106 113/115/115 105/107/107
f 105/107/107 113/115/115 114/116/116
f 105/107/107 114/116/116 86/88/88
f 78/81/81 106/108/108 93/94/94
f 87/89/89 107/109/109 108/110/110
f 108/110/110 115/117/117 94/95/95
f 94/95/95 115/117/117 95/96/96
f 95/96/96 115/117/117 116/118/118
f 96/97/97 109/111/111 117/119/119
f 96/97/97 117/119/119 88/98/98
f 88/98/98 117/119/119 110/112/112
f 111/113/113 97/99/99 118/120/120
f 111/113/113 118/120/120 112/114/114
f 112/114/114 118/120/120 119/121/121
f 113/115/115 120/122/122 114/116/116
f 114/116/116 120/122/122 121/123/123
f 114/116/116 121/123/123 86/88/88
f 93/94/94 106/108/108 107/109/109
f 107/109/109 122/124/124 108/110/110
f 95/96/96 116/118/118 109/111/111
f 118/120/120 97/99/99 123/125/125
f 118/120/120 123/125/125 119/121/121
f 119/121/121 123/125/125 124/126/126
f 120/122/122 125/127/127 121/123/123
f 121/123/123 125/127/127 126/128/128
f 121/123/123 126/128/128 86/88/88
f 86/88/88 127/129/129 106/108/108
f 115/117/117 128/130/130 116/118/118
f 123/125/125 97/99/99 129/131/131
f 123/125/125 129/131/131 124/126/126
f 124/126/126 129/131/131 130/132/132
f 125/127/127 131/133/133 126/128/128
f 126/128/128 131/133/133 132/134/134
f 126/128/128 132/134/134 86/88/88
f 107/109/109 133/135/135 122/124/124
f 122/124/124 134/136/136 108/110/110
f 117/119/119 109/111/111 135/137/137
f 117/119/119 135/137/137 110/112/112
f 97/99/99 110/112/112 136/138/138
f 97/99/99 136/138/138 129/131/131
f 129/131/131 136/138/138 137/139/139
f 129/131/131 137/139/139 130/132/132
f 130/132/132 137/139/139 138/140/140
f 131/133/133 139/141/141 132/134/134
f 132/134/134 139/141/141 140/142/142
f 132/134/134 140/142/142 86/88/88
f 86/88/88 140/142/142 127/129/129
f 106/108/108 127/129/129 141/143/143
f 107/109/109 106/108/108 133/135/135
f 108/110/110 134/136/136 115/117/117
f 109/111/111 116/118/118 142/144/144
f 135/137/137 143/145/145 110/112/112
f 137/139/139 136/138/138 144/146/146
f 137/139/139 144/146/146 138/140/140
f 138/140/140 144/146/146 145/147/147
f 139/141/141 146/148/148 140/142/142
f 140/142/142 146/148/148 147/149/149
f 140/142/142 147/149/149 127/129/129
f 106/108/108 141/143/143 133/135/135
f 115/117/117 134/136/136 128/130/130
f 109/111/111 142/144/144 135/137/137
f 110/112/112 143/145/145 136/138/138
f 144/146/146 136/138/138 148/150/150
f 144/146/146 148/150/150 145/147/147
f 145/147/147 148/150/150 149/151/151
f 146/148/148 150/152/152 147/149/149
f 147/149/149 150/152/152 151/153/153
f 147/149/149 151/153/153 127/129/129
f 122/124/124 133/135/135 134/136/136
f 116/118/118 128/130/130 152/154/154
f 116/118/118 152/154/154 142/144/144
f 135/137/137 142/144/144 143/145/145
f 148/150/150 136/138/138 153/155/155
f 148/150/150 153/155/155 149/151/151
f 149/151/151 153/155/155 154/156/156
f 150/152/152 155/157/157 151/153/153
f 151/153/153 155/157/157 156/158/158
f 151/153/153 156/158/158 127/129/129
f 134/136/136 152/154/154 128/130/130
f 153/155/155 136/138/138 157/159/159
f 153/155/155 157/159/159 154/156/156
f 154/156/156 157/159/159 158/160/160
f 155/157/157 159/161/161 156/158/158
f 156/158/158 159/161/161 160/162/162
f 156/158/158 160/162/162 127/129/129
f 133/135/135 161/163/163 134/136/136
f 134/136/136 162/164/164 152/154/154
f 143/145/145 163/165/165 136/138/138
f 136/138/138 163/165/165 164/166/166
f 157/159/159 136/138/138 165/167/167
f 157/159/159 165/167/167 158/160/160
f 158/160/160 165/167/167 166/168/168
f 159/161/161 167/169/169 160/162/162
f 160/162/162 167/169/169 168/170/170
f 160/162/162 168/170/170 127/129/129
f 141/143/143 161/163/163 133/135/135
f 134/136/136 161/163/163 162/164/164
f 142/144/144 169/171/171 143/145/145
f 143/145/145 169/171/171 163/165/165
f 136/138/138 164/166/166 165/167/167
f 165/167/167 164/166/166 170/172/172
f 165/167/167 170/172/172 166/168/168
f 166/168/168 170/172/172 171/173/173
f 167/169/169 172/174/174 168/170/170
f 168/170/170 172/174/174 173/175/175
f 168/170/170 173/175/175 127/129/129
f 141/143/143 127/129/129 174/176/176
f 141/143/143 174/176/176 161/163/163
f 162/164/164 161/163/163 176/177/177
f 162/164/164 176/177/177 152/154/154
f 152/154/154 176/177/177 177/178/178
f 152/154/154 177/178/178 142/144/144
f 142/144/144 177/178/178 169/171/171
f 163/165/165 179/179/179 164/166/166
f 170/172/172 164/166/166 180/180/180
f 170/172/172 180/180/180 171/173/173
f 171/173/173 180/180/180 181/181/181
f 172/174/174 182/182/182 173/175/175
f 173/175/175 182/182/182 183/183/183
f 173/175/175 183/183/183 127/129/129
f 161/163/163 175/184/184 176/177/177
f 169/171/171 178/185/185 163/165/165
f 163/165/165 178/185/185 179/179/179
f 180/180/180 164/166/166 184/186/186
f 180/180/180 184/186/186 181/181/181
f 181/181/181 184/186/186 185/187/187
f 182/182/182 186/188/188 183/183/183
f 183/183/183 186/188/188 187/189/189
f 183/183/183 187/189/189 127/129/129
f 161/163/163 174/176/176 175/184/184
f 169/171/171 177/178/178 188/190/190
f 169/171/171 188/190/190 178/185/185
f 184/186/186 164/166/166 189/191/191
f 184/186/186 189/191/191 185/187/187
f 185/187/187 189/191/191 190/192/192
f 186/188/188 191/193/193 187/189/189
f 187/189/189 191/193/193 192/194/194
f 187/189/189 192/194/194 127/129/129
f 178/185/185 188/190/190 193/195/195
f 178/185/185 193/195/195 194/196/196
f 178/185/185 194/196/196 179/179/179
f 189/191/191 164/166/166 195/197/197
f 189/191/191 195/197/197 190/192/192
f 190/192/192 195/197/197 196/198/198
f 191/193/193 197/199/199 192/194/194
f 192/194/194 197/199/199 198/200/200
f 192/194/194 198/200/200 127/129/129
f 174/176/176 127/129/129 199/201/201
f 176/177/177 175/184/184 200/202/202
f 176/177/177 200/202/202 177/178/178
f 195/197/197 164/166/166 201/203/203
f 195/197/197 201/203/203 196/198/198
f 196/198/198 201/203/203 202/204/204
f 197/199/199 203/205/205 198/200/200
f 198/200/200 203/205/205 204/206/206
f 198/200/200 204/206/206 127/129/129
f 127/129/129 204/206/206 205/207/207
f 127/129/129 205/207/207 199/201/201
f 174/176/176 199/201/201 175/184/184
f 188/190/190 177/178/178 193/195/195
f 179/179/179 194/196/196 206/208/208
f 164/166/166 207/209/209 201/203/203
f 201/203/203 207/209/209 208/210/210
f 201/203/203 208/210/210 202/204/204
f 202/204/204 208/210/210 209/211/211
f 203/205/205 210/212/212 204/206/206
f 204/206/206 210/212/212 211/213/213
f 204/206/206 211/213/213 205/207/207
f 199/201/201 212/214/214 175/184/184
f 175/184/184 212/214/214 200/202/202
f 200/202/202 213/215/215 177/178/178
f 177/178/178 213/215/215 193/195/195
f 193/195/195 213/215/215 214/216/216
f 193/195/195 214/216/216 194/196/196
f 179/179/179 206/208/208 164/166/166
f 164/166/166 206/208/208 207/209/209
f 208/210/210 207/209/209 215/217/217
f 208/210/210 215/217/217 209/211/211
f 209/211/211 215/217/217 216/218/218
f 210/212/212 217/219/219 211/213/213
f 211/213/213 217/219/219 218/220/220
f 211/213/213 218/220/220 205/207/207
f 212/214/214 199/201/201 219/221/221
f 200/202/202 212/214/214 220/222/222
f 200/202/202 220/222/222 213/215/215
f 215/217/217 207/209/209 221/223/223
f 215/217/217 221/223/223 216/218/218
f 216/218/218 221/223/223 222/224/224
f 217/219/219 223/225/225 218/220/220
f 218/220/220 223/225/225 224/226/226
f 218/220/220 224/226/226 205/207/207
f 212/214/214 219/221/221 220/222/222
f 194/196/196 214/216/216 225/227/227
f 194/196/196 225/227/227 206/208/208
f 206/208/208 225/227/227 226/228/228
f 206/208/208 226/228/228 207/209/209
f 221/223/223 207/209/209 227/229/229
f 221/223/223 227/229/229 222/224/224
f 222/224/224 227/229/229 228/230/230
f 223/225/225 229/231/231 224/226/226
f 224/226/226 229/231/231 230/232/232
f 224/226/226 230/232/232 205/207/207
f 227/229/229 207/209/209 231/233/233
f 227/229/229 231/233/233 228/230/230
f 228/230/230 231/233/233 232/234/234
f 229/231/231 233/235/235 230/232/232
f 230/232/232 233/235/235 234/236/236
f 230/232/232 234/236/236 205/207/207
f 199/201/201 205/207/207 235/237/237
f 199/201/201 235/237/237 219/221/221
f 219/221/221 236/238/238 220/222/222
f 220/222/222 237/239/239 213/215/215
f 213/215/215 238/240/240 214/216/216
f 214/216/216 238/240/240 239/241/241
f 214/216/216 239/241/241 225/227/227
f 207/209/209 226/228/228 240/242/242
f 207/209/209 240/242/242 231/233/233
f 231/233/233 240/242/242 241/243/243
f 231/233/233 241/243/243 232/234/234
f 232/234/234 241/243/243 242/244/244
f 233/235/235 243/245/245 234/236/236
f 234/236/236 243/245/245 244/246/246
f 234/236/236 244/246/246 205/207/207
f 205/207/207 244/246/246 235/237/237
f 219/221/221 235/237/237 236/238/238
f 220/222/222 236/238/238 237/239/239
f 225/227/227 239/241/241 226/228/228
f 241/243/243 240/242/242 245/247/247
f 241/243/243 245/247/247 242/244/244
f 242/244/244 245/247/247 246/248/248
f 243/245/245 247/249/249 244/246/246
f 244/246/246 247/249/249 248/250/250
f 244/246/246 248/250/250 235/237/237
f 213/215/215 237/239/239 249/251/251
f 213/215/215 249/251/251 238/240/240
f 239/241/241 238/240/240 250/252/252
f 239/241/241 250/252/252 251/253/253
f 239/241/241 251/253/253 226/228/228
f 226/228/228 251/253/253 252/254/254
f 245/247/247 240/242/242 253/255/255
f 245/247/247 253/255/255 246/248/248
f 246/248/248 253/255/255 254/256/256
f 247/249/249 255/257/257 248/250/250
f 248/250/250 255/257/257 256/258/258
f 248/250/250 256/258/258 235/237/237
f 226/228/228 252/254/254 257/259/259
f 226/228/228 257/259/259 240/242/242
f 253/255/255 240/242/242 258/260/260
f 253/255/255 258/260/260 254/256/256
f 254/256/256 258/260/260 259/261/261
f 255/257/257 260/262/262 256/258/258
f 256/258/258 260/262/262 261/263/263
f 256/258/258 261/263/263 235/237/237
f 235/237/237 261/263/263 262/264/264
f 235/237/237 262/264/264 236/238/238
f 236/238/238 262/264/264 263/265/265
f 236/238/238 263/265/265 237/239/239
f 238/240/240 264/266/266 250/252/252
f 250/252/252 264/266/266 251/253/253
f 251/253/253 264/266/266 252/254/254
f 240/242/242 257/259/259 265/267/267
f 240/242/242 265/267/267 258/260/260
f 258/260/260 265/267/267 266/268/268
f 258/260/260 266/268/268 259/261/261
f 259/261/261 266/268/268 267/269/269
f 260/262/262 268/270/270 261/263/263
f 261/263/263 268/270/270 269/271/271
f 261/263/263 269/271/271 262/264/264
f 237/239/239 263/265/265 249/251/251
f 252/254/254 264/266/266 270/272/272
f 252/254/254 270/272/272 257/259/259
f 266/268/268 265/267/267 271/273/273
f 266/268/268 271/273/273 267/269/269
f 267/269/269 271/273/273 272/274/274
f 268/270/270 273/275/275 269/271/271
f 269/271/271 273/275/275 274/276/276
f 269/271/271 274/276/276 262/264/264
f 263/265/265 262/264/264 275/277/277
f 263/265/265 275/277/277 276/278/278
f 263/265/265 276/278/278 277/279/279
f 263/265/265 277/279/279 249/251/251
f 249/251/251 277/279/279 238/240/240
f 257/259/259 270/272/272 265/267/267
f 271/273/273 265/267/267 278/280/280
f 271/273/273 278/280/280 272/274/274
f 272/274/274 278/280/280 279/281/281
f 273/275/275 280/282/282 274/276/276
f 274/276/276 280/282/282 281/283/283
f 274/276/276 281/283/283 262/264/264
f 238/240/240 277/279/279 282/284/284
f 238/240/240 282/284/284 264/266/266
f 270/272/272 264/266/266 289/285/285
f 270/272/272 289/285/285 283/286/286
f 278/280/280 265/267/267 284/287/287
f 278/280/280 284/287/287 279/281/281
f 279/281/281 284/287/287 285/288/288
f 280/282/282 286/289/289 281/283/283
f 281/283/283 286/289/289 287/290/290
f 281/283/283 287/290/290 262/264/264
f 262/264/264 288/6/6 275/277/277
f 270/272/272 283/286/286 265/267/267
f 265/267/267 283/286/286 290/291/291
f 265/267/267 290/291/291 284/287/287
f 284/287/287 290/291/291 291/292/292
f 284/287/287 291/292/292 285/288/288
f 285/288/288 291/292/292 292/293/293
f 286/289/289 293/294/294 287/290/290
f 287/290/290 293/294/294 294/295/295
f 287/290/290 294/295/295 262/264/264
f 262/264/264 294/295/295 288/6/6
f 283/286/286 295/296/296 290/291/291
f 291/292/292 290/291/291 296/297/297
f 291/292/292 296/297/297 292/293/293
f 292/293/293 296/297/297 297/298/298
f 293/294/294 298/299/299 294/295/295
f 294/295/295 298/299/299 299/300/300
f 294/295/295 299/300/300 288/6/6
f 275/277/277 288/6/6 276/278/278
f 277/279/279 276/278/278 300/301/301
f 277/279/279 301/302/302 302/303/303
f 277/279/279 302/303/303 282/284/284
f 264/266/266 282/284/284 289/285/285
f 296/297/297 290/291/291 303/304/304
f 296/297/297 303/304/304 297/298/298
f 297/298/298 303/304/304 304/305/305
f 298/299/299 305/306/306 299/300/300
f 299/300/300 305/306/306 306/307/307
f 299/300/300 306/307/307 288/6/6
f 277/279/279 300/301/301 301/302/302
f 282/284/284 307/308/308 289/285/285
f 303/304/304 290/291/291 308/309/309
f 303/304/304 308/309/309 304/305/305
f 304/305/305 308/309/309 309/310/310
f 305/306/306 310/311/311 306/307/307
f 306/307/307 310/311/311 311/312/312
f 306/307/307 311/312/312 288/6/6
f 276/278/278 288/6/6 312/7/7
f 282/284/284 302/303/303 313/313/313
f 289/285/285 307/308/308 314/314/314
f 283/286/286 289/285/285 314/314/314
f 283/286/286 314/314/314 295/296/296
f 308/309/309 290/291/291 315/315/315
f 308/309/309 315/315/315 309/310/310
f 309/310/310 315/315/315 316/316/316
f 310/311/311 317/317/317 311/312/312
f 311/312/312 317/317/317 318/318/318
f 311/312/312 318/318/318 288/6/6
f 302/303/303 301/302/302 313/313/313
f 282/284/284 313/313/313 307/308/308
f 295/296/296 314/314/314 290/291/291
f 315/315/315 290/291/291 319/319/319
f 315/315/315 319/319/319 316/316/316
f 316/316/316 319/319/319 320/320/320
f 317/317/317 321/321/321 318/318/318
f 318/318/318 321/321/321 322/322/322
f 318/318/318 322/322/322 288/6/6
f 276/278/278 312/7/7 323/323/323
f 276/278/278 323/323/323 300/301/301
f 300/301/301 323/323/323 301/302/302
f 301/302/302 323/323/323 324/324/324
f 307/308/308 9/11/11 314/314/314
f 290/291/291 314/314/314 10/13/13
f 290/291/291 10/13/13 319/319/319
f 319/319/319 10/13/13 325/325/325
f 319/319/319 325/325/325 320/320/320
f 320/320/320 325/325/325 326/326/326
f 321/321/321 327/327/327 322/322/322
f 322/322/322 327/327/327 328/328/328
f 322/322/322 328/328/328 288/6/6
f 301/302/302 324/324/324 313/313/313
f 325/325/325 10/13/13 329/329/329
f 325/325/325 329/329/329 326/326/326
f 326/326/326 329/329/329 330/330/330
f 327/327/327 331/331/331 328/328/328
f 328/328/328 331/331/331 332/332/332
f 328/328/328 332/332/332 288/6/6
f 323/323/323 5/5/5 324/324/324
f 307/308/308 313/313/313 9/11/11
f 329/329/329 10/13/13 333/333/333
f 329/329/329 333/333/333 330/330/330
f 330/330/330 333/333/333 334/334/334
f 331/331/331 1/1/1 332/332/332
f 332/332/332 1/1/1 3/3/3
f 332/332/332 3/3/3 288/6/6
f 288/6/6 3/3/3 5/5/5
f 312/7/7 5/5/5 323/323/323
f 5/5/5 6/8/8 324/324/324
f 324/324/324 6/8/8 313/313/313
f 313/313/313 6/8/8 8/10/10
f 313/313/313 8/10/10 9/11/11
f 9/11/11 10/13/13 314/314/314
f 333/333/333 10/13/13 12/15/15
f 333/333/333 12/15/15 334/334/334
f 334/334/334 12/15/15 14/17/17
