# Blender v2.93.1 OBJ File: ''
# www.blender.org
mtllib asteroid2.mtl
o asteroid_2
v 0.062578 0.243742 -0.230256
v 0.062578 0.243742 -0.230256
v 0.036218 0.265862 -0.273276
v 0.038088 0.268921 -0.276926
v -0.140451 0.319153 -0.378135
v -0.172539 0.239278 -0.375293
v -0.365888 0.242079 -0.548601
v -0.449262 0.050358 -0.704625
v -0.590902 -0.359541 -0.477824
v -0.418921 -0.312065 -0.331849
v -0.468975 -0.398611 -0.170461
v -0.704974 -0.628874 -0.117191
v -0.677902 -0.603112 0.103102
v -0.505114 -0.679459 0.272068
v -0.201511 -0.458055 0.392174
v -0.165832 -0.366777 0.419964
v -0.162392 -0.385218 0.413794
v -0.148232 -0.268848 0.392594
v -0.148232 -0.268848 0.392594
v 0.062578 0.243742 -0.230256
v 0.040468 0.271082 -0.280376
v -0.333530 0.131086 -0.743042
v -0.588960 -0.669751 -0.044582
v -0.161662 -0.403748 0.408254
v -0.148232 -0.268848 0.392594
v 0.062578 0.243742 -0.230256
v 0.043368 0.272112 -0.283706
v -0.353043 -0.680407 0.372773
v -0.163342 -0.422939 0.404464
v -0.148232 -0.268848 0.392594
v 0.062578 0.243742 -0.230256
v 0.046728 0.272432 -0.287206
v -0.292701 -0.323587 -0.062236
v -0.165932 -0.440918 0.402114
v -0.148232 -0.268848 0.392594
v 0.062578 0.243742 -0.230256
v 0.050438 0.272501 -0.290996
v -0.108984 0.234453 -0.467911
v -0.310904 -0.394157 -0.018478
v -0.168082 -0.453978 0.400714
v -0.148232 -0.268848 0.392594
v 0.062578 0.243742 -0.230256
v 0.054348 0.272451 -0.294936
v -0.385803 -0.396921 -0.631652
v -0.230376 -0.385520 -0.366972
v -0.170352 -0.458588 0.399554
v -0.148232 -0.268848 0.392594
v 0.062578 0.243742 -0.230256
v 0.058538 0.272242 -0.298966
v -0.174392 -0.454428 0.398114
v -0.148232 -0.268848 0.392594
v 0.062578 0.243742 -0.230256
v 0.063148 0.271853 -0.303166
v -0.122123 -0.004283 -0.671716
v -0.177892 -0.443108 0.394994
v -0.148232 -0.268848 0.392594
v 0.062578 0.243742 -0.230256
v 0.068278 0.271212 -0.307596
v 0.131361 0.246858 -0.448361
v 0.018166 0.164031 -0.381355
v -0.147970 -0.357072 0.110811
v -0.175452 -0.424919 0.386324
v -0.148232 -0.268848 0.392594
v 0.062578 0.243742 -0.230256
v 0.073828 0.270201 -0.312166
v -0.087244 -0.427523 -0.125804
v -0.082315 -0.420265 0.255266
v -0.167042 -0.401638 0.371274
v -0.148232 -0.268848 0.392594
v 0.062578 0.243742 -0.230256
v 0.079658 0.268751 -0.316676
v -0.164844 -0.503337 -0.623951
v -0.156992 -0.379318 0.356024
v -0.148232 -0.268848 0.392594
v 0.062578 0.243742 -0.230256
v 0.085648 0.266811 -0.320886
v -0.148492 -0.363409 0.346264
v -0.148232 -0.268848 0.392594
v 0.062578 0.243742 -0.230256
v 0.091738 0.264261 -0.324466
v 0.261139 0.095963 -0.678399
v 0.318232 -0.125543 -0.652478
v 0.113511 -0.517110 -0.542037
v -0.054898 -0.703572 -0.428289
v 0.077938 -0.449710 0.170610
v -0.142642 -0.355537 0.343404
v -0.148232 -0.268848 0.392594
v 0.062578 0.243742 -0.230256
v 0.098038 0.260881 -0.326946
v 0.215233 0.280563 -0.542034
v 0.095225 -0.667636 -0.102482
v -0.138312 -0.349848 0.342934
v -0.148232 -0.268848 0.392594
v 0.062578 0.243742 -0.230256
v 0.103908 0.256882 -0.327466
v 0.351269 0.189689 -0.504077
v 0.247218 -0.220597 -0.475812
v 0.245008 -0.548799 -0.173853
v -0.132742 -0.334108 0.334234
v -0.148232 -0.268848 0.392594
v 0.062578 0.243742 -0.230256
v 0.109588 0.252161 -0.325646
v 0.589657 0.055840 -0.576923
v 0.210239 -0.268954 -0.301730
v -0.046901 -0.267489 0.246620
v -0.123062 -0.308649 0.316884
v -0.148232 -0.268848 0.392594
v 0.062578 0.243742 -0.230256
v 0.115288 0.246761 -0.321266
v 0.599975 -0.109774 -0.491648
v 0.317608 -0.399580 0.055652
v -0.110172 -0.285978 0.300964
v -0.148232 -0.268848 0.392594
v 0.062578 0.243742 -0.230256
v 0.121228 0.240952 -0.314416
v 0.386647 0.364521 -0.349112
v 0.307279 -0.391424 -0.156569
v 0.041417 -0.247602 0.213121
v -0.096842 -0.271698 0.289434
v -0.148232 -0.268848 0.392594
v 0.062578 0.243742 -0.230256
v 0.127298 0.235373 -0.305476
v 0.333802 0.415078 -0.316867
v 0.463716 0.216801 -0.342060
v 0.602195 -0.087891 -0.272121
v -0.084952 -0.265299 0.281544
v -0.148232 -0.268848 0.392594
v 0.062578 0.243742 -0.230256
v 0.132978 0.230871 -0.295036
v 0.714877 0.126608 -0.389656
v 0.604643 -0.249314 -0.116677
v 0.533279 -0.547116 0.001812
v 0.487660 -0.569486 0.287001
v 0.442691 -0.448951 0.390264
v -0.075512 -0.263439 0.276074
v -0.148232 -0.268848 0.392594
v 0.062578 0.243742 -0.230256
v 0.137468 0.228062 -0.283676
v -0.068582 -0.262409 0.272134
v -0.148232 -0.268848 0.392594
v 0.062578 0.243742 -0.230256
v 0.140248 0.227091 -0.271796
v -0.063452 -0.260828 0.270144
v -0.148232 -0.268848 0.392594
v 0.062578 0.243742 -0.230256
v 0.141288 0.227831 -0.259636
v 0.755143 0.324411 -0.275095
v 0.715886 -0.362483 0.147859
v 0.541693 -0.372281 0.250347
v 0.209705 -0.190371 0.299923
v -0.059112 -0.258808 0.270334
v -0.148232 -0.268848 0.392594
v 0.062578 0.243742 -0.230256
v 0.140868 0.230131 -0.247266
v 0.423094 0.367030 -0.225584
v -0.054562 -0.256119 0.271684
v -0.148232 -0.268848 0.392594
v 0.062578 0.243742 -0.230256
v 0.139108 0.233862 -0.234886
v 0.775207 0.007208 -0.039537
v 0.579923 -0.366977 0.515327
v 0.437858 -0.296373 0.595137
v -0.049352 -0.251608 0.272524
v -0.148232 -0.268848 0.392594
v 0.062578 0.243742 -0.230256
v 0.135698 0.238901 -0.222956
v 0.761879 0.362818 -0.112240
v -0.043842 -0.244869 0.273154
v -0.148232 -0.268848 0.392594
v 0.062578 0.243742 -0.230256
v 0.129808 0.245152 -0.211966
v 0.797000 -0.099077 0.408484
v -0.039152 -0.238298 0.277044
v -0.148232 -0.268848 0.392594
v 0.062578 0.243742 -0.230256
v 0.121238 0.251831 -0.202926
v 0.430134 -0.081711 0.494171
v 0.232583 -0.124909 0.468882
v 0.048737 -0.119969 0.435241
v -0.036942 -0.235079 0.286614
v -0.148232 -0.268848 0.392594
v 0.062578 0.243742 -0.230256
v 0.110578 0.257822 -0.196286
v 0.152944 0.341227 -0.130209
v 0.249600 0.482312 -0.185912
v 0.673910 0.499285 0.195785
v 0.621866 0.062656 0.418740
v -0.037212 -0.235249 0.300604
v -0.148232 -0.268848 0.392594
v 0.062578 0.243742 -0.230256
v 0.098608 0.262241 -0.191696
v 0.701918 0.323839 0.445273
v 0.131699 -0.112042 0.500862
v -0.039072 -0.236208 0.316584
v -0.148232 -0.268848 0.392594
v 0.062578 0.243742 -0.230256
v 0.086858 0.264421 -0.188946
v 0.377884 0.554601 -0.022210
v 0.536644 0.756498 0.109482
v -0.042492 -0.234749 0.331924
v -0.148232 -0.268848 0.392594
v 0.062578 0.243742 -0.230256
v 0.077058 0.264931 -0.188236
v 0.576624 0.464732 0.627644
v 0.386737 0.211695 0.545818
v -0.047722 -0.229569 0.345354
v -0.148232 -0.268848 0.392594
v 0.062578 0.243742 -0.230256
v 0.070168 0.265661 -0.190476
v 0.145220 0.882742 -0.104402
v 0.203740 0.091611 0.480533
v 0.036099 -0.103664 0.691234
v -0.054442 -0.222439 0.357564
v -0.148232 -0.268848 0.392594
v 0.062578 0.243742 -0.230256
v 0.066058 0.268732 -0.196726
v -0.062362 -0.215658 0.369324
v -0.148232 -0.268848 0.392594
v 0.062578 0.243742 -0.230256
v 0.063838 0.274952 -0.206796
v 0.075855 0.302764 -0.203043
v 0.388583 0.586100 0.650358
v 0.212301 0.328344 0.837395
v -0.072042 -0.210299 0.381074
v -0.148232 -0.268848 0.392594
v 0.062578 0.243742 -0.230256
v 0.062318 0.282652 -0.218636
v 0.077639 0.408454 -0.168997
v 0.237509 0.781785 0.249219
v -0.085012 -0.206608 0.393814
v -0.148232 -0.268848 0.392594
v 0.062578 0.243742 -0.230256
v 0.060518 0.288712 -0.229556
v 0.091287 0.913812 -0.016089
v 0.183867 0.463324 0.755280
v 0.012158 0.126315 0.773332
v -0.106408 -0.098794 0.661837
v -0.102822 -0.205559 0.409394
v -0.148232 -0.268848 0.392594
v 0.062578 0.243742 -0.230256
v 0.057738 0.290861 -0.237796
v -0.092623 0.427229 -0.127668
v 0.041571 0.775094 0.138928
v -0.043237 0.506426 0.227877
v -0.101904 -0.010976 0.876960
v -0.192072 -0.192586 0.604005
v -0.125252 -0.209459 0.430244
v -0.148232 -0.268848 0.392594
v 0.062578 0.243742 -0.230256
v 0.053728 0.288591 -0.242886
v -0.149492 -0.218798 0.456694
v -0.148232 -0.268848 0.392594
v 0.062578 0.243742 -0.230256
v 0.048578 0.282742 -0.245336
v -0.245583 0.579174 -0.149733
v -0.151005 0.761047 -0.011289
v -0.237063 0.449276 0.464518
v -0.194029 0.161855 0.570181
v -0.170892 -0.229548 0.483344
v -0.148232 -0.268848 0.392594
v 0.062578 0.243742 -0.230256
v 0.042718 0.275011 -0.246386
v -0.434750 0.094788 0.789815
v -0.184772 -0.236988 0.501014
v -0.148232 -0.268848 0.392594
v 0.062578 0.243742 -0.230256
v 0.037548 0.268572 -0.247666
v -0.329839 0.633163 0.067910
v -0.235998 0.441665 0.195146
v -0.393061 0.315446 0.579510
v -0.560619 -0.101704 0.786201
v -0.190252 -0.241728 0.505144
v -0.148232 -0.268848 0.392594
v 0.062578 0.243742 -0.230256
v 0.033578 0.264471 -0.250106
v 0.002972 0.284586 -0.291120
v -0.303193 -0.192183 0.440358
v -0.192402 -0.247198 0.501664
v -0.148232 -0.268848 0.392594
v 0.062578 0.243742 -0.230256
v 0.031048 0.262581 -0.253556
v -0.398089 0.619633 -0.255130
v -0.399392 0.189347 0.108110
v -0.715855 0.043375 0.389567
v -0.207549 -0.288615 0.417156
v -0.193322 -0.253748 0.495274
v -0.148232 -0.268848 0.392594
v 0.062578 0.243742 -0.230256
v 0.029918 0.262362 -0.257696
v -0.332165 0.360509 -0.037140
v -0.666718 -0.103616 0.480049
v -0.193532 -0.260868 0.488014
v -0.148232 -0.268848 0.392594
v 0.062578 0.243742 -0.230256
v 0.029918 0.263172 -0.262186
v -0.591212 0.450862 -0.182567
v -0.567778 -0.204801 0.348067
v -0.193132 -0.268568 0.480144
v -0.148232 -0.268848 0.392594
v 0.062578 0.243742 -0.230256
v 0.030578 0.264261 -0.266406
v -0.794793 0.171776 -0.025602
v -0.839591 -0.348468 0.166767
v -0.497836 -0.374057 0.254172
v -0.191812 -0.276878 0.471544
v -0.148232 -0.268848 0.392594
v 0.062578 0.243742 -0.230256
v 0.031458 0.264862 -0.269326
v -0.390418 0.456455 -0.435943
v -0.189412 -0.285498 0.462624
v -0.148232 -0.268848 0.392594
v 0.062578 0.243742 -0.230256
v 0.032268 0.264412 -0.270225
v -0.744800 -0.081823 -0.240543
v -0.186302 -0.294779 0.453754
v -0.148232 -0.268848 0.392594
v 0.062578 0.243742 -0.230256
v 0.032958 0.263071 -0.269456
v -0.624843 0.108556 -0.347739
v -0.779920 -0.462433 0.076471
v -0.182692 -0.305538 0.444964
v -0.148232 -0.268848 0.392594
v 0.062578 0.243742 -0.230256
v 0.033538 0.261801 -0.268436
v -0.178822 -0.318058 0.436634
v -0.148232 -0.268848 0.392594
v 0.062578 0.243742 -0.230256
v 0.034128 0.261642 -0.268516
v -0.174762 -0.332289 0.429674
v -0.148232 -0.268848 0.392594
v 0.062578 0.243742 -0.230256
v 0.034928 0.263083 -0.270206
v -0.170372 -0.348568 0.424734
v -0.148232 -0.268848 0.392594
vt 0.000000 0.000000
vt 0.000000 0.000000
vt 0.000000 0.047710
vt 0.039320 0.047760
vt 0.122125 0.105843
vt 0.075305 0.476146
vt 0.153612 0.523517
vt 0.128981 0.632895
vt 0.024907 0.691293
vt 0.017956 0.740615
vt 0.118973 0.821437
vt 0.000000 0.952290
vt 0.185833 0.904363
vt 0.039320 0.952240
vt 0.000000 1.000000
vt 0.000000 1.000000
vt 0.000000 0.000000
vt 0.077020 0.047850
vt 0.075835 0.367422
vt 0.047437 0.302456
vt 0.203640 0.310383
vt 0.103253 0.739462
vt 0.077020 0.952150
vt 0.000000 1.000000
vt 0.000000 0.000000
vt 0.114050 0.047950
vt 0.192582 0.872257
vt 0.114050 0.952050
vt 0.000000 1.000000
vt 0.000000 0.000000
vt 0.150640 0.048040
vt 0.067311 0.235708
vt 0.235484 0.211486
vt 0.279472 0.686054
vt 0.150640 0.951960
vt 0.000000 1.000000
vt 0.000000 0.000000
vt 0.186910 0.048120
vt 0.055903 0.191803
vt 0.290226 0.762836
vt 0.186910 0.951880
vt 0.000000 1.000000
vt 0.000000 0.000000
vt 0.223000 0.048160
vt 0.298718 0.425420
vt 0.333699 0.503486
vt 0.223000 0.951840
vt 0.000000 1.000000
vt 0.000000 0.000000
vt 0.259000 0.048170
vt 0.259000 0.951830
vt 0.000000 1.000000
vt 0.000000 0.000000
vt 0.295030 0.048140
vt 0.366954 0.288760
vt 0.295030 0.951860
vt 0.000000 1.000000
vt 0.000000 0.000000
vt 0.331190 0.048080
vt 0.458288 0.132333
vt 0.380759 0.203607
vt 0.412233 0.679776
vt 0.410843 0.824484
vt 0.331190 0.951920
vt 0.000000 1.000000
vt 0.000000 0.000000
vt 0.367610 0.048000
vt 0.498057 0.893404
vt 0.367610 0.952000
vt 0.000000 1.000000
vt 0.000000 0.000000
vt 0.404400 0.047900
vt 0.419703 0.434077
vt 0.404400 0.952100
vt 0.000000 1.000000
vt 0.000000 0.000000
vt 0.441720 0.047800
vt 0.441720 0.952200
vt 0.000000 1.000000
vt 0.000000 0.000000
vt 0.479940 0.047720
vt 0.565167 0.165697
vt 0.532027 0.268749
vt 0.554859 0.359407
vt 0.530944 0.501022
vt 0.490230 0.585513
vt 0.602404 0.814868
vt 0.479940 0.952280
vt 0.000000 1.000000
vt 0.000000 0.000000
vt 0.520060 0.047720
vt 0.539417 0.724917
vt 0.520060 0.952280
vt 0.000000 1.000000
vt 0.000000 0.000000
vt 0.558280 0.047800
vt 0.619034 0.239642
vt 0.578843 0.431625
vt 0.625708 0.662861
vt 0.558280 0.952200
vt 0.000000 1.000000
vt 0.000000 0.000000
vt 0.595600 0.047900
vt 0.655762 0.331249
vt 0.632331 0.512535
vt 0.656007 0.910469
vt 0.595600 0.952100
vt 0.000000 1.000000
vt 0.000000 0.000000
vt 0.632390 0.048000
vt 0.679838 0.402656
vt 0.688567 0.743002
vt 0.632390 0.952000
vt 0.000000 1.000000
vt 0.000000 0.000000
vt 0.668810 0.048080
vt 0.809617 0.202477
vt 0.699989 0.572412
vt 0.801117 0.894434
vt 0.668810 0.951920
vt 0.000000 1.000000
vt 0.000000 0.000000
vt 0.704970 0.048140
vt 0.912181 0.151783
vt 0.755609 0.247397
vt 0.799882 0.417593
vt 0.704970 0.951860
vt 0.000000 1.000000
vt 0.000000 0.000000
vt 0.741000 0.048170
vt 0.797224 0.320154
vt 0.809867 0.543285
vt 0.759820 0.667308
vt 0.802660 0.739790
vt 0.851601 0.788717
vt 0.741000 0.951830
vt 0.000000 1.000000
vt 0.000000 0.000000
vt 0.777000 0.048160
vt 0.777000 0.951840
vt 0.000000 1.000000
vt 0.000000 0.000000
vt 0.813090 0.048120
vt 0.813090 0.951880
vt 0.000000 1.000000
vt 0.000000 0.000000
vt 0.849360 0.048040
vt 0.925440 0.301658
vt 0.898501 0.584158
vt 0.884718 0.666718
vt 0.936226 0.866541
vt 0.849360 0.951960
vt 0.000000 1.000000
vt 0.000000 0.000000
vt 0.885950 0.047950
vt 0.958959 0.232781
vt 0.931362 0.713840
vt 0.885950 0.952050
vt 0.000000 1.000000
vt 0.000000 0.000000
vt 0.922980 0.047850
vt 0.956029 0.432604
vt 0.988421 0.778105
vt 0.922980 0.952150
vt 0.000000 1.000000
vt 0.000000 0.000000
vt 0.960680 0.047760
vt 0.953388 0.333221
vt 0.960680 0.952240
vt 0.000000 1.000000
vt 0.000000 0.000000
vt 1.000000 0.047710
vt 0.984463 0.571266
vt 1.000000 0.952290
vt 0.000000 1.000000
vt 0.000000 0.000000
vt 0.960680 0.047760
vt 0.920548 0.713004
vt 0.901735 0.788425
vt 0.800318 0.893641
vt 0.960680 0.952240
vt 0.000000 1.000000
vt 0.000000 0.000000
vt 0.922980 0.047850
vt 0.761558 0.100901
vt 0.829578 0.161753
vt 0.864786 0.384933
vt 0.913161 0.587440
vt 0.922980 0.952150
vt 0.000000 1.000000
vt 0.000000 0.000000
vt 0.885950 0.047950
vt 0.841048 0.490599
vt 0.885950 0.952050
vt 0.000000 1.000000
vt 0.000000 0.000000
vt 0.849360 0.048040
vt 0.828182 0.278328
vt 0.773910 0.342002
vt 0.775699 0.610970
vt 0.823982 0.798183
vt 0.849360 0.951960
vt 0.000000 1.000000
vt 0.000000 0.000000
vt 0.813090 0.048120
vt 0.756091 0.493581
vt 0.813090 0.951880
vt 0.000000 1.000000
vt 0.000000 0.000000
vt 0.777000 0.048160
vt 0.646842 0.246258
vt 0.730395 0.675198
vt 0.691088 0.830910
vt 0.777000 0.951840
vt 0.000000 1.000000
vt 0.000000 0.000000
vt 0.741000 0.048170
vt 0.741000 0.951830
vt 0.000000 1.000000
vt 0.000000 0.000000
vt 0.704970 0.048140
vt 0.555970 0.089335
vt 0.682700 0.490846
vt 0.623281 0.597815
vt 0.704970 0.951860
vt 0.000000 1.000000
vt 0.000000 0.000000
vt 0.668810 0.048080
vt 0.534029 0.141130
vt 0.622515 0.372797
vt 0.668810 0.951920
vt 0.000000 1.000000
vt 0.000000 0.000000
vt 0.632390 0.048000
vt 0.578996 0.289795
vt 0.598321 0.540520
vt 0.567351 0.675559
vt 0.528702 0.828813
vt 0.632390 0.952000
vt 0.000000 1.000000
vt 0.000000 0.000000
vt 0.595600 0.047900
vt 0.430467 0.197397
vt 0.563677 0.350089
vt 0.517586 0.411713
vt 0.559224 0.750028
vt 0.456664 0.870355
vt 0.595600 0.952100
vt 0.000000 1.000000
vt 0.000000 0.000000
vt 0.558280 0.047800
vt 0.558280 0.952200
vt 0.000000 1.000000
vt 0.000000 0.000000
vt 0.520060 0.047720
vt 0.417552 0.283319
vt 0.486036 0.498350
vt 0.489622 0.597659
vt 0.520060 0.952280
vt 0.000000 1.000000
vt 0.000000 0.000000
vt 0.479940 0.047720
vt 0.481969 0.319223
vt 0.431952 0.640197
vt 0.479940 0.952280
vt 0.000000 1.000000
vt 0.000000 0.000000
vt 0.441720 0.047800
vt 0.403172 0.376037
vt 0.415281 0.446591
vt 0.425703 0.563558
vt 0.393676 0.698257
vt 0.441720 0.952200
vt 0.000000 1.000000
vt 0.000000 0.000000
vt 0.404400 0.047900
vt 0.256190 0.830817
vt 0.404400 0.952100
vt 0.000000 1.000000
vt 0.000000 0.000000
vt 0.367610 0.048000
vt 0.321896 0.507637
vt 0.322209 0.577777
vt 0.176023 0.894375
vt 0.367610 0.952000
vt 0.000000 1.000000
vt 0.000000 0.000000
vt 0.331190 0.048080
vt 0.315377 0.309569
vt 0.311970 0.452692
vt 0.312240 0.633568
vt 0.331190 0.951920
vt 0.000000 1.000000
vt 0.000000 0.000000
vt 0.295030 0.048140
vt 0.254642 0.396976
vt 0.257381 0.701614
vt 0.295030 0.951860
vt 0.000000 1.000000
vt 0.000000 0.000000
vt 0.259000 0.048170
vt 0.230938 0.511071
vt 0.183159 0.644680
vt 0.147437 0.756413
vt 0.259000 0.951830
vt 0.000000 1.000000
vt 0.000000 0.000000
vt 0.223000 0.048160
vt 0.155346 0.285298
vt 0.223000 0.951840
vt 0.000000 1.000000
vt 0.000000 0.000000
vt 0.186910 0.048120
vt 0.123570 0.408757
vt 0.131074 0.494285
vt 0.186910 0.951880
vt 0.000000 1.000000
vt 0.000000 0.000000
vt 0.150640 0.048040
vt 0.097617 0.684086
vt 0.150640 0.951960
vt 0.000000 1.000000
vt 0.000000 0.000000
vt 0.114050 0.047950
vt 0.114050 0.952050
vt 0.000000 1.000000
vt 0.000000 0.000000
vt 0.077020 0.047850
vt 0.077020 0.952150
vt 0.000000 1.000000
vt 0.000000 0.000000
vt 0.039320 0.047760
vt 0.039320 0.952240
vt 0.000000 1.000000
vn 0.0056 -0.0149 -0.9999
vn 0.0050 -0.0173 -0.9998
vn -0.0706 0.8056 0.5883
vn 0.1536 0.7185 0.6783
vn 0.2321 0.9289 -0.2887
vn -0.6883 -0.5531 -0.4694
vn -0.0461 -0.9702 -0.2380
vn 0.4223 -0.8293 -0.3658
vn -0.4497 -0.8389 -0.3067
vn -0.8899 -0.2278 0.3951
vn -0.1772 -0.7797 0.6005
vn 0.3422 -0.0378 0.9389
vn 0.1479 -0.7373 0.6592
vn 0.7912 -0.2189 0.5711
vn -0.0283 0.0004 -0.9996
vn -0.0202 0.0012 -0.9998
vn 0.0012 -0.0172 -0.9999
vn 0.2150 0.7446 0.6320
vn -0.6130 0.1286 -0.7795
vn -0.2563 0.7372 -0.6252
vn -0.0065 0.5013 -0.8653
vn -0.0574 -0.9002 -0.4317
vn 0.9085 -0.1949 0.3697
vn -0.0122 0.0012 -0.9999
vn -0.0032 -0.0178 -0.9998
vn 0.2473 0.7953 0.5534
vn 0.0841 -0.8135 0.5755
vn 0.9173 -0.2471 0.3121
vn 0.0068 -0.0008 1.0000
vn -0.0062 -0.0187 -0.9998
vn 0.2444 0.8279 0.5048
vn -0.0770 0.6724 -0.7361
vn 0.2840 0.8251 -0.4885
vn 0.0105 -0.8770 -0.4804
vn 0.5669 -0.3089 0.7637
vn 0.0036 -0.0004 1.0000
vn -0.0074 -0.0191 -0.9998
vn 0.2267 0.9237 0.3087
vn 0.2132 0.6002 -0.7709
vn 0.3435 -0.7409 -0.5772
vn 0.5057 -0.3964 0.7662
vn 0.0023 -0.0004 1.0000
vn -0.0076 -0.0185 -0.9998
vn 0.2501 0.9397 0.2333
vn -0.4991 -0.7355 -0.4582
vn -0.3892 -0.9143 0.1123
vn -0.5293 0.7447 0.4065
vn 0.0022 -0.0005 1.0000
vn -0.0077 -0.0181 -0.9998
vn 0.2570 0.9338 0.2489
vn 0.3790 -0.0406 -0.9245
vn 0.0050 -0.0010 1.0000
vn -0.0080 -0.0181 -0.9998
vn 0.2609 0.9347 0.2413
vn 0.2336 0.2468 -0.9405
vn 0.6334 -0.3363 -0.6969
vn 0.0167 -0.0029 0.9999
vn -0.0084 -0.0183 -0.9998
vn 0.2643 0.9449 0.1929
vn -0.3614 0.8951 -0.2612
vn 0.0331 0.2305 -0.9725
vn -0.5850 -0.7962 0.1545
vn 0.0446 -0.9847 -0.1682
vn 0.9055 -0.2746 0.3234
vn -0.0366 0.0068 -0.9993
vn -0.0090 -0.0179 -0.9998
vn 0.2702 0.9552 0.1208
vn 0.3992 -0.8883 0.2268
vn 0.8562 -0.0076 0.5166
vn -0.0495 0.0099 -0.9987
vn -0.0095 -0.0170 -0.9998
vn 0.3054 0.9451 0.1165
vn -0.2535 -0.7647 -0.5924
vn 0.8353 -0.0571 0.5468
vn -0.0423 0.0101 -0.9991
vn -0.0098 -0.0160 -0.9998
vn 0.3934 0.9063 0.1545
vn 0.7717 -0.1872 0.6078
vn -0.0189 0.0081 -0.9998
vn -0.0102 -0.0153 -0.9998
vn 0.4497 0.8817 0.1428
vn -0.1449 0.7851 -0.6022
vn 0.0802 0.3445 -0.9354
vn 0.4111 -0.3723 -0.8321
vn 0.6228 -0.4865 -0.6128
vn -0.1865 -0.9519 -0.2429
vn -0.2544 -0.8621 0.4382
vn 0.6585 -0.3541 0.6641
vn -0.0106 0.0069 -0.9999
vn -0.0111 -0.0157 -0.9998
vn 0.4819 0.8735 0.0690
vn 0.0806 -0.9698 0.2303
vn 0.7874 -0.2769 0.5508
vn -0.0547 0.0070 -0.9985
vn -0.0113 -0.0156 -0.9998
vn 0.5541 0.8297 0.0670
vn 0.5157 0.6566 -0.5504
vn 0.7361 -0.6762 -0.0298
vn 0.7111 -0.6933 -0.1169
vn 0.8544 -0.0958 0.5108
vn -0.1026 0.0116 -0.9947
vn -0.0121 -0.0175 -0.9998
vn 0.6093 0.7883 0.0859
vn 0.6181 0.2870 -0.7319
vn 0.7441 -0.5701 -0.3483
vn 0.6125 -0.4108 0.6754
vn 0.7617 0.0495 0.6460
vn -0.0811 0.0199 -0.9965
vn -0.0135 -0.0211 -0.9997
vn 0.6342 0.7689 0.0819
vn 0.7472 -0.5821 -0.3206
vn -0.0743 -0.9938 0.0825
vn 0.7326 -0.0969 0.6737
vn -0.0406 0.0211 -0.9990
vn -0.0149 -0.0264 -0.9995
vn 0.6299 0.7728 0.0770
vn 0.4866 0.7610 -0.4291
vn 0.4048 -0.1746 -0.8976
vn 0.1358 -0.4755 0.8692
vn 0.6891 -0.4299 0.5834
vn -0.0146 0.0176 -0.9997
vn -0.0153 -0.0320 -0.9994
vn 0.4361 0.8834 0.1714
vn 0.0486 0.9237 -0.3801
vn 0.2141 0.4383 -0.8729
vn 0.7911 -0.5532 -0.2611
vn 0.5165 -0.7242 0.4569
vn -0.0034 0.0127 -0.9999
vn -0.0140 -0.0363 -0.9992
vn 0.2965 0.9361 0.1893
vn 0.9472 0.1837 -0.2627
vn 0.6634 -0.4721 -0.5806
vn 0.4155 -0.8748 -0.2491
vn 0.2825 -0.9185 0.2768
vn -0.3598 -0.6230 0.6945
vn 0.4454 -0.7348 0.5115
vn -0.0016 0.0083 -1.0000
vn -0.0116 -0.0384 -0.9992
vn 0.0962 0.9862 0.1348
vn 0.4896 -0.6496 0.5816
vn -0.0026 0.0068 -1.0000
vn 0.0091 0.0395 0.9992
vn -0.1618 0.9862 0.0351
vn 0.4324 -0.7107 0.5549
vn -0.0035 0.0077 -1.0000
vn 0.0072 0.0412 0.9991
vn -0.2960 0.9518 -0.0799
vn 0.6190 0.6342 -0.4633
vn 0.8064 -0.5911 0.0204
vn 0.6252 -0.7680 0.1390
vn -0.3739 -0.6438 0.6677
vn 0.3737 -0.8366 0.4005
vn -0.0047 0.0092 -0.9999
vn 0.0060 0.0445 0.9990
vn -0.3119 0.9277 -0.2052
vn 0.2398 0.8205 -0.5189
vn 0.5011 -0.5342 0.6808
vn 0.4774 -0.8200 0.3157
vn -0.0073 0.0093 -0.9999
vn 0.0054 0.0484 0.9988
vn -0.3117 0.8874 -0.3398
vn 0.9714 -0.0791 -0.2239
vn -0.0440 -0.2418 0.9693
vn 0.5647 -0.6639 0.4903
vn -0.0103 0.0091 -0.9999
vn 0.0054 0.0514 0.9987
vn -0.3411 0.8053 -0.4850
vn 0.8221 0.5140 -0.2450
vn 0.5180 -0.5953 0.6142
vn -0.0107 0.0118 -0.9999
vn 0.0063 0.0542 0.9985
vn -0.3523 0.6812 -0.6418
vn 0.8265 0.0817 0.5570
vn 0.4422 -0.7752 0.4511
vn -0.0083 0.0162 -0.9998
vn 0.0080 0.0556 0.9984
vn -0.3301 0.5288 -0.7819
vn 0.0987 0.1886 0.9771
vn -0.3332 -0.4074 0.8503
vn 0.1349 -0.9194 0.3694
vn 0.6571 -0.7524 0.0456
vn 0.0062 -0.0209 0.9998
vn 0.0093 0.0573 0.9983
vn -0.2560 0.6516 -0.7141
vn -0.2484 0.2665 -0.9313
vn 0.0492 0.5356 -0.8430
vn 0.9164 0.3821 0.1195
vn 0.2128 -0.0997 0.9720
vn 0.6457 -0.7633 0.0204
vn 0.0071 -0.0252 0.9997
vn 0.0084 0.0616 0.9981
vn -0.0479 0.6535 -0.7554
vn 0.8440 0.2119 0.4926
vn 0.6167 -0.7737 0.1451
vn -0.0112 0.0259 -0.9996
vn 0.0038 0.0626 0.9980
vn 0.0037 0.6524 -0.7578
vn 0.3241 0.5157 -0.7931
vn 0.5525 0.8081 -0.2045
vn 0.3237 -0.3713 0.8703
vn 0.2206 -0.7683 0.6009
vn 0.5275 -0.7737 0.3509
vn -0.0163 0.0232 -0.9996
vn 0.0008 0.0540 0.9985
vn 0.2297 0.5236 -0.8204
vn 0.6156 0.1952 0.7635
vn 0.4112 -0.7445 0.5259
vn -0.0196 0.0218 -0.9996
vn 0.0112 0.0370 0.9993
vn 0.6518 0.1831 -0.7360
vn 0.0844 0.6732 -0.7346
vn 0.3536 -0.3470 0.8687
vn 0.4368 -0.7420 0.5086
vn 0.3486 -0.7139 0.6073
vn -0.0213 0.0224 -0.9995
vn 0.0436 0.0195 0.9989
vn 0.8505 -0.1523 -0.5035
vn 0.3650 -0.7006 0.6131
vn -0.0231 0.0242 -0.9994
vn 0.0916 0.0078 0.9958
vn 0.9185 -0.1577 -0.3625
vn 0.6368 -0.0181 -0.7708
vn 0.1184 0.6441 0.7557
vn 0.1415 -0.0227 0.9897
vn 0.4054 -0.6919 0.5975
vn -0.0283 0.0294 -0.9992
vn 0.1134 0.0043 0.9935
vn 0.9459 -0.1648 -0.2794
vn 0.0125 0.1722 -0.9850
vn -0.1574 0.8008 0.5779
vn 0.4467 -0.7248 0.5244
vn -0.0418 0.0434 -0.9982
vn 0.0881 0.0042 0.9961
vn 0.9324 -0.3173 -0.1729
vn 0.0501 0.9965 -0.0665
vn -0.2356 0.7488 0.6195
vn 0.1762 0.1471 0.9733
vn 0.0095 -0.8769 0.4806
vn 0.4792 -0.7576 0.4432
vn -0.0715 0.0683 -0.9951
vn 0.0561 0.0029 0.9984
vn 0.2908 0.7189 -0.6314
vn 0.1916 0.4947 -0.8477
vn -0.4809 0.6944 0.5353
vn -0.3879 0.7937 0.4686
vn 0.2134 -0.1779 0.9606
vn 0.0943 -0.8521 0.5148
vn 0.5683 -0.7371 0.3657
vn -0.0982 0.0776 -0.9921
vn 0.0371 -0.0008 0.9993
vn -0.0864 0.9011 -0.4250
vn 0.7388 -0.5146 0.4352
vn -0.0759 0.0502 -0.9959
vn 0.0293 -0.0069 0.9995
vn -0.0984 0.8377 -0.5372
vn 0.1669 0.6649 -0.7281
vn -0.5899 0.7955 0.1385
vn -0.1626 0.6875 0.7077
vn 0.7655 -0.5283 0.3673
vn -0.0356 0.0223 -0.9991
vn 0.0302 -0.0141 0.9994
vn -0.6057 0.5690 -0.5561
vn -0.2793 0.8477 -0.4510
vn -0.4179 0.4357 0.7972
vn 0.7520 -0.5477 0.3667
vn -0.0139 0.0096 -0.9999
vn 0.0308 -0.0124 0.9994
vn 0.2963 0.3596 -0.8848
vn -0.5352 0.7138 0.4517
vn -0.7571 0.5534 0.3473
vn -0.4862 0.8165 0.3113
vn -0.5906 -0.3507 0.7268
vn 0.7962 -0.5212 0.3072
vn -0.0112 0.0083 -0.9999
vn 0.0274 -0.0017 0.9996
vn 0.7082 0.1461 -0.6907
vn -0.3701 -0.7956 0.4795
vn 0.2355 -0.8494 0.4724
vn -0.0135 0.0089 -0.9999
vn 0.0200 0.0091 0.9998
vn 0.8220 0.3356 -0.4602
vn -0.5916 0.7597 0.2697
vn -0.7905 0.5112 0.3374
vn -0.6070 -0.4733 0.6384
vn -0.2877 -0.7801 0.5556
vn -0.0164 0.0092 -0.9998
vn 0.0131 0.0165 0.9998
vn 0.7275 0.6848 -0.0422
vn -0.1163 0.8734 -0.4729
vn -0.6711 0.2699 0.6905
vn -0.7168 -0.5621 0.4126
vn -0.1033 -0.8734 0.4760
vn -0.0203 0.0096 -0.9997
vn -0.0084 -0.0201 -0.9998
vn 0.5650 0.7827 0.2612
vn -0.7928 0.6094 0.0012
vn -0.2052 -0.7311 0.6507
vn 0.1291 -0.9080 0.3987
vn -0.0256 0.0096 -0.9996
vn -0.0057 -0.0193 -0.9998
vn 0.5008 0.7781 0.3791
vn -0.8362 0.5481 -0.0170
vn -0.8246 -0.4891 0.2842
vn -0.4458 -0.4227 0.7890
vn 0.3300 -0.8824 0.3355
vn -0.0314 0.0083 -0.9995
vn -0.0043 -0.0140 -0.9999
vn 0.3021 0.9512 0.0620
vn -0.1138 0.5819 -0.8053
vn 0.2924 -0.9502 0.1078
vn -0.0392 0.0073 -0.9992
vn -0.0040 -0.0064 -1.0000
vn 0.5497 -0.0623 -0.8330
vn -0.8073 0.3009 -0.5077
vn -0.9077 0.0135 -0.4195
vn -0.1346 -0.8878 0.4401
vn -0.0495 0.0064 -0.9988
vn 0.0042 0.0005 1.0000
vn 0.8359 -0.2167 -0.5044
vn -0.7066 -0.6639 0.2447
vn 0.2636 -0.7464 0.6111
vn -0.0563 0.0049 -0.9984
vn 0.0035 -0.0009 1.0000
vn 0.7889 0.4617 -0.4056
vn 0.2487 -0.6040 0.7572
vn -0.0527 0.0019 -0.9986
vn -0.0009 -0.0030 -1.0000
vn 0.1682 0.8476 0.5032
vn 0.3046 -0.3015 0.9035
vn -0.0409 -0.0014 -0.9992
vn 0.0030 -0.0093 -1.0000
vn -0.0463 0.7838 0.6193
vn 0.5096 -0.2756 0.8150
vn -0.0328 -0.0014 -0.9995
usemtl space_asteroids_02_l_0006
s 1
f 1/1/1 2/2/2 3/3/3
f 3/3/3 2/2/2 4/4/4
f 3/3/3 4/4/4 276/5/5
f 9/6/6 10/7/7 11/8/8
f 9/6/6 11/8/8 12/9/9
f 13/10/10 12/9/9 14/11/11
f 16/12/12 15/13/13 17/14/14
f 16/12/12 17/14/14 18/15/15
f 18/15/15 17/14/14 19/16/16
f 2/2/2 20/17/17 4/4/4
f 4/4/4 20/17/17 21/18/18
f 4/4/4 21/18/18 276/5/5
f 8/19/19 7/20/20 22/21/21
f 12/9/9 23/22/22 14/11/11
f 17/14/14 15/13/13 24/23/23
f 17/14/14 24/23/23 19/16/16
f 19/16/16 24/23/23 25/24/24
f 20/17/17 26/25/25 21/18/18
f 21/18/18 26/25/25 27/26/26
f 21/18/18 27/26/26 276/5/5
f 12/9/9 11/8/8 23/22/22
f 15/13/13 14/11/11 28/27/27
f 24/23/23 15/13/13 29/28/28
f 24/23/23 29/28/28 25/24/24
f 25/24/24 29/28/28 30/29/29
f 26/25/25 31/30/30 27/26/26
f 27/26/26 31/30/30 32/31/31
f 27/26/26 32/31/31 276/5/5
f 6/32/32 38/33/33 7/20/20
f 7/20/20 38/33/33 22/21/21
f 11/8/8 33/34/34 23/22/22
f 29/28/28 15/13/13 34/35/35
f 29/28/28 34/35/35 30/29/29
f 30/29/29 34/35/35 35/36/36
f 31/30/30 36/37/37 32/31/31
f 32/31/31 36/37/37 37/38/38
f 32/31/31 37/38/38 276/5/5
f 276/5/5 38/33/33 5/39/39
f 5/39/39 38/33/33 6/32/32
f 23/22/22 39/40/40 14/11/11
f 34/35/35 15/13/13 40/41/41
f 34/35/35 40/41/41 35/36/36
f 35/36/36 40/41/41 41/42/42
f 36/37/37 42/43/43 37/38/38
f 37/38/38 42/43/43 43/44/44
f 37/38/38 43/44/44 276/5/5
f 22/21/21 44/45/45 8/19/19
f 8/19/19 44/45/45 9/6/6
f 10/7/7 45/46/46 11/8/8
f 11/8/8 45/46/46 33/34/34
f 23/22/22 33/34/34 39/40/40
f 40/41/41 15/13/13 46/47/47
f 40/41/41 46/47/47 41/42/42
f 41/42/42 46/47/47 47/48/48
f 42/43/43 48/49/49 43/44/44
f 43/44/44 48/49/49 49/50/50
f 43/44/44 49/50/50 276/5/5
f 9/6/6 44/45/45 10/7/7
f 46/47/47 15/13/13 50/51/51
f 46/47/47 50/51/51 47/48/48
f 47/48/48 50/51/51 51/52/52
f 48/49/49 52/53/53 49/50/50
f 49/50/50 52/53/53 53/54/54
f 49/50/50 53/54/54 276/5/5
f 22/21/21 38/33/33 54/55/55
f 22/21/21 54/55/55 44/45/45
f 10/7/7 44/45/45 45/46/46
f 14/11/11 39/40/40 28/27/27
f 50/51/51 15/13/13 55/56/56
f 50/51/51 55/56/56 51/52/52
f 51/52/52 55/56/56 56/57/57
f 52/53/53 57/58/58 53/54/54
f 53/54/54 57/58/58 58/59/59
f 53/54/54 58/59/59 276/5/5
f 276/5/5 59/60/60 38/33/33
f 38/33/33 60/61/61 54/55/55
f 33/34/34 45/46/46 66/62/62
f 39/40/40 61/63/63 28/27/27
f 28/27/27 61/63/63 15/13/13
f 55/56/56 15/13/13 62/64/64
f 55/56/56 62/64/64 56/57/57
f 56/57/57 62/64/64 63/65/65
f 57/58/58 64/66/66 58/59/59
f 58/59/59 64/66/66 65/67/67
f 58/59/59 65/67/67 276/5/5
f 276/5/5 65/67/67 59/60/60
f 38/33/33 59/60/60 60/61/61
f 39/40/40 33/34/34 66/62/62
f 15/13/13 61/63/63 67/68/68
f 15/13/13 67/68/68 62/64/64
f 62/64/64 67/68/68 68/69/69
f 62/64/64 68/69/69 63/65/65
f 63/65/65 68/69/69 69/70/70
f 64/66/66 70/71/71 65/67/67
f 65/67/67 70/71/71 71/72/72
f 65/67/67 71/72/72 59/60/60
f 54/55/55 72/73/73 44/45/45
f 44/45/45 72/73/73 45/46/46
f 45/46/46 72/73/73 66/62/62
f 68/69/69 67/68/68 73/74/74
f 68/69/69 73/74/74 69/70/70
f 69/70/70 73/74/74 74/75/75
f 70/71/71 75/76/76 71/72/72
f 71/72/72 75/76/76 76/77/77
f 71/72/72 76/77/77 59/60/60
f 39/40/40 66/62/62 61/63/63
f 73/74/74 67/68/68 77/78/78
f 73/74/74 77/78/78 74/75/75
f 74/75/75 77/78/78 78/79/79
f 75/76/76 79/80/80 76/77/77
f 76/77/77 79/80/80 80/81/81
f 76/77/77 80/81/81 59/60/60
f 60/61/61 59/60/60 90/82/82
f 60/61/61 90/82/82 81/83/83
f 60/61/61 81/83/83 54/55/55
f 54/55/55 81/83/83 72/73/73
f 72/73/73 81/83/83 82/84/84
f 72/73/73 82/84/84 83/85/85
f 72/73/73 83/85/85 84/86/86
f 72/73/73 84/86/86 66/62/62
f 61/63/63 66/62/62 85/87/87
f 77/78/78 67/68/68 86/88/88
f 77/78/78 86/88/88 78/79/79
f 78/79/79 86/88/88 87/89/89
f 79/80/80 88/90/90 80/81/81
f 80/81/81 88/90/90 89/91/91
f 80/81/81 89/91/91 59/60/60
f 84/86/86 91/92/92 66/62/62
f 66/62/62 91/92/92 85/87/87
f 61/63/63 85/87/87 67/68/68
f 86/88/88 67/68/68 92/93/93
f 86/88/88 92/93/93 87/89/89
f 87/89/89 92/93/93 93/94/94
f 88/90/90 94/95/95 89/91/91
f 89/91/91 94/95/95 95/96/96
f 89/91/91 95/96/96 59/60/60
f 81/83/83 90/82/82 96/97/97
f 82/84/84 97/98/98 83/85/85
f 84/86/86 83/85/85 98/99/99
f 84/86/86 98/99/99 91/92/92
f 92/93/93 67/68/68 99/100/100
f 92/93/93 99/100/100 93/94/94
f 93/94/94 99/100/100 100/101/101
f 94/95/95 101/102/102 95/96/96
f 95/96/96 101/102/102 102/103/103
f 95/96/96 102/103/103 59/60/60
f 81/83/83 96/97/97 103/104/104
f 81/83/83 103/104/104 82/84/84
f 83/85/85 97/98/98 104/105/105
f 83/85/85 104/105/105 98/99/99
f 91/92/92 98/99/99 85/87/87
f 67/68/68 105/106/106 99/100/100
f 99/100/100 105/106/106 106/107/107
f 99/100/100 106/107/107 100/101/101
f 100/101/101 106/107/107 107/108/108
f 101/102/102 108/109/109 102/103/103
f 102/103/103 108/109/109 109/110/110
f 102/103/103 109/110/110 59/60/60
f 97/98/98 82/84/84 110/111/111
f 97/98/98 110/111/111 104/105/105
f 85/87/87 98/99/99 111/112/112
f 67/68/68 85/87/87 105/106/106
f 106/107/107 105/106/106 112/113/113
f 106/107/107 112/113/113 107/108/108
f 107/108/108 112/113/113 113/114/114
f 108/109/109 114/115/115 109/110/110
f 109/110/110 114/115/115 115/116/116
f 109/110/110 115/116/116 59/60/60
f 90/82/82 116/117/117 96/97/97
f 82/84/84 103/104/104 110/111/111
f 104/105/105 117/118/118 98/99/99
f 105/106/106 85/87/87 118/119/119
f 112/113/113 105/106/106 119/120/120
f 112/113/113 119/120/120 113/114/114
f 113/114/114 119/120/120 120/121/121
f 114/115/115 121/122/122 115/116/116
f 115/116/116 121/122/122 122/123/123
f 115/116/116 122/123/123 59/60/60
f 59/60/60 122/123/123 90/82/82
f 90/82/82 123/124/124 116/117/117
f 96/97/97 124/125/125 103/104/104
f 104/105/105 110/111/111 125/126/126
f 119/120/120 105/106/106 126/127/127
f 119/120/120 126/127/127 120/121/121
f 120/121/121 126/127/127 127/128/128
f 121/122/122 128/129/129 122/123/123
f 122/123/123 128/129/129 129/130/130
f 122/123/123 129/130/130 90/82/82
f 96/97/97 116/117/117 124/125/125
f 103/104/104 124/125/125 130/131/131
f 103/104/104 130/131/131 110/111/111
f 110/111/111 130/131/131 125/126/126
f 104/105/105 125/126/126 131/132/132
f 104/105/105 131/132/132 117/118/118
f 98/99/99 132/133/133 111/112/112
f 111/112/112 132/133/133 133/134/134
f 111/112/112 133/134/134 85/87/87
f 85/87/87 133/134/134 134/135/135
f 85/87/87 134/135/135 118/119/119
f 126/127/127 105/106/106 135/136/136
f 126/127/127 135/136/136 127/128/128
f 127/128/128 135/136/136 136/137/137
f 128/129/129 137/138/138 129/130/130
f 129/130/130 137/138/138 138/139/139
f 129/130/130 138/139/139 90/82/82
f 117/118/118 131/132/132 98/99/99
f 98/99/99 131/132/132 132/133/133
f 105/106/106 118/119/119 135/136/136
f 135/136/136 118/119/119 139/140/140
f 135/136/136 139/140/140 136/137/137
f 136/137/137 139/140/140 140/141/141
f 137/138/138 141/142/142 138/139/139
f 138/139/139 141/142/142 142/143/143
f 138/139/139 142/143/143 90/82/82
f 139/140/140 118/119/119 143/144/144
f 139/140/140 143/144/144 140/141/141
f 140/141/141 143/144/144 144/145/145
f 141/142/142 145/146/146 142/143/143
f 142/143/143 145/146/146 146/147/147
f 142/143/143 146/147/147 90/82/82
f 90/82/82 146/147/147 123/124/124
f 124/125/125 116/117/117 130/131/131
f 130/131/131 147/148/148 125/126/126
f 131/132/132 148/149/149 132/133/133
f 132/133/133 148/149/149 149/150/150
f 132/133/133 149/150/150 133/134/134
f 134/135/135 150/151/151 118/119/119
f 143/144/144 118/119/119 151/152/152
f 143/144/144 151/152/152 144/145/145
f 144/145/145 151/152/152 152/153/153
f 145/146/146 153/154/154 146/147/147
f 146/147/147 153/154/154 154/155/155
f 146/147/147 154/155/155 123/124/124
f 116/117/117 155/156/156 130/131/131
f 130/131/131 155/156/156 147/148/148
f 133/134/134 149/150/150 161/157/157
f 133/134/134 161/157/157 134/135/135
f 151/152/152 118/119/119 156/158/158
f 151/152/152 156/158/158 152/153/153
f 152/153/153 156/158/158 157/159/159
f 153/154/154 158/160/160 154/155/155
f 154/155/155 158/160/160 159/161/161
f 154/155/155 159/161/161 123/124/124
f 116/117/117 123/124/124 155/156/156
f 125/126/126 147/148/148 160/162/162
f 125/126/126 160/162/162 131/132/132
f 149/150/150 148/149/149 161/157/157
f 134/135/135 161/157/157 162/163/163
f 134/135/135 162/163/163 150/151/151
f 156/158/158 118/119/119 163/164/164
f 156/158/158 163/164/164 157/159/159
f 157/159/159 163/164/164 164/165/165
f 158/160/160 165/166/166 159/161/161
f 159/161/161 165/166/166 166/167/167
f 159/161/161 166/167/167 123/124/124
f 147/148/148 167/168/168 160/162/162
f 131/132/132 160/162/162 148/149/149
f 163/164/164 118/119/119 168/169/169
f 163/164/164 168/169/169 164/165/165
f 164/165/165 168/169/169 169/170/170
f 165/166/166 170/171/171 166/167/167
f 166/167/167 170/171/171 171/172/172
f 166/167/167 171/172/172 123/124/124
f 148/149/149 160/162/162 172/173/173
f 148/149/149 172/173/173 161/157/157
f 161/157/157 172/173/173 162/163/163
f 168/169/169 118/119/119 173/174/174
f 168/169/169 173/174/174 169/170/170
f 169/170/170 173/174/174 174/175/175
f 170/171/171 175/176/176 171/172/172
f 171/172/172 175/176/176 176/177/177
f 171/172/172 176/177/177 123/124/124
f 147/148/148 155/156/156 167/168/168
f 172/173/173 177/178/178 162/163/163
f 162/163/163 177/178/178 178/179/179
f 162/163/163 178/179/179 150/151/151
f 118/119/119 150/151/151 179/180/180
f 118/119/119 179/180/180 173/174/174
f 173/174/174 179/180/180 180/181/181
f 173/174/174 180/181/181 174/175/175
f 174/175/175 180/181/181 181/182/182
f 175/176/176 182/183/183 176/177/177
f 176/177/177 182/183/183 183/184/184
f 176/177/177 183/184/184 123/124/124
f 123/124/124 183/184/184 184/185/185
f 123/124/124 184/185/185 185/186/186
f 123/124/124 185/186/186 155/156/156
f 155/156/156 185/186/186 167/168/168
f 160/162/162 186/187/187 172/173/173
f 172/173/173 187/188/188 177/178/178
f 150/151/151 178/179/179 179/180/180
f 180/181/181 179/180/180 188/189/189
f 180/181/181 188/189/189 181/182/182
f 181/182/182 188/189/189 189/190/190
f 182/183/183 190/191/191 183/184/184
f 183/184/184 190/191/191 191/192/192
f 183/184/184 191/192/192 184/185/185
f 160/162/162 167/168/168 186/187/187
f 172/173/173 186/187/187 192/193/193
f 172/173/173 192/193/193 187/188/188
f 188/189/189 179/180/180 194/194/194
f 188/189/189 194/194/194 189/190/190
f 189/190/190 194/194/194 195/195/195
f 190/191/191 196/196/196 191/192/192
f 191/192/192 196/196/196 197/197/197
f 191/192/192 197/197/197 184/185/185
f 167/168/168 185/186/186 198/198/198
f 167/168/168 198/198/198 199/199/199
f 167/168/168 199/199/199 186/187/187
f 187/188/188 192/193/193 205/200/200
f 187/188/188 205/200/200 177/178/178
f 178/179/179 193/201/201 179/180/180
f 194/194/194 179/180/180 200/202/202
f 194/194/194 200/202/202 195/195/195
f 195/195/195 200/202/202 201/203/203
f 196/196/196 202/204/204 197/197/197
f 197/197/197 202/204/204 203/205/205
f 197/197/197 203/205/205 184/185/185
f 186/187/187 199/199/199 192/193/193
f 192/193/193 204/206/206 205/200/200
f 177/178/178 205/200/200 178/179/179
f 200/202/202 179/180/180 206/207/207
f 200/202/202 206/207/207 201/203/203
f 201/203/203 206/207/207 207/208/208
f 202/204/204 208/209/209 203/205/205
f 203/205/205 208/209/209 209/210/210
f 203/205/205 209/210/210 184/185/185
f 198/198/198 185/186/186 210/211/211
f 198/198/198 210/211/211 199/199/199
f 192/193/193 199/199/199 204/206/206
f 178/179/179 205/200/200 211/212/212
f 193/201/201 212/213/213 179/180/180
f 206/207/207 179/180/180 213/214/214
f 206/207/207 213/214/214 207/208/208
f 207/208/208 213/214/214 214/215/215
f 208/209/209 215/216/216 209/210/210
f 209/210/210 215/216/216 216/217/217
f 209/210/210 216/217/217 184/185/185
f 178/179/179 211/212/212 193/201/201
f 213/214/214 179/180/180 217/218/218
f 213/214/214 217/218/218 214/215/215
f 214/215/215 217/218/218 218/219/219
f 215/216/216 219/220/220 216/217/217
f 216/217/217 219/220/220 220/221/221
f 216/217/217 220/221/221 184/185/185
f 184/185/185 220/221/221 221/222/222
f 199/199/199 222/223/223 204/206/206
f 204/206/206 222/223/223 205/200/200
f 205/200/200 222/223/223 223/224/224
f 205/200/200 223/224/224 211/212/212
f 217/218/218 179/180/180 224/225/225
f 217/218/218 224/225/225 218/219/219
f 218/219/219 224/225/225 225/226/226
f 219/220/220 226/227/227 220/221/221
f 220/221/221 226/227/227 227/228/228
f 220/221/221 227/228/228 221/222/222
f 185/186/186 184/185/185 228/229/229
f 185/186/186 228/229/229 210/211/211
f 210/211/211 229/230/230 199/199/199
f 199/199/199 229/230/230 222/223/223
f 193/201/201 211/212/212 212/213/213
f 224/225/225 179/180/180 230/231/231
f 224/225/225 230/231/231 225/226/226
f 225/226/226 230/231/231 231/232/232
f 226/227/227 232/233/233 227/228/228
f 227/228/228 232/233/233 233/234/234
f 227/228/228 233/234/234 221/222/222
f 210/211/211 234/235/235 229/230/230
f 222/223/223 235/236/236 223/224/224
f 211/212/212 223/224/224 236/237/237
f 211/212/212 236/237/237 212/213/213
f 212/213/213 237/238/238 179/180/180
f 179/180/180 237/238/238 230/231/231
f 230/231/231 237/238/238 238/239/239
f 230/231/231 238/239/239 231/232/232
f 231/232/232 238/239/239 239/240/240
f 232/233/233 240/241/241 233/234/234
f 233/234/234 240/241/241 241/242/242
f 233/234/234 241/242/242 221/222/222
f 184/185/185 221/222/222 228/229/229
f 228/229/229 242/243/243 210/211/211
f 229/230/230 234/235/235 243/244/244
f 229/230/230 244/245/245 222/223/223
f 222/223/223 244/245/245 235/236/236
f 212/213/213 236/237/237 245/246/246
f 212/213/213 245/246/246 237/238/238
f 237/238/238 246/247/247 238/239/239
f 238/239/239 246/247/247 247/248/248
f 238/239/239 247/248/248 239/240/240
f 239/240/240 247/248/248 248/249/249
f 240/241/241 249/250/250 241/242/242
f 241/242/242 249/250/250 250/251/251
f 241/242/242 250/251/251 221/222/222
f 229/230/230 243/244/244 244/245/245
f 247/248/248 246/247/247 251/252/252
f 247/248/248 251/252/252 248/249/249
f 248/249/249 251/252/252 252/253/253
f 249/250/250 253/254/254 250/251/251
f 250/251/251 253/254/254 254/255/255
f 250/251/251 254/255/255 221/222/222
f 234/235/235 210/211/211 255/256/256
f 234/235/235 255/256/256 243/244/244
f 244/245/245 257/257/257 235/236/236
f 235/236/236 257/257/257 223/224/224
f 223/224/224 257/257/257 258/258/258
f 223/224/224 258/258/258 236/237/237
f 251/252/252 246/247/247 259/259/259
f 251/252/252 259/259/259 252/253/253
f 252/253/253 259/259/259 260/260/260
f 253/254/254 261/261/261 254/255/255
f 254/255/255 261/261/261 262/262/262
f 254/255/255 262/262/262 221/222/222
f 210/211/211 242/243/243 255/256/256
f 243/244/244 255/256/256 256/263/263
f 243/244/244 256/263/263 244/245/245
f 236/237/237 258/258/258 263/264/264
f 236/237/237 263/264/264 245/246/246
f 263/264/264 237/238/238 245/246/246
f 259/259/259 246/247/247 264/265/265
f 259/259/259 264/265/265 260/260/260
f 260/260/260 264/265/265 265/266/266
f 261/261/261 266/267/267 262/262/262
f 262/262/262 266/267/267 267/268/268
f 262/262/262 267/268/268 221/222/222
f 221/222/222 267/268/268 228/229/229
f 244/245/245 256/263/263 268/269/269
f 244/245/245 268/269/269 269/270/270
f 244/245/245 269/270/270 257/257/257
f 258/258/258 257/257/257 270/271/271
f 258/258/258 270/271/271 263/264/264
f 263/264/264 271/272/272 237/238/238
f 237/238/238 271/272/272 246/247/247
f 264/265/265 246/247/247 272/273/273
f 264/265/265 272/273/273 265/266/266
f 265/266/266 272/273/273 273/274/274
f 266/267/267 274/275/275 267/268/268
f 267/268/268 274/275/275 275/276/276
f 267/268/268 275/276/276 228/229/229
f 228/229/229 275/276/276 276/5/5
f 256/263/263 255/256/256 268/269/269
f 257/257/257 269/270/270 270/271/271
f 246/247/247 271/272/272 277/277/277
f 272/273/273 246/247/247 278/278/278
f 272/273/273 278/278/278 273/274/274
f 273/274/274 278/278/278 279/279/279
f 274/275/275 280/280/280 275/276/276
f 275/276/276 280/280/280 281/281/281
f 275/276/276 281/281/281 276/5/5
f 269/270/270 283/282/282 270/271/271
f 270/271/271 283/282/282 263/264/264
f 263/264/264 283/282/282 284/283/283
f 263/264/264 284/283/283 271/272/272
f 246/247/247 285/284/284 278/278/278
f 278/278/278 285/284/284 286/285/285
f 278/278/278 286/285/285 279/279/279
f 279/279/279 286/285/285 287/286/286
f 280/280/280 288/287/287 281/281/281
f 281/281/281 288/287/287 289/288/288
f 281/281/281 289/288/288 276/5/5
f 228/229/229 276/5/5 242/243/243
f 255/256/256 282/289/289 268/269/269
f 269/270/270 268/269/269 290/290/290
f 269/270/270 290/290/290 283/282/282
f 271/272/272 284/283/283 291/291/291
f 271/272/272 291/291/291 277/277/277
f 286/285/285 285/284/284 292/292/292
f 286/285/285 292/292/292 287/286/286
f 287/286/286 292/292/292 293/293/293
f 288/287/287 294/294/294 289/288/288
f 289/288/288 294/294/294 295/295/295
f 289/288/288 295/295/295 276/5/5
f 268/269/269 282/289/289 296/296/296
f 268/269/269 296/296/296 290/290/290
f 291/291/291 297/297/297 277/277/277
f 246/247/247 277/277/277 285/284/284
f 292/292/292 285/284/284 298/298/298
f 292/292/292 298/298/298 293/293/293
f 293/293/293 298/298/298 299/299/299
f 294/294/294 300/300/300 295/295/295
f 295/295/295 300/300/300 301/301/301
f 295/295/295 301/301/301 276/5/5
f 255/256/256 242/243/243 282/289/289
f 290/290/290 296/296/296 283/282/282
f 283/282/282 296/296/296 302/302/302
f 283/282/282 302/302/302 284/283/283
f 284/283/283 302/302/302 303/303/303
f 284/283/283 303/303/303 291/291/291
f 297/297/297 304/304/304 277/277/277
f 298/298/298 285/284/284 305/305/305
f 298/298/298 305/305/305 299/299/299
f 299/299/299 305/305/305 306/306/306
f 300/300/300 307/307/307 301/301/301
f 301/301/301 307/307/307 308/308/308
f 301/301/301 308/308/308 276/5/5
f 242/243/243 276/5/5 309/309/309
f 242/243/243 309/309/309 282/289/289
f 282/289/289 309/309/309 296/296/296
f 291/291/291 303/303/303 297/297/297
f 305/305/305 285/284/284 310/310/310
f 305/305/305 310/310/310 306/306/306
f 306/306/306 310/310/310 311/311/311
f 307/307/307 312/312/312 308/308/308
f 308/308/308 312/312/312 313/313/313
f 308/308/308 313/313/313 276/5/5
f 296/296/296 309/309/309 319/314/314
f 296/296/296 319/314/314 302/302/302
f 302/302/302 319/314/314 314/315/315
f 302/302/302 314/315/315 303/303/303
f 310/310/310 285/284/284 315/316/316
f 310/310/310 315/316/316 311/311/311
f 311/311/311 315/316/316 316/317/317
f 312/312/312 317/318/318 313/313/313
f 313/313/313 317/318/318 318/319/319
f 313/313/313 318/319/319 276/5/5
f 276/5/5 5/39/39 309/309/309
f 297/297/297 303/303/303 320/320/320
f 297/297/297 320/320/320 304/304/304
f 315/316/316 285/284/284 321/321/321
f 315/316/316 321/321/321 316/317/317
f 316/317/317 321/321/321 322/322/322
f 317/318/318 323/323/323 318/319/319
f 318/319/319 323/323/323 324/324/324
f 318/319/319 324/324/324 276/5/5
f 303/303/303 314/315/315 320/320/320
f 277/277/277 304/304/304 285/284/284
f 321/321/321 285/284/284 325/325/325
f 321/321/321 325/325/325 322/322/322
f 322/322/322 325/325/325 326/326/326
f 323/323/323 327/327/327 324/324/324
f 324/324/324 327/327/327 328/328/328
f 324/324/324 328/328/328 276/5/5
f 309/309/309 5/39/39 6/32/32
f 309/309/309 6/32/32 7/20/20
f 309/309/309 7/20/20 319/314/314
f 325/325/325 285/284/284 329/329/329
f 325/325/325 329/329/329 326/326/326
f 326/326/326 329/329/329 330/330/330
f 327/327/327 331/331/331 328/328/328
f 328/328/328 331/331/331 332/332/332
f 328/328/328 332/332/332 276/5/5
f 319/314/314 7/20/20 8/19/19
f 319/314/314 8/19/19 314/315/315
f 314/315/315 9/6/6 320/320/320
f 320/320/320 9/6/6 12/9/9
f 320/320/320 12/9/9 304/304/304
f 304/304/304 12/9/9 13/10/10
f 304/304/304 13/10/10 285/284/284
f 285/284/284 13/10/10 15/13/13
f 285/284/284 15/13/13 329/329/329
f 329/329/329 15/13/13 333/333/333
f 329/329/329 333/333/333 330/330/330
f 330/330/330 333/333/333 334/334/334
f 331/331/331 1/1/1 332/332/332
f 332/332/332 1/1/1 3/3/3
f 332/332/332 3/3/3 276/5/5
f 314/315/315 8/19/19 9/6/6
f 13/10/10 14/11/11 15/13/13
f 333/333/333 15/13/13 16/12/12
f 333/333/333 16/12/12 334/334/334
f 334/334/334 16/12/12 18/15/15
