# Blender v2.93.1 OBJ File: ''
# www.blender.org
mtllib asteroid4.mtl
o asteroid_4
v -0.664938 0.030775 -0.025934
v -0.664938 0.030775 -0.025934
v -0.751898 0.087873 0.048046
v -0.737667 0.073885 0.063437
v -0.889000 0.291932 0.117590
v -0.560024 0.714944 0.401035
v -0.691513 0.845552 0.182076
v -0.456209 1.014235 0.296556
v -0.178974 0.478537 0.238173
v 0.211273 0.731520 0.534469
v 0.424709 1.052629 -0.053528
v 0.636155 0.733033 0.463245
v 0.712476 0.950952 0.047042
v 0.727201 0.632420 0.190818
v 0.992361 0.816677 -0.083908
v 0.773048 0.365662 0.192818
v 0.821012 0.284794 0.015026
v 0.838022 0.270195 0.033207
v 0.874193 0.215544 -0.006304
v 0.874193 0.215544 -0.006304
v -0.664938 0.030775 -0.025934
v -0.728527 0.062695 0.075706
v -0.622360 0.431782 0.358573
v 0.854282 0.260035 0.048796
v 0.874193 0.215544 -0.006304
v -0.664938 0.030775 -0.025934
v -0.721617 0.052845 0.085997
v -0.820530 0.132949 0.259431
v -0.285218 0.618587 0.539998
v 0.557558 0.669413 0.778786
v 0.974730 0.520654 0.396269
v 0.868912 0.251974 0.066486
v 0.874193 0.215544 -0.006304
v -0.664938 0.030775 -0.025934
v -0.715397 0.043755 0.094017
v -0.528129 0.517376 0.582070
v -0.179844 0.737733 0.779387
v 0.810649 0.457435 0.592329
v 0.883343 0.245604 0.086268
v 0.874193 0.215544 -0.006304
v -0.664938 0.030775 -0.025934
v -0.708918 0.034674 0.099667
v 0.044129 0.522234 0.979097
v 1.064258 0.316695 0.372556
v 0.900322 0.240993 0.106947
v 0.874193 0.215544 -0.006304
v -0.664938 0.030775 -0.025934
v -0.701677 0.025064 0.102957
v -0.621045 0.067144 0.419886
v 0.512346 0.339296 0.683455
v 0.832592 0.224107 0.815029
v 0.923172 0.238314 0.127136
v 0.874193 0.215544 -0.006304
v -0.664938 0.030775 -0.025934
v -0.693327 0.015295 0.103977
v -0.760821 -0.091033 0.246472
v 0.953463 0.237083 0.145136
v 0.874193 0.215544 -0.006304
v -0.664938 0.030775 -0.025934
v -0.683807 0.006144 0.103006
v -0.342568 0.286746 0.758414
v 0.455366 0.057873 0.949556
v 0.996094 0.061010 0.684972
v 0.989012 0.235855 0.159876
v 0.874193 0.215544 -0.006304
v -0.664938 0.030775 -0.025934
v -0.673437 -0.002476 0.100677
v -0.369094 0.070325 0.557305
v 0.924780 0.098412 0.847078
v 1.024693 0.232325 0.170696
v 0.874193 0.215544 -0.006304
v -0.664938 0.030775 -0.025934
v -0.662727 -0.011425 0.097776
v -0.739157 -0.273006 0.546761
v -0.206916 0.003858 0.939536
v 1.052732 0.224255 0.175747
v 0.874193 0.215544 -0.006304
v -0.664938 0.030775 -0.025934
v -0.652367 -0.021425 0.094576
v 0.025744 0.031161 0.804575
v 1.070702 0.210924 0.173348
v 0.874193 0.215544 -0.006304
v -0.664938 0.030775 -0.025934
v -0.643358 -0.032745 0.090717
v 1.080622 0.191404 0.163927
v 0.874193 0.215544 -0.006304
v -0.664938 0.030775 -0.025934
v -0.636038 -0.045376 0.085016
v -0.139020 -0.258475 0.950853
v 0.008793 -0.344841 0.882780
v 1.005498 -0.225799 0.764966
v 1.072924 -0.234107 0.442029
v 1.083763 0.166784 0.149057
v 0.874193 0.215544 -0.006304
v -0.664938 0.030775 -0.025934
v -0.629488 -0.060286 0.075346
v -0.923726 -0.569694 0.130591
v -0.516339 -0.580367 0.738749
v 0.650526 -0.709353 0.814081
v 0.789880 -0.382695 0.727720
v 1.084192 0.134865 0.133257
v 0.874193 0.215544 -0.006304
v -0.664938 0.030775 -0.025934
v -0.626068 -0.070606 0.066977
v -0.901347 -0.820424 0.419978
v 0.842723 -0.618100 0.495929
v 1.080072 0.105995 0.124876
v 0.874193 0.215544 -0.006304
v -0.664938 0.030775 -0.025934
v -0.623928 -0.078156 0.059446
v -0.603763 -0.850141 0.704235
v -0.081462 -0.935439 0.650532
v 1.071772 0.078745 0.116756
v 0.874193 0.215544 -0.006304
v -0.664938 0.030775 -0.025934
v -0.622227 -0.083395 0.052187
v 0.830953 -0.851218 0.687965
v 1.061022 0.054205 0.107677
v 0.874193 0.215544 -0.006304
v -0.664938 0.030775 -0.025934
v -0.620518 -0.086645 0.044607
v -0.469596 -1.109153 0.510037
v 0.748112 -0.433793 0.357329
v 1.049952 0.033363 0.097687
v 0.874193 0.215544 -0.006304
v -0.664938 0.030775 -0.025934
v -0.618698 -0.088196 0.036297
v -0.625026 -0.128663 -0.072666
v 0.846781 -0.823653 0.389604
v 0.973658 -0.107879 0.039600
v 1.040392 0.016603 0.085997
v 0.874193 0.215544 -0.006304
v -0.664938 0.030775 -0.025934
v -0.616898 -0.088295 0.027176
v -0.080492 -1.099663 0.446013
v 0.469128 -1.075843 0.258277
v 1.032793 0.004004 0.071827
v 0.874193 0.215544 -0.006304
v -0.664938 0.030775 -0.025934
v -0.615318 -0.087015 0.017397
v -0.852108 -0.775904 0.076332
v 1.026602 -0.004375 0.055017
v 0.874193 0.215544 -0.006304
v -0.664938 0.030775 -0.025934
v -0.614098 -0.084106 0.007147
v -0.313999 -1.015187 0.175650
v 0.744859 -0.504936 0.152087
v 1.020952 -0.008245 0.036037
v 0.874193 0.215544 -0.006304
v -0.664938 0.030775 -0.025934
v -0.613407 -0.079065 -0.003374
v 1.014982 -0.007805 0.015556
v 0.874193 0.215544 -0.006304
v -0.664938 0.030775 -0.025934
v -0.613747 -0.071455 -0.013994
v 0.655752 -0.881622 -0.049144
v 0.879757 -0.527716 -0.029125
v 1.007633 -0.004236 -0.005724
v 0.874193 0.215544 -0.006304
v -0.664938 0.030775 -0.025934
v -0.616127 -0.061205 -0.024473
v 0.356680 -1.238472 -0.180643
v 0.992582 0.001774 -0.026634
v 0.874193 0.215544 -0.006304
v -0.664938 0.030775 -0.025934
v -0.621767 -0.048765 -0.034843
v -0.824218 -0.380328 -0.194544
v 0.067394 -1.241078 -0.219524
v 0.957663 0.012005 -0.045433
v 0.874193 0.215544 -0.006304
v -0.664938 0.030775 -0.025934
v -0.632797 -0.033886 -0.047092
v -0.799921 -0.782891 -0.337329
v -0.508146 -0.869512 -0.241628
v 0.942691 -0.424214 -0.488520
v 0.963304 -0.120027 -0.261650
v 0.911833 0.029434 -0.067333
v 0.874193 0.215544 -0.006304
v -0.664938 0.030775 -0.025934
v -0.646767 -0.022316 -0.060453
v -0.578975 -0.824591 -0.613627
v 0.577955 -0.909263 -0.814936
v 0.895302 0.046595 -0.094963
v 0.874193 0.215544 -0.006304
v -0.664938 0.030775 -0.025934
v -0.658987 -0.015955 -0.073063
v 0.894432 0.061695 -0.117994
v 0.874193 0.215544 -0.006304
v -0.664938 0.030775 -0.025934
v -0.670977 -0.011995 -0.085703
v -1.090945 -0.346074 -0.393310
v -0.914915 -0.628845 -0.562342
v 0.106378 -0.868450 -1.055247
v 0.790962 -0.516376 -0.784869
v 0.893503 0.081194 -0.135113
v 0.874193 0.215544 -0.006304
v -0.664938 0.030775 -0.025934
v -0.683788 -0.009075 -0.097063
v -1.124518 -0.328844 -0.678114
v 0.533242 -0.417099 -0.860995
v 0.972091 0.095559 -0.364985
v 0.891413 0.105484 -0.147364
v 0.874193 0.215544 -0.006304
v -0.664938 0.030775 -0.025934
v -0.697878 -0.006016 -0.105833
v -0.846278 0.001529 -0.205376
v 0.937899 -0.018447 -0.620349
v 0.891262 0.131454 -0.157063
v 0.874193 0.215544 -0.006304
v -0.664938 0.030775 -0.025934
v -0.712837 -0.001726 -0.111614
v -0.613461 -0.528320 -0.767982
v -0.116766 -0.464873 -0.893055
v 0.366576 -0.407354 -1.129584
v 0.649145 -0.156879 -0.909382
v 0.901562 0.156633 -0.167053
v 0.874193 0.215544 -0.006304
v -0.664938 0.030775 -0.025934
v -0.728148 0.004555 -0.114763
v 0.930433 0.180624 -0.177673
v 0.874193 0.215544 -0.006304
v -0.664938 0.030775 -0.025934
v -0.743587 0.012514 -0.115683
v -0.965469 -0.054387 -0.415129
v 0.961123 0.203684 -0.180693
v 0.874193 0.215544 -0.006304
v -0.664938 0.030775 -0.025934
v -0.758297 0.021074 -0.114693
v -0.725362 -0.197545 -0.847133
v -0.283234 -0.174467 -0.697325
v -0.038524 -0.222640 -1.086272
v 0.971113 0.226234 -0.175364
v 0.874193 0.215544 -0.006304
v -0.664938 0.030775 -0.025934
v -0.770798 0.029564 -0.112234
v 0.655308 0.178664 -0.905104
v 0.858394 0.199141 -0.669676
v 0.725396 0.361246 -0.306557
v 0.962952 0.245514 -0.167324
v 0.874193 0.215544 -0.006304
v -0.664938 0.030775 -0.025934
v -0.780327 0.038115 -0.108683
v -0.911252 0.014553 -0.500949
v -0.653767 0.008269 -0.562575
v -0.519960 0.011190 -0.863363
v 0.288295 0.164105 -0.988858
v 0.951252 0.259893 -0.159304
v 0.874193 0.215544 -0.006304
v -0.664938 0.030775 -0.025934
v -0.787458 0.047174 -0.104164
v 0.938643 0.271154 -0.152224
v 0.874193 0.215544 -0.006304
v -0.664938 0.030775 -0.025934
v -0.793898 0.057625 -0.098293
v -1.004441 0.193173 -0.297958
v -0.979097 0.257326 -0.588577
v 0.923403 0.281944 -0.145874
v 0.874193 0.215544 -0.006304
v -0.664938 0.030775 -0.025934
v -0.803417 0.072615 -0.089104
v -0.842340 0.521070 -0.678242
v 0.136463 0.586389 -0.769147
v 0.342147 0.428048 -0.567689
v 0.809227 0.414467 -0.681898
v 0.901712 0.295834 -0.139364
v 0.874193 0.215544 -0.006304
v -0.664938 0.030775 -0.025934
v -0.812647 0.085955 -0.080053
v -0.363641 0.851694 -0.736305
v 0.835893 0.394456 -0.187887
v 0.882082 0.305464 -0.133213
v 0.874193 0.215544 -0.006304
v -0.664938 0.030775 -0.025934
v -0.820957 0.098164 -0.070873
v -0.923140 0.487273 -0.431669
v 0.234590 0.854739 -0.682038
v 0.862032 0.312235 -0.124823
v 0.874193 0.215544 -0.006304
v -0.664938 0.030775 -0.025934
v -0.827257 0.108685 -0.061794
v -0.732130 0.226333 -0.146080
v 0.475832 0.950651 -0.666147
v 0.876583 0.744528 -0.620283
v 0.839310 0.682928 -0.374816
v 0.844933 0.317934 -0.114704
v 0.874193 0.215544 -0.006304
v -0.664938 0.030775 -0.025934
v -0.830557 0.116974 -0.052563
v -0.802235 0.209715 -0.012508
v -0.690337 0.408877 -0.020179
v -0.963936 0.823501 -0.434324
v 0.832672 0.323345 -0.103653
v 0.874193 0.215544 -0.006304
v -0.664938 0.030775 -0.025934
v -0.830538 0.122784 -0.042843
v -0.298390 1.127147 -0.432219
v 0.636085 0.968282 -0.422763
v 0.824532 0.328404 -0.092194
v 0.874193 0.215544 -0.006304
v -0.664938 0.030775 -0.025934
v -0.827438 0.126095 -0.032494
v -0.978248 0.786982 -0.147093
v -0.635473 1.086313 -0.243107
v 0.919381 0.787091 -0.281605
v 0.819162 0.332634 -0.080774
v 0.874193 0.215544 -0.006304
v -0.664938 0.030775 -0.025934
v -0.821827 0.127005 -0.021584
v 0.831888 0.532652 -0.095647
v 0.815372 0.335285 -0.069603
v 0.874193 0.215544 -0.006304
v -0.664938 0.030775 -0.025934
v -0.814337 0.125784 -0.010464
v 0.251862 1.032963 -0.234556
v 0.812483 0.335564 -0.058563
v 0.874193 0.215544 -0.006304
v -0.664938 0.030775 -0.025934
v -0.805338 0.122734 0.000507
v -0.823866 0.615084 0.036425
v 0.810232 0.332705 -0.047184
v 0.874193 0.215544 -0.006304
v -0.664938 0.030775 -0.025934
v -0.794798 0.117895 0.011196
v -0.111247 0.761148 0.044567
v 0.808681 0.326115 -0.034763
v 0.874193 0.215544 -0.006304
v -0.664938 0.030775 -0.025934
v -0.782598 0.110954 0.021957
v 0.808472 0.315643 -0.020664
v 0.874193 0.215544 -0.006304
v -0.664938 0.030775 -0.025934
v -0.768688 0.101463 0.033466
v 0.811262 0.301865 -0.004583
v 0.874193 0.215544 -0.006304
vt 0.000000 0.000000
vt 0.000000 0.000000
vt 0.000000 0.048950
vt 0.049910 0.049260
vt 0.023765 0.126132
vt 0.043808 0.289135
vt 0.112084 0.282895
vt 0.044021 0.365815
vt 0.074647 0.638702
vt 0.074235 0.513599
vt 0.099056 0.657940
vt 0.047946 0.707335
vt 0.054037 0.771349
vt 0.081327 0.812752
vt 0.175056 0.873134
vt 0.112430 0.883298
vt 0.000000 0.951050
vt 0.049910 0.950740
vt 0.000000 1.000000
vt 0.000000 1.000000
vt 0.000000 0.000000
vt 0.089910 0.049770
vt 0.157869 0.229810
vt 0.045127 0.435632
vt 0.089910 0.950230
vt 0.000000 1.000000
vt 0.000000 0.000000
vt 0.126450 0.050300
vt 0.200515 0.135823
vt 0.158919 0.353322
vt 0.197371 0.408474
vt 0.183068 0.613837
vt 0.144050 0.809355
vt 0.126450 0.949700
vt 0.000000 1.000000
vt 0.000000 0.000000
vt 0.160870 0.050760
vt 0.209880 0.295431
vt 0.196656 0.744153
vt 0.160870 0.949240
vt 0.000000 1.000000
vt 0.000000 0.000000
vt 0.193900 0.051100
vt 0.271238 0.475064
vt 0.235587 0.870885
vt 0.193900 0.948900
vt 0.000000 1.000000
vt 0.000000 0.000000
vt 0.226100 0.051310
vt 0.312522 0.218503
vt 0.258699 0.672476
vt 0.297987 0.717978
vt 0.226100 0.948690
vt 0.000000 1.000000
vt 0.000000 0.000000
vt 0.257960 0.051350
vt 0.377833 0.113825
vt 0.257960 0.948650
vt 0.000000 1.000000
vt 0.000000 0.000000
vt 0.289930 0.051220
vt 0.298375 0.331204
vt 0.392572 0.544807
vt 0.366793 0.809184
vt 0.289930 0.948780
vt 0.000000 1.000000
vt 0.000000 0.000000
vt 0.322480 0.050950
vt 0.347143 0.291071
vt 0.368903 0.723826
vt 0.322480 0.949050
vt 0.000000 1.000000
vt 0.000000 0.000000
vt 0.356130 0.050540
vt 0.449010 0.203493
vt 0.388660 0.368461
vt 0.356130 0.949460
vt 0.000000 1.000000
vt 0.000000 0.000000
vt 0.391490 0.050040
vt 0.404677 0.443072
vt 0.391490 0.949960
vt 0.000000 1.000000
vt 0.000000 0.000000
vt 0.429530 0.049510
vt 0.429530 0.950490
vt 0.000000 1.000000
vt 0.000000 0.000000
vt 0.472410 0.049060
vt 0.472410 0.397137
vt 0.502924 0.445864
vt 0.481357 0.781367
vt 0.572735 0.881230
vt 0.472410 0.950940
vt 0.000000 1.000000
vt 0.000000 0.000000
vt 0.527590 0.049060
vt 0.806211 0.169583
vt 0.675616 0.233512
vt 0.550076 0.319859
vt 0.623864 0.636510
vt 0.542935 0.736474
vt 0.527590 0.950940
vt 0.000000 1.000000
vt 0.000000 0.000000
vt 0.570470 0.049510
vt 0.673818 0.798567
vt 0.570470 0.950490
vt 0.000000 1.000000
vt 0.000000 0.000000
vt 0.608510 0.050040
vt 0.630155 0.324048
vt 0.717759 0.434358
vt 0.608510 0.949960
vt 0.000000 1.000000
vt 0.000000 0.000000
vt 0.643870 0.050540
vt 0.643870 0.949460
vt 0.000000 1.000000
vt 0.000000 0.000000
vt 0.677520 0.050950
vt 0.748465 0.347454
vt 0.686185 0.706537
vt 0.742168 0.844877
vt 0.677520 0.949050
vt 0.000000 1.000000
vt 0.000000 0.000000
vt 0.710070 0.051220
vt 0.926884 0.116710
vt 0.776699 0.761935
vt 0.864031 0.907947
vt 0.710070 0.948780
vt 0.000000 1.000000
vt 0.000000 0.000000
vt 0.742040 0.051350
vt 0.793304 0.450548
vt 0.830699 0.646458
vt 0.742040 0.948650
vt 0.000000 1.000000
vt 0.000000 0.000000
vt 0.773900 0.051310
vt 0.905157 0.244844
vt 0.773900 0.948690
vt 0.000000 1.000000
vt 0.000000 0.000000
vt 0.806100 0.051100
vt 0.877668 0.429954
vt 0.840227 0.845479
vt 0.806100 0.948900
vt 0.000000 1.000000
vt 0.000000 0.000000
vt 0.839130 0.050760
vt 0.839130 0.949240
vt 0.000000 1.000000
vt 0.000000 0.000000
vt 0.873550 0.050300
vt 0.916042 0.755951
vt 0.923859 0.837134
vt 0.873550 0.949700
vt 0.000000 1.000000
vt 0.000000 0.000000
vt 0.910090 0.049770
vt 0.947586 0.569102
vt 0.960321 0.653547
vt 0.910090 0.950230
vt 0.000000 1.000000
vt 0.000000 0.000000
vt 0.950090 0.049260
vt 0.944669 0.187520
vt 0.950090 0.950740
vt 0.000000 1.000000
vt 0.000000 0.000000
vt 1.000000 0.048950
vt 0.943404 0.317955
vt 0.964506 0.395618
vt 0.879928 0.694465
vt 0.896697 0.822683
vt 0.899073 0.896425
vt 1.000000 0.951050
vt 0.000000 1.000000
vt 0.000000 0.000000
vt 0.950090 0.049260
vt 0.859706 0.442704
vt 0.950090 0.950740
vt 0.000000 1.000000
vt 0.000000 0.000000
vt 0.910090 0.049770
vt 0.910090 0.950230
vt 0.000000 1.000000
vt 0.000000 0.000000
vt 0.873550 0.050300
vt 0.825632 0.169464
vt 0.853657 0.299877
vt 0.798578 0.594438
vt 0.854106 0.757433
vt 0.873550 0.949700
vt 0.000000 1.000000
vt 0.000000 0.000000
vt 0.839130 0.050760
vt 0.731348 0.251834
vt 0.798759 0.726032
vt 0.756074 0.898708
vt 0.839130 0.949240
vt 0.000000 1.000000
vt 0.000000 0.000000
vt 0.806100 0.051100
vt 0.674532 0.107356
vt 0.722393 0.412627
vt 0.717547 0.836392
vt 0.806100 0.948900
vt 0.000000 1.000000
vt 0.000000 0.000000
vt 0.773900 0.051310
vt 0.711319 0.544667
vt 0.721704 0.672310
vt 0.721094 0.747205
vt 0.773900 0.948690
vt 0.000000 1.000000
vt 0.000000 0.000000
vt 0.742040 0.051350
vt 0.742040 0.948650
vt 0.000000 1.000000
vt 0.000000 0.000000
vt 0.710070 0.051220
vt 0.614205 0.192128
vt 0.710070 0.948780
vt 0.000000 1.000000
vt 0.000000 0.000000
vt 0.677520 0.050950
vt 0.630229 0.376072
vt 0.632676 0.459464
vt 0.635170 0.555313
vt 0.677520 0.949050
vt 0.000000 1.000000
vt 0.000000 0.000000
vt 0.643870 0.050540
vt 0.567286 0.646026
vt 0.580737 0.738349
vt 0.579697 0.823807
vt 0.446878 0.867431
vt 0.643870 0.949460
vt 0.000000 1.000000
vt 0.000000 0.000000
vt 0.608510 0.050040
vt 0.571988 0.251389
vt 0.573495 0.347128
vt 0.583631 0.422480
vt 0.608510 0.949960
vt 0.000000 1.000000
vt 0.000000 0.000000
vt 0.570470 0.049510
vt 0.464861 0.778859
vt 0.570470 0.950490
vt 0.000000 1.000000
vt 0.000000 0.000000
vt 0.527590 0.049060
vt 0.443516 0.188149
vt 0.477734 0.313332
vt 0.527590 0.950940
vt 0.000000 1.000000
vt 0.000000 0.000000
vt 0.472410 0.049060
vt 0.416992 0.384178
vt 0.421463 0.609443
vt 0.429149 0.696895
vt 0.472410 0.950940
vt 0.000000 1.000000
vt 0.000000 0.000000
vt 0.429530 0.049510
vt 0.348464 0.475730
vt 0.358501 0.899678
vt 0.429530 0.950490
vt 0.000000 1.000000
vt 0.000000 0.000000
vt 0.391490 0.050040
vt 0.311692 0.163717
vt 0.378077 0.320602
vt 0.333891 0.624105
vt 0.278420 0.678234
vt 0.391490 0.949960
vt 0.000000 1.000000
vt 0.000000 0.000000
vt 0.356130 0.050540
vt 0.290931 0.350834
vt 0.324263 0.760629
vt 0.262827 0.796064
vt 0.356130 0.949460
vt 0.000000 1.000000
vt 0.000000 0.000000
vt 0.322480 0.050950
vt 0.209881 0.115734
vt 0.208650 0.211861
vt 0.322480 0.949050
vt 0.000000 1.000000
vt 0.000000 0.000000
vt 0.289930 0.051220
vt 0.222753 0.484932
vt 0.205454 0.709320
vt 0.289930 0.948780
vt 0.000000 1.000000
vt 0.000000 0.000000
vt 0.257960 0.051350
vt 0.227031 0.311677
vt 0.191312 0.386780
vt 0.195576 0.793540
vt 0.257960 0.948650
vt 0.000000 1.000000
vt 0.000000 0.000000
vt 0.226100 0.051310
vt 0.226100 0.948690
vt 0.000000 1.000000
vt 0.000000 0.000000
vt 0.193900 0.051100
vt 0.139337 0.607984
vt 0.193900 0.948900
vt 0.000000 1.000000
vt 0.000000 0.000000
vt 0.160870 0.050760
vt 0.109277 0.260909
vt 0.160870 0.949240
vt 0.000000 1.000000
vt 0.000000 0.000000
vt 0.126450 0.050300
vt 0.067792 0.471742
vt 0.126450 0.949700
vt 0.000000 1.000000
vt 0.000000 0.000000
vt 0.089910 0.049770
vt 0.089910 0.950230
vt 0.000000 1.000000
vt 0.000000 0.000000
vt 0.049910 0.049260
vt 0.049910 0.950740
vt 0.000000 1.000000
vn -0.0333 -0.0454 0.9984
vn -0.0393 -0.0491 0.9980
vn -0.6325 -0.7709 0.0757
vn -0.7496 -0.6601 -0.0485
vn -0.9886 0.0632 0.1364
vn -0.8455 0.3877 0.3670
vn -0.3898 0.4290 0.8149
vn 0.1388 0.7204 0.6795
vn -0.0069 0.9855 0.1695
vn -0.1857 0.9820 0.0352
vn 0.4896 0.7936 0.3612
vn 0.5184 0.7799 0.3508
vn 0.9411 0.2769 0.1941
vn 0.9560 0.2492 0.1548
vn 0.9549 -0.2483 0.1627
vn 0.8590 0.3823 -0.3405
vn 0.8118 0.5831 0.0316
vn 0.6711 0.7230 -0.1643
vn 0.0749 0.0634 0.9952
vn 0.0740 0.0712 0.9947
vn -0.0323 -0.0361 0.9988
vn -0.7654 -0.6386 -0.0797
vn -0.8345 0.0474 0.5490
vn 0.1318 0.9309 0.3406
vn 0.6492 0.7368 -0.1885
vn 0.0678 0.0638 0.9957
vn -0.0270 -0.0276 0.9993
vn -0.7555 -0.6370 -0.1528
vn -0.9012 -0.2352 0.3640
vn -0.1718 0.9678 -0.1839
vn -0.4743 0.7997 0.3681
vn 0.4166 0.5451 0.7275
vn 0.9412 0.3241 -0.0955
vn 0.6836 0.6857 -0.2498
vn 0.0485 0.0473 0.9977
vn -0.0230 -0.0222 0.9995
vn -0.7431 -0.6483 -0.1660
vn -0.7499 0.2443 0.6147
vn 0.5431 0.4523 0.7074
vn 0.5760 0.7249 -0.3778
vn 0.0292 0.0385 0.9988
vn -0.0214 -0.0196 0.9996
vn -0.7498 -0.6383 -0.1742
vn -0.1138 0.3539 0.9284
vn 0.9406 0.3156 -0.1256
vn 0.5936 0.6325 -0.4976
vn 0.0154 0.0388 0.9991
vn -0.0219 -0.0189 0.9996
vn -0.7428 -0.6566 -0.1308
vn -0.7260 0.0864 0.6822
vn 0.6375 0.2067 0.7422
vn 0.3272 0.6258 0.7081
vn 0.3433 0.8671 -0.3609
vn 0.0075 0.0410 0.9991
vn -0.0224 -0.0199 0.9996
vn -0.7268 -0.6048 -0.3256
vn -0.9897 0.1119 -0.0897
vn 0.1629 0.9683 -0.1896
vn 0.0046 0.0387 0.9992
vn -0.0218 -0.0219 0.9995
vn -0.6184 -0.6693 -0.4118
vn -0.6815 -0.0187 0.7316
vn 0.1743 -0.0635 0.9826
vn 0.9136 0.1964 0.3559
vn 0.1332 0.9816 -0.1367
vn 0.0055 0.0318 0.9995
vn -0.0216 -0.0239 0.9995
vn -0.6042 -0.6803 -0.4150
vn -0.7258 0.0275 0.6874
vn 0.5602 0.2837 0.7782
vn 0.2472 0.9532 -0.1741
vn 0.0082 0.0227 0.9997
vn -0.0230 -0.0249 0.9994
vn -0.6289 -0.6556 -0.4180
vn -0.7983 0.2121 0.5636
vn -0.3161 0.0549 0.9471
vn 0.4446 0.8684 -0.2197
vn 0.0114 0.0176 0.9998
vn -0.0256 -0.0240 0.9994
vn -0.6984 -0.5784 -0.4216
vn 0.0902 -0.5993 0.7955
vn 0.7279 0.6212 -0.2904
vn 0.0161 0.0165 0.9997
vn -0.0283 -0.0205 0.9994
vn -0.7945 -0.4465 -0.4116
vn 0.9306 0.2346 -0.2810
vn 0.0208 0.0165 0.9996
vn -0.0317 -0.0169 0.9994
vn -0.8749 -0.2866 -0.3905
vn 0.1175 -0.2672 0.9564
vn 0.0075 -0.2169 0.9762
vn 0.5328 -0.4369 0.7247
vn 0.8936 -0.4252 -0.1441
vn 0.8817 0.1422 -0.4499
vn 0.0268 0.0158 0.9995
vn -0.0394 -0.0166 0.9991
vn -0.9208 -0.1585 -0.3563
vn -0.9821 0.0418 -0.1838
vn -0.8673 -0.4430 0.2269
vn -0.5161 -0.0762 0.8531
vn 0.3129 -0.4094 0.8570
vn 0.7175 -0.4528 0.5293
vn 0.8448 0.0190 -0.5347
vn 0.0218 0.0055 0.9997
vn -0.0286 -0.0102 0.9991
vn -0.9407 -0.0568 -0.3344
vn 0.9824 -0.1784 -0.0555
vn 0.8582 -0.1209 -0.4989
vn 0.0203 0.0026 0.9998
vn 0.0226 0.0076 -0.9997
vn -0.9423 0.0451 -0.3317
vn -0.4613 -0.3586 0.8116
vn -0.0335 -0.6707 0.7410
vn 0.8563 -0.2229 -0.4659
vn 0.0190 0.0021 0.9998
vn 0.0189 0.0067 -0.9996
vn -0.9440 0.0586 -0.3247
vn 0.8296 -0.2699 -0.4888
vn 0.0175 0.0027 0.9998
vn -0.0171 -0.0070 0.9998
vn -0.9564 0.0711 -0.2834
vn -0.1606 -0.9629 0.2167
vn 0.6263 -0.5123 0.5877
vn 0.8510 -0.3504 -0.3912
vn 0.8156 -0.2643 -0.5147
vn 0.0167 0.0046 0.9998
vn -0.0169 -0.0078 0.9998
vn -0.9652 0.0807 -0.2488
vn -0.8889 0.2290 0.3967
vn 0.8702 -0.4222 -0.2538
vn 0.8808 -0.3729 -0.2917
vn 0.8684 -0.2786 -0.4101
vn 0.0170 0.0071 0.9998
vn -0.0177 -0.0086 0.9998
vn -0.9643 0.0951 -0.2472
vn -0.3038 -0.8977 0.3190
vn 0.3148 -0.9243 0.2158
vn 0.8849 -0.1501 -0.4409
vn 0.0179 0.0093 0.9998
vn -0.0187 -0.0094 0.9998
vn -0.9770 0.0073 -0.2133
vn -0.7753 -0.5796 -0.2509
vn 0.8910 0.0705 -0.4485
vn 0.0190 0.0110 0.9998
vn -0.0197 -0.0103 0.9998
vn -0.9817 -0.0415 -0.1856
vn -0.2486 -0.9621 -0.1122
vn 0.9450 -0.2564 0.2030
vn 0.9042 0.1444 -0.4020
vn 0.0204 0.0123 0.9997
vn -0.0208 -0.0112 0.9997
vn -0.9851 -0.0758 -0.1541
vn 0.9083 0.0808 -0.4103
vn 0.0220 0.0133 0.9997
vn -0.0225 -0.0122 0.9997
vn -0.9880 -0.1211 -0.0957
vn 0.8098 -0.5817 -0.0771
vn 0.8668 -0.4437 0.2274
vn 0.8222 0.0373 -0.5679
vn 0.0235 0.0142 0.9996
vn -0.0254 -0.0136 0.9996
vn -0.9836 -0.1785 0.0240
vn -0.1854 -0.9797 -0.0760
vn 0.3233 -0.9454 -0.0416
vn 0.5944 0.1014 -0.7978
vn 0.0256 0.0178 0.9995
vn -0.0316 -0.0168 0.9994
vn -0.9479 -0.2307 0.2197
vn -0.9224 0.0615 0.3814
vn 0.4289 0.0770 -0.9001
vn 0.0392 0.0276 0.9988
vn 0.0511 0.0290 -0.9983
vn -0.8748 -0.2954 0.3840
vn -0.7574 -0.6505 -0.0559
vn -0.3847 -0.9112 -0.1474
vn 0.5757 -0.6165 -0.5372
vn 0.9283 -0.3299 -0.1718
vn 0.9984 0.0271 -0.0503
vn 0.7627 0.2228 -0.6072
vn 0.0527 0.0175 0.9985
vn 0.0696 0.0455 -0.9965
vn -0.8098 -0.3188 0.4925
vn -0.4887 -0.7427 -0.4578
vn 0.9506 0.3088 -0.0323
vn 0.0454 0.0049 0.9990
vn 0.0627 0.0459 -0.9970
vn -0.7688 -0.3390 0.5423
vn 0.9686 0.1997 0.1479
vn -0.0428 -0.0040 -0.9991
vn 0.0490 0.0404 -0.9980
vn -0.7046 -0.3682 0.6066
vn -0.9385 -0.1478 0.3120
vn -0.7050 -0.6363 -0.3131
vn -0.0592 -0.4823 -0.8740
vn 0.6549 -0.1953 -0.7301
vn 0.9676 0.1477 0.2049
vn 0.0452 0.0048 0.9989
vn 0.0332 0.0351 -0.9988
vn -0.6002 -0.3960 0.6950
vn -0.8442 0.1216 -0.5221
vn 0.5853 -0.2556 -0.7695
vn 0.9084 0.4117 0.0727
vn 0.9728 0.1003 0.2089
vn -0.0482 -0.0019 -0.9988
vn 0.0225 0.0332 -0.9992
vn -0.4736 -0.3772 0.7959
vn -0.7455 -0.1794 0.6419
vn -0.3062 -0.2403 -0.9212
vn 0.8844 0.0653 -0.4622
vn 0.9620 -0.1221 0.2441
vn -0.0486 0.0145 -0.9987
vn 0.0178 0.0323 -0.9993
vn -0.5095 -0.4828 0.7122
vn -0.4892 0.0874 -0.8678
vn 0.3374 -0.0204 -0.9411
vn 0.4876 0.0807 -0.8693
vn 0.8126 -0.4990 0.3011
vn -0.0440 0.0427 -0.9981
vn 0.0172 0.0313 -0.9994
vn -0.4256 -0.7244 0.5424
vn 0.6221 -0.7470 0.2345
vn -0.0354 0.0444 -0.9984
vn 0.0169 0.0303 -0.9994
vn -0.3870 -0.6763 0.6268
vn -0.9484 0.1940 0.2510
vn 0.7312 -0.6499 0.2071
vn -0.0318 0.0181 -0.9993
vn 0.0150 0.0280 -0.9995
vn -0.3436 -0.6933 0.6335
vn -0.3936 0.2506 -0.8844
vn -0.3555 -0.3304 -0.8743
vn -0.4228 -0.0399 -0.9054
vn 0.9632 0.2054 -0.1731
vn -0.0288 -0.0052 -0.9996
vn 0.0130 0.0238 -0.9996
vn -0.3499 -0.7007 0.6217
vn 0.0409 0.3320 -0.9424
vn 0.4412 0.3816 -0.8123
vn 0.8697 0.2561 -0.4221
vn 0.9441 0.1963 -0.2647
vn 0.7437 0.6639 -0.0789
vn -0.0243 -0.0112 -0.9996
vn 0.0119 0.0194 -0.9997
vn -0.3816 -0.6789 0.6273
vn -0.7403 0.1367 -0.6582
vn -0.6776 0.1894 -0.7106
vn -0.3697 -0.1084 -0.9228
vn 0.6201 0.7796 0.0881
vn -0.0214 -0.0145 -0.9997
vn 0.0118 0.0168 -0.9998
vn -0.4230 -0.6631 0.6176
vn 0.7258 0.2239 -0.6504
vn 0.5368 0.8185 0.2047
vn -0.0220 -0.0207 -0.9995
vn 0.0130 0.0174 -0.9998
vn -0.5403 -0.6456 0.5397
vn -0.8927 0.4261 0.1466
vn -0.9212 0.0286 -0.3879
vn 0.5479 0.7451 0.3803
vn -0.0288 -0.0329 -0.9990
vn 0.0175 0.0246 -0.9995
vn -0.5711 -0.7083 0.4150
vn -0.5950 0.1929 -0.7802
vn 0.2635 0.3624 -0.8940
vn 0.3217 0.5186 -0.7922
vn 0.6391 0.6723 0.3736
vn -0.0225 -0.0310 -0.9993
vn 0.0145 0.0219 -0.9997
vn -0.5760 -0.7243 0.3790
vn -0.1679 0.4253 -0.8893
vn 0.9247 0.0099 -0.3806
vn 0.4752 0.5444 0.6913
vn -0.0210 -0.0323 -0.9993
vn 0.0125 0.0193 -0.9997
vn -0.5749 -0.7265 0.3763
vn -0.7927 0.5767 0.1977
vn -0.9842 0.0286 0.1747
vn 0.1101 0.2991 -0.9479
vn 0.1163 0.6393 -0.7601
vn 0.5073 0.6041 0.6146
vn -0.0222 -0.0288 -0.9993
vn 0.0106 0.0166 -0.9998
vn -0.4788 -0.7514 0.4540
vn -0.9032 0.3458 -0.2544
vn 0.7723 0.2684 -0.5757
vn 0.9770 0.0173 -0.2124
vn 0.6172 0.6124 0.4940
vn -0.0235 -0.0226 -0.9995
vn 0.0093 0.0147 -0.9998
vn -0.5641 -0.6050 0.5619
vn -0.9128 0.4062 0.0418
vn -0.9643 -0.0821 -0.2518
vn 0.7490 0.5368 0.3884
vn -0.0240 -0.0176 -0.9996
vn 0.0087 0.0142 -0.9999
vn -0.8672 -0.4338 0.2447
vn 0.0157 0.9806 -0.1955
vn 0.3476 0.9243 -0.1575
vn 0.8696 0.3323 0.3651
vn -0.0233 -0.0145 -0.9996
vn 0.0089 0.0146 -0.9999
vn -0.8845 -0.3652 0.2904
vn -0.9333 0.0814 0.3498
vn -0.4474 0.8943 -0.0111
vn 0.7950 0.4184 -0.4393
vn 0.9439 0.1575 0.2903
vn -0.0217 -0.0129 -0.9997
vn 0.0095 0.0158 -0.9998
vn -0.8985 -0.2006 0.3904
vn 0.9540 0.1379 0.2661
vn -0.0199 -0.0123 -0.9997
vn 0.0104 0.0172 -0.9998
vn -0.8442 -0.1978 0.4982
vn -0.0907 0.9875 0.1289
vn 0.9583 0.1951 0.2090
vn -0.0190 -0.0128 -0.9997
vn 0.0114 0.0187 -0.9998
vn -0.7870 -0.2286 0.5731
vn -0.9596 -0.0988 0.2635
vn 0.9444 0.2695 0.1883
vn -0.0203 -0.0147 -0.9997
vn 0.0129 0.0207 -0.9997
vn -0.7893 -0.5091 0.3432
vn 0.4659 0.5839 0.6648
vn 0.9511 0.2694 0.1511
vn -0.0250 -0.0184 -0.9995
vn 0.0157 0.0244 -0.9996
vn -0.6768 -0.6746 0.2947
vn 0.9755 0.2194 0.0140
vn -0.0344 -0.0248 -0.9991
vn -0.0210 -0.0309 0.9993
vn -0.6864 -0.7203 0.0999
vn 0.9131 0.3875 0.1267
vn -0.0570 -0.0414 -0.9975
usemtl space_asteroids_02_l_0002
s 1
f 1/1/1 2/2/2 3/3/3
f 3/3/3 2/2/2 4/4/4
f 3/3/3 4/4/4 5/5/5
f 7/6/6 6/7/7 8/8/8
f 11/9/9 10/10/10 12/11/11
f 11/9/9 12/11/11 13/12/12
f 13/12/12 14/13/13 15/14/14
f 15/14/14 14/13/13 309/15/15
f 309/15/15 14/13/13 16/16/16
f 17/17/17 16/16/16 18/18/18
f 17/17/17 18/18/18 19/19/19
f 19/19/19 18/18/18 20/20/20
f 2/2/2 21/21/21 4/4/4
f 4/4/4 21/21/21 22/22/22
f 4/4/4 22/22/22 5/5/5
f 5/5/5 23/23/23 6/7/7
f 8/8/8 6/7/7 9/24/24
f 13/12/12 12/11/11 14/13/13
f 18/18/18 16/16/16 24/25/25
f 18/18/18 24/25/25 20/20/20
f 20/20/20 24/25/25 25/26/26
f 21/21/21 26/27/27 22/22/22
f 22/22/22 26/27/27 27/28/28
f 22/22/22 27/28/28 5/5/5
f 5/5/5 27/28/28 28/29/29
f 6/7/7 29/30/30 9/24/24
f 9/24/24 29/30/30 10/10/10
f 10/10/10 37/31/31 12/11/11
f 12/11/11 37/31/31 30/32/32
f 14/13/13 12/11/11 31/33/33
f 14/13/13 31/33/33 16/16/16
f 24/25/25 16/16/16 32/34/34
f 24/25/25 32/34/34 25/26/26
f 25/26/26 32/34/34 33/35/35
f 26/27/27 34/36/36 27/28/28
f 27/28/28 34/36/36 35/37/37
f 27/28/28 35/37/37 28/29/29
f 6/7/7 36/38/38 29/30/30
f 29/30/30 37/31/31 10/10/10
f 12/11/11 38/39/39 31/33/33
f 32/34/34 16/16/16 39/40/40
f 32/34/34 39/40/40 33/35/35
f 33/35/35 39/40/40 40/41/41
f 34/36/36 41/42/42 35/37/37
f 35/37/37 41/42/42 42/43/43
f 35/37/37 42/43/43 28/29/29
f 5/5/5 28/29/29 23/23/23
f 6/7/7 23/23/23 36/38/38
f 37/31/31 43/44/44 30/32/32
f 12/11/11 30/32/32 38/39/39
f 31/33/33 38/39/39 44/45/45
f 31/33/33 44/45/45 16/16/16
f 16/16/16 44/45/45 39/40/40
f 39/40/40 44/45/45 45/46/46
f 39/40/40 45/46/46 40/41/41
f 40/41/41 45/46/46 46/47/47
f 41/42/42 47/48/48 42/43/43
f 42/43/43 47/48/48 48/49/49
f 42/43/43 48/49/49 28/29/29
f 23/23/23 28/29/29 49/50/50
f 29/30/30 36/38/38 37/31/31
f 30/32/32 50/51/51 38/39/39
f 38/39/39 51/52/52 44/45/45
f 45/46/46 44/45/45 52/53/53
f 45/46/46 52/53/53 46/47/47
f 46/47/47 52/53/53 53/54/54
f 47/48/48 54/55/55 48/49/49
f 48/49/49 54/55/55 55/56/56
f 48/49/49 55/56/56 28/29/29
f 28/29/29 55/56/56 56/57/57
f 23/23/23 49/50/50 36/38/38
f 38/39/39 50/51/51 51/52/52
f 52/53/53 44/45/45 57/58/58
f 52/53/53 57/58/58 53/54/54
f 53/54/54 57/58/58 58/59/59
f 54/55/55 59/60/60 55/56/56
f 55/56/56 59/60/60 60/61/61
f 55/56/56 60/61/61 56/57/57
f 28/29/29 56/57/57 49/50/50
f 36/38/38 49/50/50 61/62/62
f 36/38/38 61/62/62 37/31/31
f 37/31/31 61/62/62 43/44/44
f 30/32/32 43/44/44 62/63/63
f 30/32/32 62/63/63 50/51/51
f 51/52/52 63/64/64 44/45/45
f 57/58/58 44/45/45 64/65/65
f 57/58/58 64/65/65 58/59/59
f 58/59/59 64/65/65 65/66/66
f 59/60/60 66/67/67 60/61/61
f 60/61/61 66/67/67 67/68/68
f 60/61/61 67/68/68 56/57/57
f 49/50/50 68/69/69 61/62/62
f 50/51/51 62/63/63 51/52/52
f 51/52/52 69/70/70 63/64/64
f 64/65/65 44/45/45 70/71/71
f 64/65/65 70/71/71 65/66/66
f 65/66/66 70/71/71 71/72/72
f 66/67/67 72/73/73 67/68/68
f 67/68/68 72/73/73 73/74/74
f 67/68/68 73/74/74 56/57/57
f 49/50/50 56/57/57 74/75/75
f 61/62/62 68/69/69 75/76/76
f 61/62/62 75/76/76 43/44/44
f 43/44/44 75/76/76 62/63/63
f 70/71/71 44/45/45 76/77/77
f 70/71/71 76/77/77 71/72/72
f 71/72/72 76/77/77 77/78/78
f 72/73/73 78/79/79 73/74/74
f 73/74/74 78/79/79 79/80/80
f 73/74/74 79/80/80 56/57/57
f 49/50/50 74/75/75 68/69/69
f 75/76/76 80/81/81 62/63/63
f 51/52/52 62/63/63 69/70/70
f 76/77/77 44/45/45 81/82/82
f 76/77/77 81/82/82 77/78/78
f 77/78/78 81/82/82 82/83/83
f 78/79/79 83/84/84 79/80/80
f 79/80/80 83/84/84 84/85/85
f 79/80/80 84/85/85 56/57/57
f 68/69/69 74/75/75 75/76/76
f 81/82/82 44/45/45 85/86/86
f 81/82/82 85/86/86 82/83/83
f 82/83/83 85/86/86 86/87/87
f 83/84/84 87/88/88 84/85/85
f 84/85/85 87/88/88 88/89/89
f 84/85/85 88/89/89 56/57/57
f 75/76/76 89/90/90 80/81/81
f 80/81/81 89/90/90 90/91/91
f 80/81/81 90/91/91 62/63/63
f 69/70/70 91/92/92 63/64/64
f 63/64/64 91/92/92 44/45/45
f 44/45/45 91/92/92 92/93/93
f 44/45/45 92/93/93 85/86/86
f 85/86/86 92/93/93 93/94/94
f 85/86/86 93/94/94 86/87/87
f 86/87/87 93/94/94 94/95/95
f 87/88/88 95/96/96 88/89/89
f 88/89/89 95/96/96 96/97/97
f 88/89/89 96/97/97 56/57/57
f 56/57/57 97/98/98 74/75/75
f 75/76/76 74/75/75 105/99/99
f 75/76/76 105/99/99 98/100/100
f 75/76/76 98/100/100 89/90/90
f 89/90/90 98/100/100 90/91/91
f 62/63/63 90/91/91 69/70/70
f 69/70/70 99/101/101 100/102/102
f 69/70/70 100/102/102 91/92/92
f 93/94/94 92/93/93 101/103/103
f 93/94/94 101/103/103 94/95/95
f 94/95/95 101/103/103 102/104/104
f 95/96/96 103/105/105 96/97/97
f 96/97/97 103/105/105 104/106/106
f 96/97/97 104/106/106 56/57/57
f 90/91/91 99/101/101 69/70/70
f 91/92/92 100/102/102 106/107/107
f 91/92/92 106/107/107 92/93/93
f 101/103/103 92/93/93 107/108/108
f 101/103/103 107/108/108 102/104/104
f 102/104/104 107/108/108 108/109/109
f 103/105/105 109/110/110 104/106/106
f 104/106/106 109/110/110 110/111/111
f 104/106/106 110/111/111 56/57/57
f 74/75/75 97/98/98 105/99/99
f 98/100/100 105/99/99 111/112/112
f 98/100/100 111/112/112 90/91/91
f 90/91/91 112/113/113 99/101/101
f 100/102/102 99/101/101 106/107/107
f 107/108/108 92/93/93 113/114/114
f 107/108/108 113/114/114 108/109/109
f 108/109/109 113/114/114 114/115/115
f 109/110/110 115/116/116 110/111/111
f 110/111/111 115/116/116 116/117/117
f 110/111/111 116/117/117 56/57/57
f 56/57/57 116/117/117 97/98/98
f 90/91/91 111/112/112 112/113/113
f 113/114/114 92/93/93 118/118/118
f 113/114/114 118/118/118 114/115/115
f 114/115/115 118/118/118 119/119/119
f 115/116/116 120/120/120 116/117/117
f 116/117/117 120/120/120 121/121/121
f 116/117/117 121/121/121 97/98/98
f 111/112/112 122/122/122 112/113/113
f 99/101/101 117/123/123 106/107/107
f 92/93/93 106/107/107 123/124/124
f 118/118/118 92/93/93 124/125/125
f 118/118/118 124/125/125 119/119/119
f 119/119/119 124/125/125 125/126/126
f 120/120/120 126/127/127 121/121/121
f 121/121/121 126/127/127 127/128/128
f 121/121/121 127/128/128 97/98/98
f 97/98/98 127/128/128 128/129/129
f 111/112/112 105/99/99 122/122/122
f 117/123/123 129/130/130 106/107/107
f 92/93/93 123/124/124 130/131/131
f 92/93/93 130/131/131 124/125/125
f 124/125/125 130/131/131 131/132/132
f 124/125/125 131/132/132 125/126/126
f 125/126/126 131/132/132 132/133/133
f 126/127/127 133/134/134 127/128/128
f 127/128/128 133/134/134 134/135/135
f 127/128/128 134/135/135 128/129/129
f 112/113/113 135/136/136 99/101/101
f 99/101/101 136/137/137 117/123/123
f 131/132/132 130/131/131 137/138/138
f 131/132/132 137/138/138 132/133/133
f 132/133/133 137/138/138 138/139/139
f 133/134/134 139/140/140 134/135/135
f 134/135/135 139/140/140 140/141/141
f 134/135/135 140/141/141 128/129/129
f 105/99/99 97/98/98 141/142/142
f 105/99/99 141/142/142 122/122/122
f 99/101/101 135/136/136 136/137/137
f 117/123/123 136/137/137 129/130/130
f 106/107/107 129/130/130 123/124/124
f 137/138/138 130/131/131 142/143/143
f 137/138/138 142/143/143 138/139/139
f 138/139/139 142/143/143 143/144/144
f 139/140/140 144/145/145 140/141/141
f 140/141/141 144/145/145 145/146/146
f 140/141/141 145/146/146 128/129/129
f 112/113/113 122/122/122 146/147/147
f 112/113/113 146/147/147 135/136/136
f 123/124/124 147/148/148 130/131/131
f 142/143/143 130/131/131 148/149/149
f 142/143/143 148/149/149 143/144/144
f 143/144/144 148/149/149 149/150/150
f 144/145/145 150/151/151 145/146/146
f 145/146/146 150/151/151 151/152/152
f 145/146/146 151/152/152 128/129/129
f 123/124/124 129/130/130 147/148/148
f 148/149/149 130/131/131 152/153/153
f 148/149/149 152/153/153 149/150/150
f 149/150/150 152/153/153 153/154/154
f 150/151/151 154/155/155 151/152/152
f 151/152/152 154/155/155 155/156/156
f 151/152/152 155/156/156 128/129/129
f 122/122/122 141/142/142 146/147/147
f 135/136/136 146/147/147 136/137/137
f 129/130/130 136/137/137 156/157/157
f 129/130/130 156/157/157 147/148/148
f 147/148/148 157/158/158 130/131/131
f 152/153/153 130/131/131 158/159/159
f 152/153/153 158/159/159 153/154/154
f 153/154/154 158/159/159 159/160/160
f 154/155/155 160/161/161 155/156/156
f 155/156/156 160/161/161 161/162/162
f 155/156/156 161/162/162 128/129/129
f 136/137/137 146/147/147 168/163/163
f 136/137/137 168/163/163 162/164/164
f 147/148/148 156/157/157 157/158/158
f 158/159/159 130/131/131 163/165/165
f 158/159/159 163/165/165 159/160/160
f 159/160/160 163/165/165 164/166/166
f 160/161/161 165/167/167 161/162/162
f 161/162/162 165/167/167 166/168/168
f 161/162/162 166/168/168 128/129/129
f 97/98/98 128/129/129 167/169/169
f 97/98/98 167/169/169 141/142/142
f 136/137/137 162/164/164 156/157/157
f 163/165/165 130/131/131 169/170/170
f 163/165/165 169/170/170 164/166/166
f 164/166/166 169/170/170 170/171/171
f 165/167/167 171/172/172 166/168/168
f 166/168/168 171/172/172 172/173/173
f 166/168/168 172/173/173 128/129/129
f 146/147/147 141/142/142 173/174/174
f 146/147/147 173/174/174 174/175/175
f 146/147/147 174/175/175 168/163/163
f 156/157/157 182/176/176 157/158/158
f 157/158/158 182/176/176 175/177/177
f 157/158/158 175/177/177 176/178/178
f 157/158/158 176/178/178 130/131/131
f 169/170/170 130/131/131 177/179/179
f 169/170/170 177/179/179 170/171/171
f 170/171/171 177/179/179 178/180/180
f 171/172/172 179/181/181 172/173/173
f 172/173/173 179/181/181 180/182/182
f 172/173/173 180/182/182 128/129/129
f 141/142/142 167/169/169 173/174/174
f 174/175/175 181/183/183 168/163/163
f 162/164/164 182/176/176 156/157/157
f 177/179/179 130/131/131 183/184/184
f 177/179/179 183/184/184 178/180/180
f 178/180/180 183/184/184 184/185/185
f 179/181/181 185/186/186 180/182/182
f 180/182/182 185/186/186 186/187/187
f 180/182/182 186/187/187 128/129/129
f 174/175/175 173/174/174 181/183/183
f 162/164/164 168/163/163 182/176/176
f 130/131/131 176/178/178 183/184/184
f 183/184/184 176/178/178 187/188/188
f 183/184/184 187/188/188 184/185/185
f 184/185/185 187/188/188 188/189/189
f 185/186/186 189/190/190 186/187/187
f 186/187/187 189/190/190 190/191/191
f 186/187/187 190/191/191 128/129/129
f 167/169/169 128/129/129 191/192/192
f 167/169/169 191/192/192 192/193/193
f 167/169/169 192/193/193 173/174/174
f 168/163/163 181/183/183 193/194/194
f 168/163/163 193/194/194 182/176/176
f 182/176/176 194/195/195 175/177/177
f 187/188/188 176/178/178 195/196/196
f 187/188/188 195/196/196 188/189/189
f 188/189/189 195/196/196 196/197/197
f 189/190/190 197/198/198 190/191/191
f 190/191/191 197/198/198 198/199/199
f 190/191/191 198/199/199 128/129/129
f 192/193/193 191/192/192 199/200/200
f 173/174/174 192/193/193 181/183/183
f 194/195/195 182/176/176 200/201/201
f 176/178/178 175/177/177 201/202/202
f 176/178/178 201/202/202 195/196/196
f 195/196/196 201/202/202 202/203/203
f 195/196/196 202/203/203 196/197/197
f 196/197/197 202/203/203 203/204/204
f 197/198/198 204/205/205 198/199/199
f 198/199/199 204/205/205 205/206/206
f 198/199/199 205/206/206 128/129/129
f 128/129/129 206/207/207 191/192/192
f 181/183/183 212/208/208 193/194/194
f 175/177/177 194/195/195 207/209/209
f 175/177/177 207/209/209 201/202/202
f 202/203/203 201/202/202 208/210/210
f 202/203/203 208/210/210 203/204/204
f 203/204/204 208/210/210 209/211/211
f 204/205/205 210/212/212 205/206/206
f 205/206/206 210/212/212 211/213/213
f 205/206/206 211/213/213 128/129/129
f 128/129/129 211/213/213 206/207/207
f 192/193/193 212/208/208 181/183/183
f 193/194/194 212/208/208 213/214/214
f 182/176/176 193/194/194 214/215/215
f 182/176/176 214/215/215 200/201/201
f 194/195/195 200/201/201 215/216/216
f 194/195/195 215/216/216 207/209/209
f 208/210/210 201/202/202 216/217/217
f 208/210/210 216/217/217 209/211/211
f 209/211/211 216/217/217 217/218/218
f 210/212/212 218/219/219 211/213/213
f 211/213/213 218/219/219 219/220/220
f 211/213/213 219/220/220 206/207/207
f 191/192/192 206/207/207 199/200/200
f 199/200/200 212/208/208 192/193/193
f 200/201/201 214/215/215 215/216/216
f 216/217/217 201/202/202 220/221/221
f 216/217/217 220/221/221 217/218/218
f 217/218/218 220/221/221 221/222/222
f 218/219/219 222/223/223 219/220/220
f 219/220/220 222/223/223 223/224/224
f 219/220/220 223/224/224 206/207/207
f 199/200/200 206/207/207 224/225/225
f 193/194/194 213/214/214 214/215/215
f 220/221/221 201/202/202 225/226/226
f 220/221/221 225/226/226 221/222/222
f 221/222/222 225/226/226 226/227/227
f 222/223/223 227/228/228 223/224/224
f 223/224/224 227/228/228 228/229/229
f 223/224/224 228/229/229 206/207/207
f 212/208/208 199/200/200 229/230/230
f 212/208/208 230/231/231 213/214/214
f 213/214/214 231/232/232 214/215/215
f 225/226/226 201/202/202 232/233/233
f 225/226/226 232/233/233 226/227/227
f 226/227/227 232/233/233 233/234/234
f 227/228/228 234/235/235 228/229/229
f 228/229/229 234/235/235 235/236/236
f 228/229/229 235/236/236 206/207/207
f 212/208/208 229/230/230 230/231/231
f 213/214/214 230/231/231 231/232/232
f 214/215/215 246/237/237 215/216/216
f 215/216/216 246/237/237 236/238/238
f 215/216/216 236/238/238 207/209/209
f 207/209/209 237/239/239 201/202/202
f 201/202/202 237/239/239 238/240/240
f 201/202/202 238/240/240 232/233/233
f 232/233/233 238/240/240 239/241/241
f 232/233/233 239/241/241 233/234/234
f 233/234/234 239/241/241 240/242/242
f 234/235/235 241/243/243 235/236/236
f 235/236/236 241/243/243 242/244/244
f 235/236/236 242/244/244 206/207/207
f 199/200/200 224/225/225 243/245/245
f 199/200/200 243/245/245 244/246/246
f 199/200/200 244/246/246 229/230/230
f 229/230/230 245/247/247 230/231/231
f 231/232/232 246/237/237 214/215/215
f 207/209/209 236/238/238 237/239/239
f 239/241/241 238/240/240 247/248/248
f 239/241/241 247/248/248 240/242/242
f 240/242/242 247/248/248 248/249/249
f 241/243/243 249/250/250 242/244/244
f 242/244/244 249/250/250 250/251/251
f 242/244/244 250/251/251 206/207/207
f 229/230/230 244/246/246 245/247/247
f 230/231/231 245/247/247 231/232/232
f 237/239/239 264/252/252 238/240/240
f 247/248/248 238/240/240 251/253/253
f 247/248/248 251/253/253 248/249/249
f 248/249/249 251/253/253 252/254/254
f 249/250/250 253/255/255 250/251/251
f 250/251/251 253/255/255 254/256/256
f 250/251/251 254/256/256 206/207/207
f 206/207/207 254/256/256 255/257/257
f 206/207/207 255/257/257 224/225/225
f 243/245/245 256/258/258 244/246/246
f 251/253/253 238/240/240 257/259/259
f 251/253/253 257/259/259 252/254/254
f 252/254/254 257/259/259 258/260/260
f 253/255/255 259/261/261 254/256/256
f 254/256/256 259/261/261 260/262/262
f 254/256/256 260/262/262 255/257/257
f 224/225/225 255/257/257 243/245/245
f 243/245/245 255/257/257 256/258/258
f 244/246/246 256/258/258 261/263/263
f 244/246/246 261/263/263 245/247/247
f 245/247/247 261/263/263 262/264/264
f 245/247/247 262/264/264 231/232/232
f 231/232/232 262/264/264 246/237/237
f 246/237/237 262/264/264 236/238/238
f 236/238/238 262/264/264 263/265/265
f 236/238/238 264/252/252 237/239/239
f 257/259/259 238/240/240 265/266/266
f 257/259/259 265/266/266 258/260/260
f 258/260/260 265/266/266 266/267/267
f 259/261/261 267/268/268 260/262/262
f 260/262/262 267/268/268 268/269/269
f 260/262/262 268/269/269 255/257/257
f 261/263/263 269/270/270 262/264/264
f 236/238/238 263/265/265 264/252/252
f 238/240/240 270/271/271 265/266/266
f 265/266/266 270/271/271 271/272/272
f 265/266/266 271/272/272 266/267/267
f 266/267/267 271/272/272 272/273/273
f 267/268/268 273/274/274 268/269/269
f 268/269/269 273/274/274 274/275/275
f 268/269/269 274/275/275 255/257/257
f 255/257/257 281/276/276 256/258/258
f 256/258/258 281/276/276 275/277/277
f 256/258/258 275/277/277 261/263/263
f 262/264/264 276/278/278 263/265/265
f 264/252/252 263/265/265 282/279/279
f 271/272/272 270/271/271 277/280/280
f 271/272/272 277/280/280 272/273/273
f 272/273/273 277/280/280 278/281/281
f 273/274/274 279/282/282 274/275/275
f 274/275/275 279/282/282 280/283/283
f 274/275/275 280/283/283 255/257/257
f 261/263/263 291/284/284 269/270/270
f 276/278/278 282/279/279 263/265/265
f 264/252/252 282/279/279 283/285/285
f 264/252/252 283/285/285 284/286/286
f 264/252/252 284/286/286 238/240/240
f 277/280/280 270/271/271 285/287/287
f 277/280/280 285/287/287 278/281/281
f 278/281/281 285/287/287 286/288/288
f 279/282/282 287/289/289 280/283/283
f 280/283/283 287/289/289 288/290/290
f 280/283/283 288/290/290 255/257/257
f 255/257/257 288/290/290 289/291/291
f 255/257/257 289/291/291 281/276/276
f 281/276/276 290/292/292 275/277/277
f 275/277/277 290/292/292 291/284/284
f 275/277/277 291/284/284 261/263/263
f 262/264/264 269/270/270 276/278/278
f 238/240/240 284/286/286 270/271/271
f 285/287/287 270/271/271 292/293/293
f 285/287/287 292/293/293 286/288/288
f 286/288/288 292/293/293 293/294/294
f 287/289/289 294/295/295 288/290/290
f 288/290/290 294/295/295 295/296/296
f 288/290/290 295/296/296 289/291/291
f 269/270/270 291/284/284 296/297/297
f 282/279/279 297/298/298 283/285/285
f 283/285/285 297/298/298 284/286/286
f 292/293/293 270/271/271 298/299/299
f 292/293/293 298/299/299 293/294/294
f 293/294/294 298/299/299 299/300/300
f 294/295/295 300/301/301 295/296/296
f 295/296/296 300/301/301 301/302/302
f 295/296/296 301/302/302 289/291/291
f 290/292/292 302/303/303 291/284/284
f 291/284/284 303/304/304 296/297/297
f 269/270/270 296/297/297 276/278/278
f 284/286/286 304/305/305 270/271/271
f 298/299/299 270/271/271 305/306/306
f 298/299/299 305/306/306 299/300/300
f 299/300/300 305/306/306 306/307/307
f 300/301/301 307/308/308 301/302/302
f 301/302/302 307/308/308 308/309/309
f 301/302/302 308/309/309 289/291/291
f 281/276/276 289/291/291 290/292/292
f 291/284/284 302/303/303 303/304/304
f 276/278/278 296/297/297 282/279/279
f 304/305/305 309/15/15 270/271/271
f 270/271/271 309/15/15 305/306/306
f 305/306/306 309/15/15 310/310/310
f 305/306/306 310/310/310 306/307/307
f 306/307/307 310/310/310 311/311/311
f 307/308/308 312/312/312 308/309/309
f 308/309/309 312/312/312 313/313/313
f 308/309/309 313/313/313 289/291/291
f 282/279/279 296/297/297 314/314/314
f 284/286/286 297/298/298 304/305/305
f 310/310/310 309/15/15 315/315/315
f 310/310/310 315/315/315 311/311/311
f 311/311/311 315/315/315 316/316/316
f 312/312/312 317/317/317 313/313/313
f 313/313/313 317/317/317 318/318/318
f 313/313/313 318/318/318 289/291/291
f 290/292/292 319/319/319 302/303/303
f 302/303/303 319/319/319 303/304/304
f 282/279/279 314/314/314 297/298/298
f 304/305/305 15/14/14 309/15/15
f 315/315/315 309/15/15 320/320/320
f 315/315/315 320/320/320 316/316/316
f 316/316/316 320/320/320 321/321/321
f 317/317/317 322/322/322 318/318/318
f 318/318/318 322/322/322 323/323/323
f 318/318/318 323/323/323 289/291/291
f 289/291/291 323/323/323 5/5/5
f 303/304/304 8/8/8 296/297/297
f 296/297/297 8/8/8 324/324/324
f 296/297/297 324/324/324 314/314/314
f 297/298/298 13/12/12 304/305/305
f 320/320/320 309/15/15 325/325/325
f 320/320/320 325/325/325 321/321/321
f 321/321/321 325/325/325 326/326/326
f 322/322/322 327/327/327 323/323/323
f 323/323/323 327/327/327 328/328/328
f 323/323/323 328/328/328 5/5/5
f 290/292/292 5/5/5 319/319/319
f 314/314/314 11/9/9 297/298/298
f 297/298/298 11/9/9 13/12/12
f 304/305/305 13/12/12 15/14/14
f 325/325/325 309/15/15 329/329/329
f 325/325/325 329/329/329 326/326/326
f 326/326/326 329/329/329 330/330/330
f 327/327/327 331/331/331 328/328/328
f 328/328/328 331/331/331 332/332/332
f 328/328/328 332/332/332 5/5/5
f 289/291/291 5/5/5 290/292/292
f 319/319/319 7/6/6 303/304/304
f 303/304/304 7/6/6 8/8/8
f 329/329/329 309/15/15 333/333/333
f 329/329/329 333/333/333 330/330/330
f 330/330/330 333/333/333 334/334/334
f 331/331/331 1/1/1 332/332/332
f 332/332/332 1/1/1 3/3/3
f 332/332/332 3/3/3 5/5/5
f 319/319/319 5/5/5 6/7/7
f 319/319/319 6/7/7 7/6/6
f 8/8/8 9/24/24 324/324/324
f 324/324/324 9/24/24 314/314/314
f 314/314/314 9/24/24 10/10/10
f 314/314/314 10/10/10 11/9/9
f 309/15/15 16/16/16 333/333/333
f 333/333/333 16/16/16 17/17/17
f 333/333/333 17/17/17 334/334/334
f 334/334/334 17/17/17 19/19/19
